<?xml version="1.0" encoding="UTF-8" standalone="no"?>
<svg
   width="20.200001"
   height="19.820477"
   stroke-width="1.5"
   viewBox="0 0 20.200001 19.820477"
   fill="none"
   color="#000000"
   version="1.1"
   id="svg1"
   sodipodi:docname="airplane.svg"
   inkscape:version="1.3.2 (1:1.3.2+202311252150+091e20ef0f)"
   xmlns:inkscape="http://www.inkscape.org/namespaces/inkscape"
   xmlns:sodipodi="http://sodipodi.sourceforge.net/DTD/sodipodi-0.dtd"
   xmlns="http://www.w3.org/2000/svg"
   xmlns:svg="http://www.w3.org/2000/svg">
  <defs
     id="defs1" />
  <sodipodi:namedview
     id="namedview1"
     pagecolor="#505050"
     bordercolor="#eeeeee"
     borderopacity="1"
     inkscape:showpageshadow="0"
     inkscape:pageopacity="0"
     inkscape:pagecheckerboard="0"
     inkscape:deskcolor="#d1d1d1"
     inkscape:zoom="49"
     inkscape:cx="10.102041"
     inkscape:cy="9.6122449"
     inkscape:window-width="3440"
     inkscape:window-height="1376"
     inkscape:window-x="0"
     inkscape:window-y="27"
     inkscape:window-maximized="1"
     inkscape:current-layer="svg1" />
  <path
     d="m 8.6,2.1 v 4.66745 c 0,0.20688 -0.1066,0.39916 -0.282,0.5088 L 0.88200002,11.9237 c -0.17543,0.1097 -0.282,0.302 -0.282,0.5088 v 0.899 c 0,0.3904 0.36683,0.6768 0.74551998,0.5821 L 7.85448,12.2864 C 8.2332,12.1917 8.6,12.4781 8.6,12.8685 v 2.9592 c 0,0.1731 -0.0747,0.3377 -0.2049,0.4516 L 6.23481,18.1695 C 5.7765,18.5706 6.13808,19.3204 6.73724,19.2114 L 9.9927,18.6195 c 0.0709,-0.0129 0.1437,-0.0129 0.2146,0 l 3.2555,0.5919 c 0.5991,0.109 0.9607,-0.6408 0.5024,-1.0419 L 11.8049,16.2793 C 11.6747,16.1654 11.6,16.0008 11.6,15.8277 v -2.9592 c 0,-0.3904 0.3668,-0.6768 0.7455,-0.5821 l 6.509,1.6272 C 19.2332,14.0083 19.6,13.7219 19.6,13.3315 v -0.899 c 0,-0.2068 -0.1066,-0.3991 -0.282,-0.5088 L 11.882,7.27625 C 11.7066,7.16661 11.6,6.97433 11.6,6.76745 V 2.1 C 11.6,1.27157 10.9284,0.60000002 10.1,0.60000002 9.2716,0.60000002 8.6,1.27157 8.6,2.1 Z"
     stroke="#000000"
     stroke-width="1.5"
     stroke-linecap="round"
     stroke-linejoin="round"
     id="path1"
     style="stroke-width:1.2;stroke-dasharray:none" />
</svg>
