<?xml version="1.0" encoding="UTF-8" standalone="no"?>
<svg
   viewBox="0 0 25 12"
   fill="none"
   version="1.1"
   id="svg8"
   sodipodi:docname="battery-signal.svg"
   inkscape:version="1.1.2 (0a00cf5339, 2022-02-04)"
   xmlns:inkscape="http://www.inkscape.org/namespaces/inkscape"
   xmlns:sodipodi="http://sodipodi.sourceforge.net/DTD/sodipodi-0.dtd"
   xmlns="http://www.w3.org/2000/svg"
   xmlns:svg="http://www.w3.org/2000/svg">
  <defs
     id="defs12" />
  <sodipodi:namedview
     id="namedview10"
     pagecolor="#ffffff"
     bordercolor="#666666"
     borderopacity="1.0"
     inkscape:pageshadow="2"
     inkscape:pageopacity="0.0"
     inkscape:pagecheckerboard="0"
     showgrid="false"
     inkscape:zoom="53.52"
     inkscape:cx="12.5"
     inkscape:cy="5.9884155"
     inkscape:window-width="2560"
     inkscape:window-height="1016"
     inkscape:window-x="0"
     inkscape:window-y="27"
     inkscape:window-maximized="1"
     inkscape:current-layer="svg8" />
  <path
     d="m 24,4 v 0 c 0.5523,0 1,0.44772 1,1 v 2 c 0,0.55228 -0.4477,1 -1,1 v 0 z"
     fill="#3c3c43"
     fill-opacity="0.6"
     id="path836" />
  <path
     fill-rule="evenodd"
     clip-rule="evenodd"
     d="m 3,0 h 17 c 1.6569,0 3,1.34315 3,3 v 6 c 0,1.6569 -1.3431,3 -3,3 H 3 C 1.34315,12 0,10.6569 0,9 V 3 C 0,1.34315 1.34315,0 3,0 Z M 3,1 C 1.89543,1 1,1.89543 1,3 v 6 c 0,1.1046 0.89543,2 2,2 h 17 c 1.1046,0 2,-0.8954 2,-2 V 3 C 22,1.89543 21.1046,1 20,1 Z"
     fill="#3c3c43"
     fill-opacity="0.6"
     id="path839" />
  <rect
     x="2"
     y="2"
     width="19"
     height="8"
     rx="1"
     fill="#1f1f1f"
     id="rect842" />
</svg>
