<?xml version="1.0" encoding="UTF-8" standalone="no"?>
<svg
   width="19.500299"
   height="19.218058"
   viewBox="0 0 19.500299 19.218058"
   fill="none"
   color="#000000"
   stroke-width="1.2"
   version="1.1"
   id="svg4"
   sodipodi:docname="filter-solid.svg"
   inkscape:version="1.1.2 (0a00cf5339, 2022-02-04)"
   xmlns:inkscape="http://www.inkscape.org/namespaces/inkscape"
   xmlns:sodipodi="http://sodipodi.sourceforge.net/DTD/sodipodi-0.dtd"
   xmlns="http://www.w3.org/2000/svg"
   xmlns:svg="http://www.w3.org/2000/svg">
  <defs
     id="defs8" />
  <sodipodi:namedview
     id="namedview6"
     pagecolor="#ffffff"
     bordercolor="#666666"
     borderopacity="1.0"
     inkscape:pageshadow="2"
     inkscape:pageopacity="0.0"
     inkscape:pagecheckerboard="0"
     showgrid="false"
     inkscape:zoom="35.166667"
     inkscape:cx="9.7393365"
     inkscape:cy="9.7677725"
     inkscape:window-width="2560"
     inkscape:window-height="1016"
     inkscape:window-x="0"
     inkscape:window-y="27"
     inkscape:window-maximized="1"
     inkscape:current-layer="svg4" />
  <path
     d="m 1.75,0.75 h 16.0001 c 0.5523,0 1,0.44764 1,0.99987 l 2e-4,1.58582 c 10e-5,0.26528 -0.1053,0.51969 -0.2929,0.70726 L 12.0429,10.4571 C 11.8554,10.6446 11.75,10.899 11.75,11.1642 v 6.305 c 0,0.6506 -0.6114,1.128 -1.2425,0.9702 l -2,-0.5 C 8.0623,17.8281 7.75,17.4281 7.75,16.9692 v -5.805 C 7.75,10.899 7.64464,10.6446 7.4571,10.4571 L 1.04289,4.04289 C 0.85535,3.85536 0.75,3.601 0.75,3.33579 V 1.75 c 0,-0.55228 0.44771,-1 1,-1 z"
     fill="#000000"
     stroke="#000000"
     stroke-width="1.2"
     stroke-linecap="round"
     stroke-linejoin="round"
     id="path2" />
</svg>
