<?xml version="1.0" encoding="UTF-8" standalone="no"?>
<svg
   width="19.200001"
   height="18.522257"
   stroke-width="1.2"
   viewBox="0 0 19.200001 18.522257"
   fill="none"
   color="#000000"
   version="1.1"
   id="svg4"
   sodipodi:docname="home.svg"
   inkscape:version="1.1.2 (0a00cf5339, 2022-02-04)"
   xmlns:inkscape="http://www.inkscape.org/namespaces/inkscape"
   xmlns:sodipodi="http://sodipodi.sourceforge.net/DTD/sodipodi-0.dtd"
   xmlns="http://www.w3.org/2000/svg"
   xmlns:svg="http://www.w3.org/2000/svg">
  <defs
     id="defs8" />
  <sodipodi:namedview
     id="namedview6"
     pagecolor="#ffffff"
     bordercolor="#666666"
     borderopacity="1.0"
     inkscape:pageshadow="2"
     inkscape:pageopacity="0.0"
     inkscape:pagecheckerboard="0"
     showgrid="false"
     inkscape:zoom="35.166667"
     inkscape:cx="9.5971564"
     inkscape:cy="8.943128"
     inkscape:window-width="2560"
     inkscape:window-height="1016"
     inkscape:window-x="0"
     inkscape:window-y="27"
     inkscape:window-maximized="1"
     inkscape:current-layer="svg4" />
  <path
     d="m 6.6,17.922257 h -2 c -2.20914,0 -3.99999998,-1.7909 -3.99999998,-4 V 7.6298568 c 0,-1.39873 0.73060998,-2.69585 1.92678998,-3.42081 l 5,-3.0303 c 1.27431,-0.77227998 2.87211,-0.77227998 4.14641,0 l 5,3.0303 c 1.1962,0.72496 1.9268,2.02208 1.9268,3.42081 v 6.2924002 c 0,2.2091 -1.7909,4 -4,4 h -2 m -6,0 v -4 c 0,-1.6569 1.3431,-3 3,-3 v 0 c 1.6569,0 3,1.3431 3,3 v 4 m -6,0 h 6"
     stroke="#000000"
     stroke-width="1.2"
     stroke-linecap="round"
     stroke-linejoin="round"
     id="path2" />
</svg>
