<?xml version="1.0" encoding="UTF-8" standalone="no"?>
<svg
   width="20.200001"
   height="20.200001"
   stroke-width="1.2"
   viewBox="0 0 20.200001 20.200001"
   fill="none"
   color="#000000"
   version="1.1"
   id="svg10"
   sodipodi:docname="media-add.svg"
   inkscape:version="1.1.2 (0a00cf5339, 2022-02-04)"
   xmlns:inkscape="http://www.inkscape.org/namespaces/inkscape"
   xmlns:sodipodi="http://sodipodi.sourceforge.net/DTD/sodipodi-0.dtd"
   xmlns="http://www.w3.org/2000/svg"
   xmlns:svg="http://www.w3.org/2000/svg">
  <defs
     id="defs14" />
  <sodipodi:namedview
     id="namedview12"
     pagecolor="#ffffff"
     bordercolor="#666666"
     borderopacity="1.0"
     inkscape:pageshadow="2"
     inkscape:pageopacity="0.0"
     inkscape:pagecheckerboard="0"
     showgrid="false"
     inkscape:zoom="35.166667"
     inkscape:cx="9.5971564"
     inkscape:cy="9.6255924"
     inkscape:window-width="2560"
     inkscape:window-height="1016"
     inkscape:window-x="0"
     inkscape:window-y="27"
     inkscape:window-maximized="1"
     inkscape:current-layer="svg10" />
  <path
     d="M 10.6,18.6 H 1.2 C 0.86863002,18.6 0.60000002,18.3314 0.60000002,18 V 1.2 c 0,-0.33136998 0.26863,-0.59999998 0.59999998,-0.59999998 H 18 c 0.3314,0 0.6,0.26863 0.6,0.59999998 v 9.4"
     stroke="#000000"
     stroke-width="1.2"
     stroke-linecap="round"
     stroke-linejoin="round"
     id="path2" />
  <path
     d="M 0.60000002,13.6 7.6,10.6 l 5.5,2.5"
     stroke="#000000"
     stroke-width="1.2"
     stroke-linecap="round"
     stroke-linejoin="round"
     id="path4" />
  <path
     d="m 13.6,7.6 c -1.1046,0 -2,-0.89543 -2,-2 0,-1.10457 0.8954,-2 2,-2 1.1046,0 2,0.89543 2,2 0,1.10457 -0.8954,2 -2,2 z"
     stroke="#000000"
     stroke-width="1.2"
     stroke-linecap="round"
     stroke-linejoin="round"
     id="path6" />
  <path
     d="m 13.6,16.6 h 3 m 3,0 h -3 m 0,0 v -3 m 0,3 v 3"
     stroke="#000000"
     stroke-width="1.2"
     stroke-linecap="round"
     stroke-linejoin="round"
     id="path8" />
</svg>
