<?xml version="1.0" encoding="UTF-8" standalone="no"?>
<svg
   viewBox="0 0 16.5 10"
   fill="none"
   version="1.1"
   id="svg16"
   sodipodi:docname="network-signal.svg"
   inkscape:version="1.1.2 (0a00cf5339, 2022-02-04)"
   xmlns:inkscape="http://www.inkscape.org/namespaces/inkscape"
   xmlns:sodipodi="http://sodipodi.sourceforge.net/DTD/sodipodi-0.dtd"
   xmlns="http://www.w3.org/2000/svg"
   xmlns:svg="http://www.w3.org/2000/svg">
  <defs
     id="defs20" />
  <sodipodi:namedview
     id="namedview18"
     pagecolor="#ffffff"
     bordercolor="#666666"
     borderopacity="1.0"
     inkscape:pageshadow="2"
     inkscape:pageopacity="0.0"
     inkscape:pagecheckerboard="0"
     showgrid="false"
     inkscape:zoom="60.285714"
     inkscape:cx="7.9952607"
     inkscape:cy="4.9845972"
     inkscape:window-width="2560"
     inkscape:window-height="1016"
     inkscape:window-x="0"
     inkscape:window-y="27"
     inkscape:window-maximized="1"
     inkscape:current-layer="svg16" />
  <path
     fill-rule="evenodd"
     clip-rule="evenodd"
     d="m 10,2 h 1 c 0.5523,0 1,0.44772 1,1 v 6 c 0,0.5523 -0.4477,1 -1,1 H 10 C 9.4477,10 9,9.5523 9,9 V 3 C 9,2.44772 9.4477,2 10,2 Z"
     fill="#d9d9d9"
     id="path852" />
  <path
     fill-rule="evenodd"
     clip-rule="evenodd"
     d="m 5.5,4 h 1 c 0.55228,0 1,0.44772 1,1 v 4 c 0,0.5523 -0.44772,1 -1,1 h -1 C 4.94772,10 4.5,9.5523 4.5,9 V 5 c 0,-0.55228 0.44772,-1 1,-1 z"
     fill="#d9d9d9"
     id="path855" />
  <path
     fill-rule="evenodd"
     clip-rule="evenodd"
     d="m 1,5.5 h 1 c 0.55228,0 1,0.44772 1,1 V 9 C 3,9.5523 2.55228,10 2,10 H 1 C 0.44772,10 0,9.5523 0,9 V 6.5 c 0,-0.55228 0.44772,-1 1,-1 z"
     fill="#d9d9d9"
     id="path858" />
  <path
     fill-rule="evenodd"
     clip-rule="evenodd"
     d="m 14.5,0 h 1 c 0.5523,0 1,0.44772 1,1 v 8 c 0,0.5523 -0.4477,1 -1,1 h -1 c -0.5523,0 -1,-0.4477 -1,-1 V 1 c 0,-0.55228 0.4477,-1 1,-1 z"
     fill="#3c3c43"
     fill-opacity="0.18"
     id="path861" />
  <path
     fill-rule="evenodd"
     clip-rule="evenodd"
     d="m 10,2 h 1 c 0.5523,0 1,0.44772 1,1 v 6 c 0,0.5523 -0.4477,1 -1,1 H 10 C 9.4477,10 9,9.5523 9,9 V 3 C 9,2.44772 9.4477,2 10,2 Z"
     fill="#1f1f1f"
     id="path864" />
  <path
     fill-rule="evenodd"
     clip-rule="evenodd"
     d="m 5.5,4 h 1 c 0.55228,0 1,0.44772 1,1 v 4 c 0,0.5523 -0.44772,1 -1,1 h -1 C 4.94772,10 4.5,9.5523 4.5,9 V 5 c 0,-0.55228 0.44772,-1 1,-1 z"
     fill="#1f1f1f"
     id="path867" />
  <path
     fill-rule="evenodd"
     clip-rule="evenodd"
     d="m 1,5.5 h 1 c 0.55228,0 1,0.44772 1,1 V 9 C 3,9.5523 2.55228,10 2,10 H 1 C 0.44772,10 0,9.5523 0,9 V 6.5 c 0,-0.55228 0.44772,-1 1,-1 z"
     fill="#1f1f1f"
     id="path870" />
</svg>
