<?xml version="1.0" encoding="UTF-8" standalone="no"?>
<svg
   width="13.2"
   height="15.2"
   stroke-width="1.2"
   viewBox="0 0 13.2 15.2"
   fill="none"
   color="#000000"
   version="1.1"
   id="svg6"
   sodipodi:docname="pause.svg"
   inkscape:version="1.1.2 (0a00cf5339, 2022-02-04)"
   xmlns:inkscape="http://www.inkscape.org/namespaces/inkscape"
   xmlns:sodipodi="http://sodipodi.sourceforge.net/DTD/sodipodi-0.dtd"
   xmlns="http://www.w3.org/2000/svg"
   xmlns:svg="http://www.w3.org/2000/svg">
  <defs
     id="defs10" />
  <sodipodi:namedview
     id="namedview8"
     pagecolor="#ffffff"
     bordercolor="#666666"
     borderopacity="1.0"
     inkscape:pageshadow="2"
     inkscape:pageopacity="0.0"
     inkscape:pagecheckerboard="0"
     showgrid="false"
     inkscape:zoom="35.166667"
     inkscape:cx="6.5829384"
     inkscape:cy="7.6066351"
     inkscape:window-width="2560"
     inkscape:window-height="1016"
     inkscape:window-x="0"
     inkscape:window-y="27"
     inkscape:window-maximized="1"
     inkscape:current-layer="svg6" />
  <path
     d="M 0.60000002,14 V 1.2 c 0,-0.33136998 0.26863,-0.59999998 0.59999998,-0.59999998 H 4 c 0.33137,0 0.6,0.26863 0.6,0.59999998 V 14 c 0,0.3314 -0.26863,0.6 -0.6,0.6 H 1.2 C 0.86863002,14.6 0.60000002,14.3314 0.60000002,14 Z"
     stroke="#000000"
     stroke-width="1.2"
     id="path2" />
  <path
     d="M 8.6,14 V 1.2 C 8.6,0.86863002 8.8686,0.60000002 9.2,0.60000002 H 12 c 0.3314,0 0.6,0.26863 0.6,0.59999998 V 14 c 0,0.3314 -0.2686,0.6 -0.6,0.6 H 9.2 C 8.8686,14.6 8.6,14.3314 8.6,14 Z"
     stroke="#000000"
     stroke-width="1.2"
     id="path4" />
</svg>
