<?xml version="1.0" encoding="UTF-8" standalone="no"?>
<svg
   width="23.200001"
   height="18.200001"
   stroke-width="1.2"
   viewBox="0 0 23.200001 18.200001"
   fill="none"
   color="#000000"
   version="1.1"
   id="svg4"
   sodipodi:docname="people.svg"
   inkscape:version="1.3.2 (1:1.3.2+202311252150+091e20ef0f)"
   xmlns:inkscape="http://www.inkscape.org/namespaces/inkscape"
   xmlns:sodipodi="http://sodipodi.sourceforge.net/DTD/sodipodi-0.dtd"
   xmlns="http://www.w3.org/2000/svg"
   xmlns:svg="http://www.w3.org/2000/svg">
  <defs
     id="defs4" />
  <sodipodi:namedview
     id="namedview4"
     pagecolor="#505050"
     bordercolor="#eeeeee"
     borderopacity="1"
     inkscape:showpageshadow="0"
     inkscape:pageopacity="0"
     inkscape:pagecheckerboard="0"
     inkscape:deskcolor="#d1d1d1"
     inkscape:zoom="49"
     inkscape:cx="11.591837"
     inkscape:cy="9.5918367"
     inkscape:window-width="3440"
     inkscape:window-height="1376"
     inkscape:window-x="0"
     inkscape:window-y="27"
     inkscape:window-maximized="1"
     inkscape:current-layer="svg4" />
  <path
     d="m 0.60000002,17.6 v -1 c 0,-3.866 3.13400998,-7 6.99999998,-7 v 0 c 3.866,0 7,3.134 7,7 v 1"
     stroke="#000000"
     stroke-width="1.2"
     stroke-linecap="round"
     id="path1" />
  <path
     d="m 12.6,11.6 v 0 c 0,-2.7614 2.2386,-5 5,-5 v 0 c 2.7614,0 5,2.2386 5,5 v 0.5"
     stroke="#000000"
     stroke-width="1.2"
     stroke-linecap="round"
     id="path2" />
  <path
     d="m 7.6,9.6 c 2.2091,0 4,-1.7909 4,-4 0,-2.20914 -1.7909,-4 -4,-4 -2.20914,0 -4,1.79086 -4,4 0,2.2091 1.79086,4 4,4 z"
     stroke="#000000"
     stroke-width="1.2"
     stroke-linecap="round"
     stroke-linejoin="round"
     id="path3" />
  <path
     d="m 17.6,6.6 c 1.6569,0 3,-1.34315 3,-3 0,-1.65685 -1.3431,-2.99999998 -3,-2.99999998 -1.6569,0 -3,1.34314998 -3,2.99999998 0,1.65685 1.3431,3 3,3 z"
     stroke="#000000"
     stroke-width="1.2"
     stroke-linecap="round"
     stroke-linejoin="round"
     id="path4" />
</svg>
