<?xml version="1.0" encoding="UTF-8" standalone="no"?>
<svg
   width="21.5"
   height="21.5"
   stroke-width="1.2"
   viewBox="0 0 21.5 21.5"
   fill="none"
   color="#000000"
   version="1.1"
   id="svg6"
   sodipodi:docname="settings.svg"
   inkscape:version="1.1.2 (0a00cf5339, 2022-02-04)"
   xmlns:inkscape="http://www.inkscape.org/namespaces/inkscape"
   xmlns:sodipodi="http://sodipodi.sourceforge.net/DTD/sodipodi-0.dtd"
   xmlns="http://www.w3.org/2000/svg"
   xmlns:svg="http://www.w3.org/2000/svg">
  <defs
     id="defs10" />
  <sodipodi:namedview
     id="namedview8"
     pagecolor="#ffffff"
     bordercolor="#666666"
     borderopacity="1.0"
     inkscape:pageshadow="2"
     inkscape:pageopacity="0.0"
     inkscape:pagecheckerboard="0"
     showgrid="false"
     inkscape:zoom="35.166667"
     inkscape:cx="10.734597"
     inkscape:cy="10.763033"
     inkscape:window-width="2560"
     inkscape:window-height="1016"
     inkscape:window-x="0"
     inkscape:window-y="27"
     inkscape:window-maximized="1"
     inkscape:current-layer="svg6" />
  <path
     d="m 10.75,13.75 c 1.6569,0 3,-1.3431 3,-3 0,-1.6569 -1.3431,-3 -3,-3 -1.6569,0 -3,1.3431 -3,3 0,1.6569 1.3431,3 3,3 z"
     stroke="#000000"
     stroke-width="1.2"
     stroke-linecap="round"
     stroke-linejoin="round"
     id="path2" />
  <path
     d="M 18.3724,9.1454 17.2747,6.4948 18.75,4.75 l -2,-2 L 15.0147,4.23295 12.3078,3.11974 11.6853,0.75 H 9.731 L 9.0991,3.15113 6.45441,4.26596 4.75,2.75 l -2,2 L 4.20337,6.53885 3.1225,9.1963 0.75,9.75 v 2 L 3.15111,12.4055 4.26575,15.0497 2.75,16.75 l 2,2 1.79116,-1.4597 2.60584,1.072 0.603,2.3877 h 2 l 0.6045,-2.3868 2.6506,-1.0977 C 15.4469,17.5813 16.75,18.75 16.75,18.75 l 2,-2 -1.4841,-1.7506 1.098,-2.6514 2.386,-0.6208 L 20.75,9.75 Z"
     stroke="#000000"
     stroke-width="1.2"
     stroke-linecap="round"
     stroke-linejoin="round"
     id="path4" />
</svg>
