<?xml version="1.0" encoding="UTF-8" standalone="no"?>
<svg
   viewBox="0 0 14.249997 10"
   fill="none"
   version="1.1"
   id="svg8"
   sodipodi:docname="wifi-signal.svg"
   inkscape:version="1.1.2 (0a00cf5339, 2022-02-04)"
   xmlns:inkscape="http://www.inkscape.org/namespaces/inkscape"
   xmlns:sodipodi="http://sodipodi.sourceforge.net/DTD/sodipodi-0.dtd"
   xmlns="http://www.w3.org/2000/svg"
   xmlns:svg="http://www.w3.org/2000/svg">
  <defs
     id="defs12" />
  <sodipodi:namedview
     id="namedview10"
     pagecolor="#ffffff"
     bordercolor="#666666"
     borderopacity="1.0"
     inkscape:pageshadow="2"
     inkscape:pageopacity="0.0"
     inkscape:pagecheckerboard="0"
     showgrid="false"
     inkscape:zoom="60.285714"
     inkscape:cx="7"
     inkscape:cy="4.9845972"
     inkscape:window-width="2560"
     inkscape:window-height="1016"
     inkscape:window-x="0"
     inkscape:window-y="27"
     inkscape:window-maximized="1"
     inkscape:current-layer="svg8" />
  <path
     d="m 7.1327092,6.93958 c 0.6395,0 1.26088,0.16804 1.8084,0.48846 l 0.22179,0.12983 c 0.1682,0.09842 0.1978,0.32878 0.0599,0.46633 l -1.89407,1.8888 c -0.11634,0.116 -0.30497,0.116 -0.42131,0 l -1.88191,-1.8767 c -0.13728,-0.13691 -0.10867,-0.36609 0.05809,-0.46524 l 0.21935,-0.13042 c 0.55254,-0.32854 1.18182,-0.50106 1.82976,-0.50106 z"
     fill="#1f1f1f"
     id="path836" />
  <path
     d="m 7.1326692,3.46985 c 1.59083,0 3.1182298,0.52774 4.3625298,1.50506 l 0.1759,0.13812 c 0.1402,0.11012 0.1525,0.31761 0.0263,0.44346 l -1.1308,1.12763 c -0.1046,0.1043 -0.2701,0.11628 -0.3887,0.02814 l -0.1378,-0.10245 C 9.1996992,5.98523 8.1863292,5.6502 7.1326692,5.6502 c -1.06016,0 -2.07944,0.3392 -2.92262,0.97095 l -0.13798,0.10338 c -0.11861,0.08886 -0.2847,0.07716 -0.3896,-0.02744 L 2.5520992,5.56986 C 2.4261792,5.44429 2.4381292,5.23732 2.5776892,5.127 l 0.17485,-0.13824 c 1.24725,-0.98603 2.78162,-1.51891 4.38013,-1.51891 z"
     fill="#1f1f1f"
     id="path839" />
  <path
     d="m 7.1327192,0 c 2.52468,0 4.9389798,0.89057 6.8500798,2.52294 l 0.1631,0.13934 c 0.1318,0.1126 0.1396,0.3133 0.0168,0.43569 l -1.1271,1.12398 c -0.1092,0.10889 -0.2837,0.11652 -0.402,0.01757 l -0.1396,-0.11669 C 10.989399,2.86472 9.1034992,2.18035 7.1327192,2.18035 c -1.97755,0 -3.86945,0.68908 -5.37631,1.95506 l -0.13961,0.11729 c -0.1183,0.0994 -0.29321,0.09196 -0.4026,-0.01713 L 0.08725922,3.11176 c -0.122567,-0.12222 -0.115024,-0.32258 0.01639,-0.4353 l 0.16249,-0.13938 C 2.1795292,0.89589 4.6005592,0 7.1327192,0 Z"
     fill="#1f1f1f"
     id="path842" />
</svg>
