<?xml version="1.0" encoding="UTF-8" standalone="no"?>
<svg
   viewBox="0 0 601.55328 443.02213"
   version="1.1"
   id="svg101"
   sodipodi:docname="no-data.svg"
   width="601.55328"
   height="443.02213"
   inkscape:version="1.3.2 (1:1.3.2+202311252150+091e20ef0f)"
   xmlns:inkscape="http://www.inkscape.org/namespaces/inkscape"
   xmlns:sodipodi="http://sodipodi.sourceforge.net/DTD/sodipodi-0.dtd"
   xmlns="http://www.w3.org/2000/svg"
   xmlns:svg="http://www.w3.org/2000/svg">
  <defs
     id="defs101" />
  <sodipodi:namedview
     id="namedview101"
     pagecolor="#505050"
     bordercolor="#eeeeee"
     borderopacity="1"
     inkscape:showpageshadow="0"
     inkscape:pageopacity="0"
     inkscape:pagecheckerboard="0"
     inkscape:deskcolor="#d1d1d1"
     inkscape:zoom="2.352"
     inkscape:cx="288.69048"
     inkscape:cy="250"
     inkscape:window-width="3440"
     inkscape:window-height="1376"
     inkscape:window-x="0"
     inkscape:window-y="27"
     inkscape:window-maximized="1"
     inkscape:current-layer="svg101" />
  <g
     id="freepik--background-complete--inject-5"
     transform="translate(-86.33)">
    <rect
       x="151.53999"
       y="143.03"
       width="134.99001"
       height="198.77"
       transform="rotate(-33.78,219.00602,242.3949)"
       style="fill:#f5f5f5"
       id="rect1" />
    <polygon
       points="215.37,279.5 216.64,271.62 272.42,279.66 271.15,287.54 "
       style="fill:#e0e0e0"
       id="polygon1" />
    <polygon
       points="243.46,307.62 235.45,306.46 244.33,251.55 252.33,252.7 "
       style="fill:#e0e0e0"
       id="polygon2" />
    <path
       d="m 193,181.75 c 0.08,0.11 -11.16,7.78 -25.11,17.1 -13.95,9.32 -25.32,16.8 -25.4,16.68 -0.08,-0.12 11.16,-7.78 25.11,-17.11 13.95,-9.33 25.27,-16.79 25.4,-16.67 z"
       style="fill:#e0e0e0"
       id="path2" />
    <path
       d="m 234.22,171.39 c 0.08,0.12 -18.62,12.76 -41.76,28.24 -23.14,15.48 -42,27.93 -42.06,27.82 -0.06,-0.11 18.6,-12.77 41.77,-28.25 23.17,-15.48 41.97,-27.93 42.05,-27.81 z"
       style="fill:#e0e0e0"
       id="path3" />
    <path
       d="m 242.49,183.75 c 0.08,0.12 -18.62,12.77 -41.76,28.25 -23.14,15.48 -42,27.93 -42.06,27.81 -0.06,-0.12 18.62,-12.76 41.77,-28.25 23.15,-15.49 41.97,-27.93 42.05,-27.81 z"
       style="fill:#e0e0e0"
       id="path4" />
    <path
       d="m 250.76,196.12 c 0.08,0.12 -18.62,12.77 -41.76,28.24 -23.14,15.47 -42,27.94 -42,27.82 0,-0.12 18.61,-12.77 41.76,-28.25 23.15,-15.48 41.92,-27.93 42,-27.81 z"
       style="fill:#e0e0e0"
       id="path5" />
    <path
       d="m 259,208.49 c 0.08,0.12 -18.62,12.76 -41.76,28.24 -23.14,15.48 -42,27.93 -42.05,27.81 -0.05,-0.12 18.64,-12.76 41.81,-28.24 23.17,-15.48 42,-27.93 42,-27.81 z"
       style="fill:#e0e0e0"
       id="path6" />
    <rect
       x="537.67999"
       y="250.42999"
       width="113.37"
       height="166.92999"
       transform="rotate(-33.78,594.29901,333.88228)"
       style="fill:#f5f5f5"
       id="rect6" />
    <polygon
       points="591.28,365.05 592.36,358.43 639.2,365.18 638.13,371.8 "
       style="fill:#e0e0e0"
       id="polygon6" />
    <polygon
       points="614.88,388.66 608.15,387.69 615.61,341.57 622.33,342.54 "
       style="fill:#e0e0e0"
       id="polygon7" />
    <path
       d="m 572.46,283 c 0.08,0.12 -9.35,6.57 -21.07,14.4 -11.72,7.83 -21.28,14.09 -21.36,14 -0.08,-0.09 9.36,-6.56 21.07,-14.4 11.71,-7.84 21.28,-14.17 21.36,-14 z"
       style="fill:#e0e0e0"
       id="path7" />
    <path
       d="m 607.11,274.25 c 0.08,0.12 -15.61,10.76 -35,23.75 -19.39,12.99 -35.26,23.45 -35.34,23.33 -0.08,-0.12 15.61,-10.76 35,-23.76 19.39,-13 35.23,-23.44 35.34,-23.32 z"
       style="fill:#e0e0e0"
       id="path8" />
    <path
       d="m 614.06,284.63 c 0.08,0.12 -15.61,10.76 -35,23.76 -19.39,13 -35.26,23.44 -35.34,23.32 -0.08,-0.12 15.56,-10.71 35,-23.71 19.44,-13 35.28,-23.48 35.34,-23.37 z"
       style="fill:#e0e0e0"
       id="path9" />
    <path
       d="m 621,295 c 0.08,0.12 -15.62,10.76 -35,23.76 -19.38,13 -35.26,23.44 -35.34,23.32 -0.08,-0.12 15.61,-10.75 35,-23.76 C 605.05,305.31 620.93,294.9 621,295 Z"
       style="fill:#e0e0e0"
       id="path10" />
    <path
       d="m 628,305.41 c 0.08,0.12 -15.61,10.75 -35,23.75 -19.39,13 -35.26,23.44 -35.34,23.33 -0.08,-0.11 15.61,-10.76 35,-23.76 19.39,-13 35.21,-23.44 35.34,-23.32 z"
       style="fill:#e0e0e0"
       id="path11" />
    <rect
       x="295.79999"
       y="90.690002"
       width="116.6"
       height="171.69"
       transform="rotate(28.14,354.08492,176.52994)"
       style="fill:#f5f5f5"
       id="rect11" />
    <polygon
       points="324.34,188.83 330.87,186.59 347.42,232.37 340.9,234.6 "
       style="fill:#e0e0e0"
       id="polygon11" />
    <polygon
       points="314.34,221.67 311.96,215.1 357.42,199.53 359.8,206.1 "
       style="fill:#e0e0e0"
       id="polygon12" />
    <path
       d="m 389.72,132 c -0.08,0.15 -10.5,-5.27 -23.29,-12.1 -12.79,-6.83 -23.08,-12.5 -23,-12.65 0.08,-0.15 10.51,5.27 23.3,12.1 12.79,6.83 23.07,12.49 22.99,12.65 z"
       style="fill:#e0e0e0"
       id="path12" />
    <path
       d="m 414.4,159.23 c -0.08,0.15 -17.34,-8.93 -38.55,-20.27 -21.21,-11.34 -38.33,-20.66 -38.25,-20.81 0.08,-0.15 17.33,8.92 38.54,20.27 21.21,11.35 38.34,20.66 38.26,20.81 z"
       style="fill:#e0e0e0"
       id="path13" />
    <path
       d="m 408.34,170.56 c -0.08,0.15 -17.34,-8.92 -38.55,-20.27 -21.21,-11.35 -38.33,-20.66 -38.25,-20.81 0.08,-0.15 17.33,8.93 38.54,20.27 21.21,11.34 38.34,20.66 38.26,20.81 z"
       style="fill:#e0e0e0"
       id="path14" />
    <path
       d="m 402.28,181.89 c -0.08,0.15 -17.34,-8.92 -38.55,-20.26 -21.21,-11.34 -38.33,-20.63 -38.25,-20.81 0.08,-0.18 17.33,8.92 38.54,20.26 21.21,11.34 38.34,20.66 38.26,20.81 z"
       style="fill:#e0e0e0"
       id="path15" />
    <path
       d="m 396.22,193.22 c -0.08,0.15 -17.34,-8.92 -38.55,-20.26 -21.21,-11.34 -38.34,-20.66 -38.25,-20.81 0.09,-0.15 17.33,8.92 38.54,20.26 21.21,11.34 38.34,20.66 38.26,20.81 z"
       style="fill:#e0e0e0"
       id="path16" />
    <rect
       x="394.17001"
       width="2.5799999"
       height="43.98"
       style="opacity:0.2"
       id="rect16"
       y="0" />
  </g>
  <g
     id="freepik--Lamp--inject-5"
     transform="translate(-86.33)">
    <path
       d="m 335.23,97.19 h 120.46 c 0,0 -11.12,-53.19 -61.14,-53.19 -44.49,0 -59.32,53.19 -59.32,53.19 z"
       style="fill:#193479"
       id="path17" />
    <rect
       x="394.17001"
       width="2.5799999"
       height="43.98"
       style="fill:#193479"
       id="rect17"
       y="0" />
  </g>
  <g
     id="freepik--Floor--inject-5"
     transform="translate(-86.33)">
    <path
       d="m 663.67,439.83 c 0,0.14 -129.25,0.26 -288.66,0.26 -159.41,0 -288.68,-0.09 -288.68,-0.26 0,-0.17 129.23,-0.26 288.68,-0.26 159.45,0 288.66,0.11 288.66,0.26 z"
       style="fill:#263238"
       id="path18" />
  </g>
  <g
     id="freepik--Plant--inject-5"
     transform="translate(-86.33)">
    <path
       d="m 118.29,377.2 a 12.62,12.62 0 0 1 8.78,4.5 22.15,22.15 0 0 1 4.47,9 c 1.69,6.32 0.65,13.79 -1.15,20.08 -6.84,-2.45 -11.07,-9.75 -13,-13.59 -3,-6.06 -4.79,-18.86 0.87,-20"
       style="fill:#193479"
       id="path19" />
    <path
       d="m 140.24,418.45 a 10.74,10.74 0 0 1 -0.5,-10.78 14.26,14.26 0 0 1 8.6,-6.91 c 1.67,-0.52 3.61,-0.73 5.06,0.24 a 4.58,4.58 0 0 1 1.77,4.31 9.27,9.27 0 0 1 -2,4.42 c -3.33,4.51 -7.37,8.26 -13,8.72"
       style="fill:#193479"
       id="path20" />
    <path
       d="m 141,439.58 a 6.5,6.5 0 0 1 -0.31,-1.31 c -0.18,-0.94 -0.42,-2.15 -0.71,-3.6 a 37.77,37.77 0 0 1 -0.74,-12.11 23,23 0 0 1 4.49,-11.21 15.32,15.32 0 0 1 2.59,-2.63 9.16,9.16 0 0 1 0.82,-0.58 1.15,1.15 0 0 1 0.3,-0.18 25.37,25.37 0 0 0 -3.45,3.59 23.85,23.85 0 0 0 -4.28,11.08 c -0.64,4.66 0.15,8.93 0.61,12 0.24,1.53 0.44,2.77 0.55,3.63 a 8.23,8.23 0 0 1 0.13,1.32 z"
       style="fill:#263238"
       id="path21" />
    <path
       d="m 120.49,386.83 a 2.34,2.34 0 0 1 0.28,0.51 c 0.18,0.4 0.42,0.9 0.7,1.53 0.61,1.33 1.46,3.26 2.49,5.65 2.06,4.79 4.82,11.45 7.7,18.87 2.88,7.42 5.33,14.19 7,19.12 0.86,2.46 1.53,4.46 2,5.85 0.21,0.66 0.37,1.19 0.5,1.6 a 2.61,2.61 0 0 1 0.15,0.57 2.46,2.46 0 0 1 -0.24,-0.54 c -0.15,-0.4 -0.34,-0.92 -0.59,-1.57 l -2.11,-5.8 c -1.79,-4.89 -4.29,-11.65 -7.16,-19.06 -2.87,-7.41 -5.59,-14.09 -7.57,-18.91 -1,-2.37 -1.77,-4.3 -2.34,-5.71 -0.26,-0.64 -0.47,-1.15 -0.63,-1.56 a 3.49,3.49 0 0 1 -0.18,-0.55 z"
       style="fill:#263238"
       id="path22" />
    <path
       d="m 132.87,425.6 a 25.18,25.18 0 0 0 -19.52,-12.13 c -2,-0.14 -4.46,0.2 -5.36,2 -0.9,1.8 0.3,4 1.68,5.46 a 21.49,21.49 0 0 0 23.27,5.2"
       style="fill:#193479"
       id="path23" />
    <path
       d="m 116.43,418.89 a 7.15,7.15 0 0 1 1.27,0.05 12.09,12.09 0 0 1 1.47,0.17 c 0.57,0.11 1.24,0.17 1.94,0.37 a 19.41,19.41 0 0 1 2.31,0.64 22.91,22.91 0 0 1 2.57,1 27.8,27.8 0 0 1 5.42,3.21 27.31,27.31 0 0 1 4.48,4.44 22.49,22.49 0 0 1 1.57,2.25 21.93,21.93 0 0 1 1.18,2.09 17.4,17.4 0 0 1 0.8,1.8 11.34,11.34 0 0 1 0.51,1.4 6.82,6.82 0 0 1 0.33,1.23 c -0.11,0 -0.59,-1.72 -1.94,-4.28 a 22,22 0 0 0 -1.21,-2 25.32,25.32 0 0 0 -1.58,-2.19 26.65,26.65 0 0 0 -9.74,-7.52 c -0.87,-0.38 -1.7,-0.74 -2.51,-1 a 21.87,21.87 0 0 0 -2.27,-0.69 c -2.8,-0.77 -4.61,-0.86 -4.6,-0.97 z"
       style="fill:#263238"
       id="path24" />
  </g>
  <g
     id="freepik--Character--inject-5"
     transform="translate(-86.33)">
    <path
       d="m 570.36,105.48 c -2.94,0.67 -4.37,4.06 -4.65,7.06 -0.28,3 0.1,6.18 -1.16,8.92 -1.42,3.08 -4.81,5.36 -4.92,8.75 -0.07,2.07 1.16,4 1.1,6.09 -0.1,3.4 -3.56,6 -3.75,9.36 -0.13,2.45 1.5,4.79 1.11,7.21 -0.3,1.88 -1.77,3.36 -2.39,5.16 -1.23,3.6 1.24,7.55 4.45,9.57 a 14.59,14.59 0 0 0 21.25,-6.78 c 1.78,-4.32 1.39,-9.19 1,-13.84 q -1.8,-21.76 -2.68,-43.58"
       style="fill:#263238"
       id="path25" />
    <path
       d="m 561.82,156.66 a 3.41,3.41 0 0 0 1.35,-1.59 5.79,5.79 0 0 0 0.34,-2.45 13.47,13.47 0 0 0 -0.73,-3.23 9.31,9.31 0 0 1 -0.52,-4.1 c 0.25,-1.56 1.37,-2.84 2.38,-4.1 a 8.77,8.77 0 0 0 1.35,-2.05 3.31,3.31 0 0 0 0.16,-2.4 c -0.52,-1.63 -2.12,-2.83 -2.85,-4.72 a 5,5 0 0 1 -0.16,-2.92 11.59,11.59 0 0 1 1,-2.61 22.41,22.41 0 0 0 2,-4.71 c 0.7,-3.17 0.37,-6.2 0.85,-8.69 a 9.62,9.62 0 0 1 2.53,-5.32 5.81,5.81 0 0 1 1.32,-1 2.07,2.07 0 0 1 0.53,-0.19 7.69,7.69 0 0 0 -1.71,1.28 9.78,9.78 0 0 0 -2.31,5.25 32.58,32.58 0 0 0 -0.28,4 24.63,24.63 0 0 1 -0.46,4.69 22.46,22.46 0 0 1 -2,4.82 c -0.75,1.57 -1.44,3.41 -0.78,5.13 0.66,1.72 2.25,2.91 2.86,4.75 a 3.88,3.88 0 0 1 -0.19,2.75 9.46,9.46 0 0 1 -1.5,2.25 c -1,1.26 -2.09,2.46 -2.33,3.86 a 9,9 0 0 0 0.46,3.93 13.62,13.62 0 0 1 0.66,3.32 5.61,5.61 0 0 1 -0.45,2.54 3.06,3.06 0 0 1 -1,1.26 1.58,1.58 0 0 1 -0.52,0.25 z"
       style="fill:#455a64"
       id="path26" />
    <path
       d="m 554,180.37 -9,26 -37.64,2 -6.28,14 39.3,4 A 14.85,14.85 0 0 0 560,217.64 l 10.49,-29.28 z"
       style="fill:#b78876"
       id="path27" />
    <path
       d="m 631.81,425.7 c 0,0 -27.58,-87.62 -28.17,-90.46 -0.53,-2.58 10,-65.63 11.34,-82 l -37.27,1.39 V 255 l -15.84,0.88 14.18,179.12 h 17.15 l -1.7,-59.45 c 10.58,28.39 25.74,57.33 25.74,57.33 z"
       style="fill:#b78876"
       id="path28" />
    <path
       d="m 592.2,396.88 c 0,-0.54 -0.21,-19.92 -0.21,-19.92 -0.21,1.16 -6.57,-16.82 -6.42,-17.91 0.08,-0.57 6.63,37.83 6.63,37.83 z"
       style="fill:#a36957"
       id="path29" />
    <path
       d="m 584.85,350.53 a 3.88,3.88 0 0 0 -0.11,1.09 27.15,27.15 0 0 0 0,3 c 0,0.63 0.09,1.31 0.17,2.05 0.08,0.74 0.19,1.52 0.36,2.33 a 41.36,41.36 0 0 0 1.41,5.22 c 1.24,3.63 2.62,6.8 3.59,9.1 0.46,1 0.86,1.95 1.2,2.71 a 4.32,4.32 0 0 0 0.5,1 3.79,3.79 0 0 0 -0.3,-1 c -0.23,-0.66 -0.58,-1.61 -1,-2.78 -0.88,-2.34 -2.2,-5.54 -3.43,-9.13 a 43.34,43.34 0 0 1 -1.43,-5.14 c -0.18,-0.8 -0.3,-1.57 -0.41,-2.29 -0.11,-0.72 -0.19,-1.4 -0.24,-2 -0.12,-1.24 -0.17,-2.24 -0.2,-2.94 a 4.52,4.52 0 0 0 -0.11,-1.22 z"
       style="fill:#a36957"
       id="path30" />
    <path
       d="m 575.73,435.91 v -1.61 l 17.57,-0.77 0.05,6.65 -1.08,0.07 c -4.83,0.28 -24.55,1.1 -27.77,0.13 -3.61,-1.08 11.23,-4.47 11.23,-4.47 z"
       style="fill:#455a64"
       id="path31" />
    <path
       d="m 593.58,439.78 a 2.29,2.29 0 0 1 -0.3,0 l -0.86,0.06 -3.18,0.14 c -2.68,0.11 -6.39,0.21 -10.48,0.23 -4.09,0.02 -7.81,-0.05 -10.5,-0.13 l -3.17,-0.13 h -0.87 -0.3 a 1.85,1.85 0 0 1 0.3,0 h 0.87 l 3.18,0.06 c 2.68,0 6.39,0.08 10.48,0.06 4.09,-0.02 7.81,-0.09 10.49,-0.16 l 3.18,-0.08 h 1.16 z"
       style="fill:#263238"
       id="path32" />
    <path
       d="m 570,440.34 a 7.67,7.67 0 0 0 -0.6,-1.51 7.21,7.21 0 0 0 -1.09,-1.21 2.32,2.32 0 0 1 1.27,1.1 2.39,2.39 0 0 1 0.42,1.62 z"
       style="fill:#263238"
       id="path33" />
    <path
       d="m 575.18,437.71 c 0,0 -0.29,-0.27 -0.55,-0.67 -0.26,-0.4 -0.42,-0.75 -0.37,-0.78 0.05,-0.03 0.29,0.26 0.55,0.66 0.26,0.4 0.42,0.76 0.37,0.79 z"
       style="fill:#263238"
       id="path34" />
    <path
       d="m 576.6,437 c 0,0.05 -0.32,-0.14 -0.62,-0.41 -0.3,-0.27 -0.52,-0.52 -0.48,-0.56 0.04,-0.04 0.32,0.14 0.62,0.41 0.3,0.27 0.52,0.47 0.48,0.56 z"
       style="fill:#263238"
       id="path35" />
    <path
       d="m 577.49,435.3 a 2.11,2.11 0 0 1 -0.92,0.12 2,2 0 0 1 -0.91,-0.09 2.08,2.08 0 0 1 0.91,-0.12 2,2 0 0 1 0.92,0.09 z"
       style="fill:#263238"
       id="path36" />
    <path
       d="m 577.79,434.14 a 1.86,1.86 0 0 1 -1,0.3 1.89,1.89 0 0 1 -1,-0.14 5.77,5.77 0 0 1 1,-0.08 5.19,5.19 0 0 1 1,-0.08 z"
       style="fill:#263238"
       id="path37" />
    <path
       d="m 574.59,436.18 a 3.07,3.07 0 0 1 -1.13,0 6.46,6.46 0 0 1 -1.19,-0.26 3.23,3.23 0 0 1 -0.69,-0.28 0.63,0.63 0 0 1 -0.28,-0.35 0.44,0.44 0 0 1 0.17,-0.45 2.08,2.08 0 0 1 2.92,1.35 0.76,0.76 0 0 1 0,0.3 3.22,3.22 0 0 0 -0.52,-1 2.06,2.06 0 0 0 -1,-0.62 1.78,1.78 0 0 0 -1.34,0.1 c -0.17,0.13 -0.1,0.34 0.09,0.46 a 3.61,3.61 0 0 0 0.64,0.27 8.41,8.41 0 0 0 1.15,0.29 c 0.75,0.16 1.18,0.16 1.18,0.19 z"
       style="fill:#263238"
       id="path38" />
    <path
       d="m 574.3,436.24 a 1.06,1.06 0 0 1 -0.14,-0.78 1.86,1.86 0 0 1 0.31,-0.82 1.14,1.14 0 0 1 0.93,-0.58 0.46,0.46 0 0 1 0.35,0.52 1.19,1.19 0 0 1 -0.19,0.5 4.13,4.13 0 0 1 -0.53,0.69 1.64,1.64 0 0 1 -0.64,0.45 c 0,0 0.22,-0.2 0.53,-0.56 a 3.88,3.88 0 0 0 0.47,-0.67 c 0.15,-0.24 0.26,-0.67 0,-0.72 -0.26,-0.05 -0.56,0.26 -0.73,0.48 a 1.83,1.83 0 0 0 -0.32,0.73 3.52,3.52 0 0 0 -0.04,0.76 z"
       style="fill:#263238"
       id="path39" />
    <path
       d="m 593.21,435 c 0,0 -0.5,0 -1.29,0.05 a 5.54,5.54 0 0 0 -4.57,3.67 c -0.26,0.75 -0.28,1.26 -0.32,1.25 -0.04,-0.01 0,-0.13 0,-0.35 a 4.48,4.48 0 0 1 0.18,-0.95 5.47,5.47 0 0 1 1.76,-2.61 5.39,5.39 0 0 1 2.93,-1.15 4.19,4.19 0 0 1 1,0 1.26,1.26 0 0 1 0.31,0.09 z"
       style="fill:#263238"
       id="path40" />
    <path
       d="m 584.8,438.38 a 9.81,9.81 0 0 1 -2.56,0.25 9.43,9.43 0 0 1 -2.55,-0.22 c 0,-0.06 1.14,0 2.55,0 1.41,0 2.55,-0.09 2.56,-0.03 z"
       style="fill:#263238"
       id="path41" />
    <path
       d="m 588.22,438.35 c 0,0 -0.09,0.24 -0.21,0.5 -0.12,0.26 -0.18,0.5 -0.24,0.49 -0.06,-0.01 -0.09,-0.27 0.05,-0.58 0.14,-0.31 0.36,-0.46 0.4,-0.41 z"
       style="fill:#263238"
       id="path42" />
    <path
       d="m 589.51,436.74 c 0,0 -0.07,0.22 -0.25,0.4 -0.18,0.18 -0.36,0.3 -0.41,0.26 -0.05,-0.04 0.07,-0.22 0.25,-0.41 0.18,-0.19 0.36,-0.3 0.41,-0.25 z"
       style="fill:#263238"
       id="path43" />
    <path
       d="m 591.35,436 c 0,0.06 -0.24,0.06 -0.5,0.15 -0.26,0.09 -0.44,0.23 -0.49,0.19 -0.05,-0.04 0.1,-0.28 0.42,-0.39 0.32,-0.11 0.59,-0.01 0.57,0.05 z"
       style="fill:#263238"
       id="path44" />
    <path
       d="m 592.66,435.64 c 0,0.06 -0.07,0.15 -0.22,0.2 -0.15,0.05 -0.28,0.06 -0.3,0 -0.02,-0.06 0.08,-0.15 0.22,-0.2 0.14,-0.05 0.28,-0.05 0.3,0 z"
       style="fill:#263238"
       id="path45" />
    <path
       d="m 616.89,434.36 -0.66,-1.47 15.71,-7.89 2.77,6 -1,0.51 c -4.29,2.23 -21.94,11.05 -25.28,11.49 -3.69,0.53 8.46,-8.64 8.46,-8.64 z"
       style="fill:#455a64"
       id="path46" />
    <path
       d="m 634.77,430.57 -0.26,0.16 -0.77,0.4 -2.84,1.44 c -2.4,1.19 -5.74,2.8 -9.47,4.5 -3.73,1.7 -7.15,3.15 -9.63,4.18 l -2.95,1.19 -0.8,0.31 a 1.14,1.14 0 0 1 -0.29,0.09 l 0.27,-0.13 0.79,-0.35 2.92,-1.25 c 2.47,-1.06 5.87,-2.54 9.6,-4.24 3.73,-1.7 7.08,-3.28 9.5,-4.44 l 2.86,-1.37 0.79,-0.37 z"
       style="fill:#263238"
       id="path47" />
    <path
       d="m 613.52,440.74 a 7.38,7.38 0 0 0 -1.17,-1.14 6.94,6.94 0 0 0 -1.49,-0.66 2.81,2.81 0 0 1 2.66,1.8 z"
       style="fill:#263238"
       id="path48" />
    <path
       d="m 617.13,436.22 c 0,0 -0.38,-0.12 -0.78,-0.38 -0.4,-0.26 -0.69,-0.51 -0.66,-0.56 0.03,-0.05 0.38,0.12 0.78,0.38 0.4,0.26 0.69,0.51 0.66,0.56 z"
       style="fill:#263238"
       id="path49" />
    <path
       d="m 618.11,435 c 0,0.05 -0.34,0 -0.73,-0.12 -0.39,-0.12 -0.68,-0.27 -0.67,-0.33 a 1.49,1.49 0 0 1 0.74,0.12 c 0.38,0.09 0.68,0.23 0.66,0.33 z"
       style="fill:#263238"
       id="path50" />
    <path
       d="m 618.25,433.08 c 0,0.06 -0.33,0.27 -0.79,0.49 a 2.11,2.11 0 0 1 -0.87,0.29 c 0,-0.06 0.33,-0.27 0.78,-0.49 a 2.18,2.18 0 0 1 0.88,-0.29 z"
       style="fill:#263238"
       id="path51" />
    <path
       d="m 618.05,431.9 c 0,0 -0.29,0.4 -0.81,0.69 a 1.74,1.74 0 0 1 -1,0.3 5.28,5.28 0 0 1 0.91,-0.49 c 0.49,-0.27 0.85,-0.55 0.9,-0.5 z"
       style="fill:#263238"
       id="path52" />
    <path
       d="m 616,435.08 a 3.24,3.24 0 0 1 -1,0.46 7.85,7.85 0 0 1 -1.2,0.25 3,3 0 0 1 -0.74,0 0.59,0.59 0 0 1 -0.4,-0.2 0.44,0.44 0 0 1 0,-0.48 2.06,2.06 0 0 1 2.57,-0.5 2,2 0 0 1 0.64,0.53 c 0.12,0.16 0.17,0.26 0.16,0.27 a 3,3 0 0 0 -0.87,-0.67 2,2 0 0 0 -1.13,-0.17 1.75,1.75 0 0 0 -1.18,0.64 c -0.11,0.19 0,0.35 0.27,0.38 a 4,4 0 0 0 0.69,0 7.9,7.9 0 0 0 1.18,-0.21 c 0.57,-0.16 1.01,-0.33 1.01,-0.3 z"
       style="fill:#263238"
       id="path53" />
    <path
       d="m 615.72,435.25 a 1.11,1.11 0 0 1 -0.44,-0.66 1.88,1.88 0 0 1 -0.06,-0.87 1.13,1.13 0 0 1 0.62,-0.91 c 0.25,-0.08 0.83,0.43 0.87,0.62 0.04,0.19 -0.29,0.09 -0.31,0.25 a 3.48,3.48 0 0 1 -0.2,0.83 1.56,1.56 0 0 1 -0.4,0.68 c 0,0 0.12,-0.27 0.26,-0.72 a 5.12,5.12 0 0 0 0.15,-0.81 c 0,-0.28 0,-0.71 -0.32,-0.64 -0.32,0.07 -0.41,0.46 -0.48,0.74 a 1.73,1.73 0 0 0 0,0.79 4.36,4.36 0 0 0 0.31,0.7 z"
       style="fill:#263238"
       id="path54" />
    <path
       d="m 632.47,426.36 c 0,0 -0.48,0.17 -1.16,0.58 a 5.58,5.58 0 0 0 -2.09,2.22 5.63,5.63 0 0 0 -0.57,3 c 0.06,0.8 0.25,1.26 0.21,1.28 a 1.27,1.27 0 0 1 -0.15,-0.32 5.18,5.18 0 0 1 -0.21,-0.94 5.29,5.29 0 0 1 2.73,-5.36 4.75,4.75 0 0 1 0.89,-0.38 1.23,1.23 0 0 1 0.35,-0.08 z"
       style="fill:#263238"
       id="path55" />
    <path
       d="m 626.18,432.9 a 14.28,14.28 0 0 1 -4.65,2.12 c 0,-0.06 1.05,-0.46 2.33,-1 1.28,-0.54 2.29,-1.17 2.32,-1.12 z"
       style="fill:#263238"
       id="path56" />
    <path
       d="m 629.29,431.47 c 0.05,0 0,0.25 0,0.54 0,0.29 0,0.53 0,0.55 0,0.02 -0.2,-0.22 -0.2,-0.55 0,-0.33 0.15,-0.57 0.2,-0.54 z"
       style="fill:#263238"
       id="path57" />
    <path
       d="m 629.8,429.47 c 0.05,0 0,0.23 -0.06,0.47 -0.06,0.24 -0.21,0.42 -0.26,0.4 -0.05,-0.02 0,-0.23 0.06,-0.47 0.06,-0.24 0.2,-0.42 0.26,-0.4 z"
       style="fill:#263238"
       id="path58" />
    <path
       d="m 631.18,428 c 0,0.06 -0.2,0.15 -0.4,0.34 -0.2,0.19 -0.31,0.39 -0.36,0.37 -0.05,-0.02 0,-0.3 0.22,-0.53 0.22,-0.23 0.53,-0.18 0.54,-0.18 z"
       style="fill:#263238"
       id="path59" />
    <path
       d="m 632.23,427.18 c 0,0 0,0.16 -0.12,0.27 -0.12,0.11 -0.23,0.17 -0.27,0.13 -0.04,-0.04 0,-0.16 0.12,-0.27 0.12,-0.11 0.23,-0.17 0.27,-0.13 z"
       style="fill:#263238"
       id="path60" />
    <path
       d="m 612.56,223.64 -2.92,-35.7 15,0.27 c 0,0 0.69,-5.27 -1.52,-16.81 -1.36,-7.08 -6.07,-11.42 -11.36,-14 v -0.1 l -0.46,-0.12 a 42.83,42.83 0 0 0 -13.76,-3.59 l -18.45,0.21 c 0,0 -14.09,-1.8 -21.86,8.29 -3,3.87 -12.31,30.36 -12.31,30.36 l 22.15,10.66 -2.07,-14.69 c 0,0 0.42,10.65 1.78,14 0.75,1.88 3,7.72 3,7.72 l -0.29,17.62 z"
       style="fill:#193479"
       id="path61" />
    <polygon
       points="625.48,194.42 623.78,174.86 602.39,182.76 599.65,194.42 "
       style="fill:#193479"
       id="polygon61" />
    <path
       d="m 625.48,194.42 a 20.7,20.7 0 0 0 -3.42,-0.34 c -2.12,-0.12 -5,-0.23 -8.28,-0.21 -3.28,0.02 -6.17,0.16 -8.29,0.32 a 19.6,19.6 0 0 0 -3.41,0.42 21.66,21.66 0 0 0 3.44,0 c 2.11,-0.07 5,-0.15 8.26,-0.16 3.26,-0.01 6.15,0 8.27,0.05 a 21.65,21.65 0 0 0 3.43,-0.08 z"
       style="fill:#263238"
       id="path62" />
    <path
       d="m 601.27,174.77 a 15.57,15.57 0 0 0 -0.08,3 c 0,1.83 0.08,4.35 0.19,7.14 0.11,2.79 0.24,5.32 0.36,7.14 a 14.9,14.9 0 0 0 0.32,3 15.64,15.64 0 0 0 0.08,-3 c 0,-1.83 -0.08,-4.36 -0.19,-7.15 -0.11,-2.79 -0.24,-5.31 -0.36,-7.14 a 14.71,14.71 0 0 0 -0.32,-2.99 z"
       style="fill:#263238"
       id="path63" />
    <g
       style="opacity:0.3"
       id="g64">
      <path
         d="m 577.77,184.87 c 0,0 5.74,42.57 21.88,41.44 0,0 7.27,-0.08 9.6,-4.91 v -1.9 z"
         id="path64" />
    </g>
    <g
       style="opacity:0.3"
       id="g65">
      <polygon
         points="600.18,201.81 603.48,194.65 602.08,194.61 601.27,177.28 598.18,198.15 "
         id="polygon64" />
    </g>
    <path
       d="m 569.69,210.16 a 4,4 0 0 1 -0.44,-1 c -0.25,-0.65 -0.58,-1.6 -1,-2.79 a 86.11,86.11 0 0 1 -2.47,-9.45 67,67 0 0 1 -1.22,-9.69 c -0.06,-1.25 -0.08,-2.26 -0.06,-3 a 4,4 0 0 1 0.07,-1.08 c 0.08,0 0.14,1.54 0.35,4 a 89,89 0 0 0 1.37,9.61 c 0.74,3.72 1.63,7.05 2.31,9.44 0.32,1.11 0.59,2.06 0.81,2.84 a 4.89,4.89 0 0 1 0.28,1.12 z"
       style="fill:#263238"
       id="path65" />
    <path
       d="m 576.21,222.39 c -0.14,0 -0.54,-0.87 -0.89,-2 a 4.8,4.8 0 0 1 -0.39,-2.2 5.22,5.22 0 0 1 0.89,2.05 5,5 0 0 1 0.39,2.15 z"
       style="fill:#263238"
       id="path66" />
    <path
       d="m 578.44,222.23 a 9.2,9.2 0 0 1 -0.09,-6.24 20.81,20.81 0 0 1 0,3.12 20.56,20.56 0 0 1 0.09,3.12 z"
       style="fill:#263238"
       id="path67" />
    <path
       d="m 567.52,203.6 c -0.07,0.12 -5.22,-2.32 -11.51,-5.46 -6.29,-3.14 -11.34,-5.8 -11.28,-5.93 0.06,-0.13 5.22,2.32 11.51,5.46 6.29,3.14 11.34,5.8 11.28,5.93 z"
       style="fill:#263238"
       id="path68" />
    <path
       d="m 576.6,157.25 c 0.11,-5.06 0.14,-10.38 0.14,-10.38 0,0 -6.49,-1.25 -7.62,-9.79 -1.08,-8.14 1.94,-27.25 1.94,-27.25 v 0 c 9.48,-3.58 19.33,-0.33 25.82,7.35 v 0 l -1.61,41.07 c -0.19,4.77 -4.44,8.41 -9.54,8.17 v 0 c -5.16,-0.25 -9.24,-4.35 -9.13,-9.17 z"
       style="fill:#b78876"
       id="path69" />
    <path
       d="m 570.56,125.1 a 1.1,1.1 0 0 0 1,1.13 1.05,1.05 0 0 0 1.15,-1 1.09,1.09 0 0 0 -1,-1.12 1,1 0 0 0 -1.15,0.99 z"
       style="fill:#263238"
       id="path70" />
    <path
       d="m 570.16,123.67 c 0.13,0.14 1,-0.45 2.15,-0.41 1.15,0.04 2,0.64 2.14,0.5 0.14,-0.14 -0.06,-0.32 -0.43,-0.61 a 3,3 0 0 0 -1.72,-0.57 2.81,2.81 0 0 0 -1.71,0.5 c -0.37,0.27 -0.5,0.52 -0.43,0.59 z"
       style="fill:#263238"
       id="path71" />
    <path
       d="m 582.47,125.84 a 1.09,1.09 0 0 0 1,1.13 1,1 0 0 0 1.15,-1 1.08,1.08 0 0 0 -1,-1.12 1,1 0 0 0 -1.15,0.99 z"
       style="fill:#263238"
       id="path72" />
    <path
       d="m 582.39,124.41 c 0.13,0.15 1,-0.44 2.15,-0.41 1.15,0.03 2,0.64 2.15,0.5 0.15,-0.14 -0.07,-0.32 -0.44,-0.6 a 2.87,2.87 0 0 0 -1.71,-0.58 2.91,2.91 0 0 0 -1.72,0.5 c -0.36,0.27 -0.49,0.52 -0.43,0.59 z"
       style="fill:#263238"
       id="path73" />
    <path
       d="m 577.91,133 a 7.56,7.56 0 0 0 -1.9,-0.39 c -0.3,0 -0.58,-0.11 -0.62,-0.31 a 1.46,1.46 0 0 1 0.22,-0.89 l 0.94,-2.25 a 39.1,39.1 0 0 0 2.15,-5.92 39.62,39.62 0 0 0 -2.62,5.73 c -0.31,0.79 -0.62,1.55 -0.91,2.27 a 1.75,1.75 0 0 0 -0.18,1.17 0.75,0.75 0 0 0 0.48,0.46 2.05,2.05 0 0 0 0.51,0.08 7.63,7.63 0 0 0 1.93,0.05 z"
       style="fill:#263238"
       id="path74" />
    <path
       d="m 576.74,146.87 a 21.66,21.66 0 0 0 11.46,-2.75 c 0,0 -2.91,5.77 -11.4,4.76 z"
       style="fill:#a36957"
       id="path75" />
    <path
       d="m 586.15,121 c -0.24,0.37 -1.14,0.21 -2.14,0 -1,-0.21 -1.88,-0.38 -2,-0.81 -0.12,-0.43 0.93,-1 2.27,-0.73 1.34,0.27 2.11,1.22 1.87,1.54 z"
       style="fill:#263238"
       id="path76" />
    <path
       d="m 574.48,119.3 c -0.09,0.43 -1.05,0.59 -2.15,0.64 -1.1,0.05 -2.07,0 -2.2,-0.44 -0.13,-0.44 0.8,-1.06 2.13,-1.12 1.33,-0.06 2.31,0.51 2.22,0.92 z"
       style="fill:#263238"
       id="path77" />
    <path
       d="m 577.93,135.81 a 0.58,0.58 0 0 0 -0.65,0.3 0.67,0.67 0 1 0 1.17,0 0.67,0.67 0 0 0 -0.77,-0.33"
       style="fill:#a36957"
       id="path78" />
    <path
       d="m 578.2,135.93 c 0,-0.05 -0.19,-0.34 -0.7,-0.23 a 0.9,0.9 0 0 0 -0.64,0.63 1,1 0 0 0 0.35,1.06 1,1 0 0 0 1.13,0 0.84,0.84 0 0 0 0.36,-0.83 c -0.1,-0.53 -0.49,-0.61 -0.51,-0.54 -0.02,0.07 0.14,0.25 0.11,0.56 a 0.47,0.47 0 0 1 -0.24,0.37 0.51,0.51 0 0 1 -0.51,0 0.53,0.53 0 0 1 -0.18,-0.49 0.49,0.49 0 0 1 0.27,-0.37 c 0.28,-0.17 0.53,-0.09 0.56,-0.16 z"
       style="fill:#263238"
       id="path79" />
    <path
       d="m 593,127.21 c -1,2.34 -3.48,4.15 -3.14,6.68 0.22,1.63 1.27,3.15 1.07,4.79 -0.26,2 -2.39,3.48 -2.7,5.53 -0.37,2.51 2.08,4.46 3.05,6.8 1.43,3.42 -0.39,7.26 -0.44,11 a 11.74,11.74 0 0 0 10.4,11.42 c 2.28,0.19 4.85,-0.5 6,-2.46 1,-1.62 0.78,-3.68 1.36,-5.47 0.88,-2.68 3.43,-4.64 4,-7.4 1,-5 -5.1,-9.2 -4.7,-14.32 0.17,-2.19 1.52,-4.09 2.09,-6.21 a 9.12,9.12 0 0 0 -1.78,-8.09 c -1.51,-1.79 -3.69,-3 -5,-4.92 -1.45,-2.21 -1.5,-5 -2,-7.61 a 19.18,19.18 0 0 0 -30.46,-11.23 c 0,0 -1.45,6.59 5.32,7.7 6.77,1.11 9.9,-0.17 10.66,2.54 a 7.16,7.16 0 0 0 2,6.19 c 2.76,2.98 5.39,2.34 4.27,5.06 z"
       style="fill:#263238"
       id="path80" />
    <path
       d="m 603.75,172.92 a 2.39,2.39 0 0 1 -0.62,-0.06 9.78,9.78 0 0 1 -1.72,-0.47 12.21,12.21 0 0 1 -5.24,-3.87 13.86,13.86 0 0 1 -2.22,-4 15.85,15.85 0 0 1 -0.91,-5.13 21.19,21.19 0 0 1 0.72,-5.71 24.45,24.45 0 0 1 1,-2.89 29.55,29.55 0 0 0 1.09,-2.87 5.34,5.34 0 0 0 0,-2.94 16.3,16.3 0 0 0 -1.13,-2.74 18,18 0 0 1 -1.17,-2.71 5.85,5.85 0 0 1 -0.21,-2.87 c 0.4,-1.88 1.54,-3.28 2.22,-4.71 a 8.91,8.91 0 0 0 0.9,-4.26 10.05,10.05 0 0 0 -2.23,-5.9 17.59,17.59 0 0 0 -1.69,-1.65 6.84,6.84 0 0 1 1.85,1.52 10,10 0 0 1 2.44,6 9.24,9.24 0 0 1 -0.88,4.46 c -0.69,1.48 -1.8,2.89 -2.14,4.61 -0.34,1.72 0.47,3.53 1.36,5.27 a 15.58,15.58 0 0 1 1.18,2.83 5.89,5.89 0 0 1 0,3.2 31.35,31.35 0 0 1 -1.15,2.97 23.52,23.52 0 0 0 -1,2.83 20.61,20.61 0 0 0 -0.73,5.57 14.46,14.46 0 0 0 2.94,8.88 12.28,12.28 0 0 0 5,3.91 c 1.49,0.58 2.35,0.67 2.34,0.73 z"
       style="fill:#455a64"
       id="path81" />
    <path
       d="m 602.75,122.46 a 7.07,7.07 0 0 1 -1.49,0.22 15.51,15.51 0 0 1 -4.12,-0.11 7.85,7.85 0 0 1 -5.2,-3.15 17,17 0 0 1 -1.36,-3.36 5.58,5.58 0 0 0 -2.28,-2.81 c -2.19,-1.39 -4.76,-1.56 -7,-1.83 a 12.21,12.21 0 0 1 -5.83,-1.82 5.77,5.77 0 0 1 -2.39,-3.33 3.35,3.35 0 0 1 -0.07,-1.13 c 0,-0.26 0.06,-0.39 0.08,-0.39 a 7.08,7.08 0 0 0 0.19,1.47 5.72,5.72 0 0 0 2.4,3.08 12.09,12.09 0 0 0 5.67,1.64 c 2.24,0.26 4.9,0.39 7.24,1.87 a 6.08,6.08 0 0 1 2.48,3.07 16.73,16.73 0 0 0 1.29,3.28 7.55,7.55 0 0 0 4.86,3 17.26,17.26 0 0 0 4,0.27 10.11,10.11 0 0 1 1.53,0.03 z"
       style="fill:#455a64"
       id="path82" />
    <path
       d="m 600.27,114.32 a 3.33,3.33 0 0 1 -1.17,0.17 7.13,7.13 0 0 1 -5,-2 9.18,9.18 0 0 1 -1.55,-2.07 c -0.9,-1.52 -1.77,-3.39 -3.64,-4.17 a 12,12 0 0 0 -5.6,-0.49 17.18,17.18 0 0 1 -4.78,0 6,6 0 0 1 -3,-1.32 3.32,3.32 0 0 1 -0.58,-0.66 q -0.18,-0.26 -0.15,-0.27 c 0,0 0.28,0.32 0.86,0.77 a 6.3,6.3 0 0 0 2.89,1.12 18.14,18.14 0 0 0 4.68,-0.08 12,12 0 0 1 5.85,0.5 5.75,5.75 0 0 1 2.39,2 25.76,25.76 0 0 1 1.45,2.42 9.52,9.52 0 0 0 1.45,2 7,7 0 0 0 1.71,1.27 7.42,7.42 0 0 0 3,0.83 c 0.77,-0.01 1.18,-0.07 1.19,-0.02 z"
       style="fill:#455a64"
       id="path83" />
    <path
       d="m 606.73,170.76 c -0.05,0 0.27,-0.66 0.64,-1.9 a 17.2,17.2 0 0 0 0.66,-5.36 16.32,16.32 0 0 0 -2.13,-7.63 c -0.73,-1.31 -1.84,-2.48 -2.75,-3.92 a 7,7 0 0 1 -1,-2.41 5.39,5.39 0 0 1 0.22,-2.7 c 0.56,-1.73 1.56,-3.18 1.78,-4.77 0.22,-1.59 -0.54,-3 -1.3,-4.33 a 21.3,21.3 0 0 1 -1.07,-2 7.32,7.32 0 0 1 -0.57,-2.09 18.12,18.12 0 0 1 0.12,-3.81 10.11,10.11 0 0 0 -0.48,-5.32 4.84,4.84 0 0 0 -1.18,-1.56 c 0,0 0.05,0 0.12,0.06 a 1.22,1.22 0 0 1 0.32,0.23 3.57,3.57 0 0 1 0.93,1.19 9.88,9.88 0 0 1 0.65,5.43 19.17,19.17 0 0 0 -0.05,3.73 9.6,9.6 0 0 0 1.62,3.88 13.3,13.3 0 0 1 1.09,2.13 5,5 0 0 1 0.3,2.52 c -0.24,1.75 -1.27,3.23 -1.79,4.86 a 5,5 0 0 0 -0.21,2.45 6.66,6.66 0 0 0 0.94,2.23 c 0.85,1.39 2,2.58 2.73,3.95 a 16.5,16.5 0 0 1 2.08,7.87 16.18,16.18 0 0 1 -0.84,5.43 10.43,10.43 0 0 1 -0.58,1.38 1.84,1.84 0 0 1 -0.25,0.46 z"
       style="fill:#455a64"
       id="path84" />
    <path
       d="m 566,357.09 c 0,0 -6.74,-63.84 -7.13,-87.43 -0.39,-23.59 10.61,-46.87 10.61,-46.87 L 612.56,221 c 0,0 8.52,23.93 8.67,34 0.3,19.54 -5.19,38.83 -4.56,54.33 l 1.44,47.8"
       style="fill:#263238"
       id="path85" />
    <path
       d="m 619.56,278.6 a 6.88,6.88 0 0 1 -0.71,0.54 l -0.39,0.27 -0.42,0.41 a 6.92,6.92 0 0 0 -1,1.07 c -1.39,1.7 -2.4,4.75 -3.37,8.54 a 28.7,28.7 0 0 1 -2.18,6.08 10.64,10.64 0 0 1 -1,1.51 c -0.18,0.24 -0.35,0.5 -0.56,0.73 l -0.66,0.66 a 10.71,10.71 0 0 1 -3.24,2.08 c -2.41,1.06 -5.14,1.56 -7.62,2.81 a 12,12 0 0 0 -5.53,6.3 c -1.22,2.71 -2,5.55 -3,8.21 -1,2.66 -2.35,5.2 -4.5,6.82 a 12.36,12.36 0 0 1 -7,2.21 c -2.32,0.14 -4.47,0.07 -6.4,0.36 a 10.11,10.11 0 0 0 -4.82,1.82 6.76,6.76 0 0 0 -2.24,3.16 4.8,4.8 0 0 0 -0.17,2.45 c 0.12,0.56 0.27,0.83 0.24,0.84 a 2.52,2.52 0 0 1 -0.34,-0.82 4.59,4.59 0 0 1 0.08,-2.53 6.8,6.8 0 0 1 2.25,-3.33 10.25,10.25 0 0 1 5,-2 c 2,-0.32 4.13,-0.28 6.42,-0.43 a 12,12 0 0 0 6.79,-2.16 14.52,14.52 0 0 0 4.31,-6.62 c 1,-2.63 1.73,-5.48 3,-8.24 a 12.5,12.5 0 0 1 5.78,-6.55 c 2.58,-1.28 5.31,-1.77 7.66,-2.79 a 10.49,10.49 0 0 0 3.12,-2 l 0.63,-0.63 c 0.2,-0.22 0.37,-0.47 0.55,-0.7 a 9.65,9.65 0 0 0 0.93,-1.45 28.68,28.68 0 0 0 2.21,-6 c 1,-3.78 2.09,-6.87 3.56,-8.58 a 6.51,6.51 0 0 1 1,-1.06 c 0.16,-0.14 0.3,-0.28 0.44,-0.39 l 0.41,-0.26 a 6.93,6.93 0 0 1 0.77,-0.33 z"
       style="fill:#fafafa"
       id="path86" />
    <path
       d="m 619.82,249.06 a 4.67,4.67 0 0 1 0.06,0.85 10.48,10.48 0 0 1 -0.3,2.45 15.75,15.75 0 0 1 -4.87,7.52 28.93,28.93 0 0 1 -5,3.69 c -1.93,1.14 -4.06,2.23 -6.25,3.47 a 32.29,32.29 0 0 0 -6.38,4.49 24.64,24.64 0 0 0 -4.84,6.79 62.1,62.1 0 0 1 -4.19,7.39 17.66,17.66 0 0 1 -2.74,3 16.54,16.54 0 0 1 -3.31,2.19 39.9,39.9 0 0 1 -6.69,2.57 c -2.14,0.66 -4.14,1.25 -5.88,2 a 22.51,22.51 0 0 0 -4.48,2.4 13.87,13.87 0 0 0 -2.81,2.59 12.85,12.85 0 0 0 -1.69,2.8 5.28,5.28 0 0 1 0.28,-0.81 10,10 0 0 1 1.25,-2.12 13.47,13.47 0 0 1 2.8,-2.7 22.83,22.83 0 0 1 4.51,-2.5 60,60 0 0 1 5.89,-2.05 41.38,41.38 0 0 0 6.6,-2.58 17.05,17.05 0 0 0 3.15,-2.12 17.74,17.74 0 0 0 2.64,-2.94 64.33,64.33 0 0 0 4.15,-7.34 24.83,24.83 0 0 1 5,-6.92 32.23,32.23 0 0 1 6.5,-4.54 c 2.2,-1.23 4.33,-2.3 6.26,-3.43 a 28.87,28.87 0 0 0 5,-3.58 15.86,15.86 0 0 0 4.92,-7.31 15.29,15.29 0 0 0 0.42,-3.26 z"
       style="fill:#fafafa"
       id="path87" />
    <path
       d="m 559.09,273 a 0.75,0.75 0 0 1 -0.09,-0.2 5.22,5.22 0 0 1 -0.19,-0.59 4.78,4.78 0 0 1 0.1,-2.4 c 0.56,-2 2.77,-4.57 6.33,-5.84 1.78,-0.61 3.79,-1 5.89,-1.52 a 11.09,11.09 0 0 0 8.15,-6.07 32.14,32.14 0 0 0 1.49,-3.59 39.13,39.13 0 0 1 3.17,-7.67 12.22,12.22 0 0 1 6.52,-5.07 59.22,59.22 0 0 1 7.49,-1.9 24.83,24.83 0 0 0 6.51,-2.22 13.7,13.7 0 0 0 4.4,-4 14.88,14.88 0 0 0 2.8,-8.1 23,23 0 0 0 -0.21,-3.2 10.41,10.41 0 0 1 0.41,3.2 14.73,14.73 0 0 1 -2.7,8.31 13.84,13.84 0 0 1 -4.49,4.13 24.93,24.93 0 0 1 -6.61,2.31 59.58,59.58 0 0 0 -7.42,1.91 11.74,11.74 0 0 0 -6.26,4.87 39.19,39.19 0 0 0 -3.13,7.56 31.15,31.15 0 0 1 -1.53,3.65 13.21,13.21 0 0 1 -2.24,3.1 13,13 0 0 1 -6.25,3.15 c -2.12,0.54 -4.12,0.88 -5.87,1.46 -3.47,1.18 -5.67,3.61 -6.26,5.55 a 5.07,5.07 0 0 0 -0.19,2.32 5,5 0 0 1 0.18,0.85 z"
       style="fill:#fafafa"
       id="path88" />
    <path
       d="m 616.12,327 a 3.82,3.82 0 0 1 0.07,0.63 6.64,6.64 0 0 1 -0.19,1.8 10.21,10.21 0 0 1 -3.78,5.4 16.67,16.67 0 0 1 -4,2.36 c -1.53,0.65 -3.22,1.17 -5,1.72 a 41.32,41.32 0 0 0 -5.41,2 15.45,15.45 0 0 0 -4.81,3.59 c -1.46,1.52 -2.72,3.19 -4.12,4.67 a 18.77,18.77 0 0 1 -4.61,3.6 20.31,20.31 0 0 1 -9.51,2.48 18.94,18.94 0 0 1 -6.54,-1.09 12.48,12.48 0 0 1 -1.66,-0.71 2.63,2.63 0 0 1 -0.55,-0.31 4.25,4.25 0 0 1 0.59,0.21 17.72,17.72 0 0 0 1.68,0.62 20,20 0 0 0 6.48,0.91 20.21,20.21 0 0 0 9.28,-2.53 18.68,18.68 0 0 0 4.47,-3.53 c 1.37,-1.46 2.62,-3.12 4.11,-4.68 a 16.06,16.06 0 0 1 5.08,-3.7 41.39,41.39 0 0 1 5.49,-2 c 1.76,-0.54 3.44,-1 5,-1.66 a 16.77,16.77 0 0 0 3.9,-2.25 10.2,10.2 0 0 0 3.81,-5.16 12.69,12.69 0 0 0 0.22,-2.37 z"
       style="fill:#fafafa"
       id="path89" />
    <path
       d="m 611.21,194.46 -8.34,0.2 a 13.49,13.49 0 0 1 -1.88,4.73 c -7,-12.1 -12.37,-28.3 -13.71,-34.81 0.2,-0.65 0.43,-1.37 0.72,-2.17 a 9.24,9.24 0 0 0 -0.11,-3.66 c -0.24,-1.45 -0.64,-3.4 -0.76,-4.3 -0.37,-2.76 -0.82,-3.19 -1.78,-2.88 -1.3,0.43 0.54,7.73 -0.53,7.89 -0.58,0.08 -1.28,-2.42 -1.48,-4.47 -0.2,-2.05 -1.14,-8.37 -1.81,-8.79 -1,-0.62 -1.87,0.36 -1.61,2.4 0.26,2.04 0.57,8.24 -0.51,8.33 -1.08,0.09 -2,-10.39 -2,-10.39 0,0 0.17,-2.28 -1.09,-2.23 -2.26,0.1 -0.49,11.14 -0.3,12.19 0.14,0.72 -1,0.86 -1.14,0.07 -0.14,-0.79 -0.66,-10.47 -3,-10.39 -1.78,0 1.37,9.09 0.37,11.19 -1,2.1 -1.68,-7.12 -3.37,-7 -0.63,0.05 -1.1,0.17 0.06,5.38 a 118.2,118.2 0 0 0 4,12.21 c 2.68,14.45 14.44,60.68 32.87,52.22 10.32,-4.74 14.5,-25.72 14.5,-25.72 z"
       style="fill:#b78876"
       id="path90" />
    <path
       d="m 575.66,157.2 a 0.49,0.49 0 0 0 0.24,0 0.53,0.53 0 0 0 0.37,-0.58 c 0,-0.62 -0.12,-1.52 -0.26,-2.69 a 37.55,37.55 0 0 1 -0.46,-4.26 c 0,-0.84 0,-1.74 0.05,-2.69 a 9.9,9.9 0 0 1 0.15,-1.44 c 0.08,-0.45 0.38,-1 0.73,-0.91 h 0.06 c 0.35,0 0.63,0.26 0.74,0.68 a 3.92,3.92 0 0 1 0.14,1.34 v 0 0 a 78,78 0 0 0 1.07,8.35 c 0.08,0.37 0.16,0.75 0.28,1.13 a 4.3,4.3 0 0 0 0.2,0.57 3.18,3.18 0 0 0 0.17,0.3 0.55,0.55 0 0 0 0.42,0.26 0.74,0.74 0 0 0 0.63,-0.53 2.86,2.86 0 0 0 0.19,-0.61 10.19,10.19 0 0 0 0.16,-1.22 36.44,36.44 0 0 0 -0.07,-5 11.3,11.3 0 0 1 -0.1,-2.51 1.4,1.4 0 0 1 0.49,-0.93 0.53,0.53 0 0 1 0.43,-0.05 0.82,0.82 0 0 1 0.24,0.1 0.32,0.32 0 0 1 0.11,0.15 12.75,12.75 0 0 1 0.69,2.51 c 0.18,0.88 0.33,1.79 0.47,2.7 0.14,0.91 0.27,1.83 0.38,2.76 a 20.36,20.36 0 0 0 0.46,2.85 11,11 0 0 0 0.45,1.41 2.65,2.65 0 0 0 0.42,0.71 0.59,0.59 0 0 0 0.59,0.22 0.62,0.62 0 0 0 0.41,-0.45 5,5 0 0 0 0.11,-1.56 c 0,-0.5 -0.06,-1 -0.11,-1.48 -0.07,-0.84 -0.15,-1.67 -0.18,-2.49 a 9.68,9.68 0 0 1 0,-1.21 2,2 0 0 1 0.13,-0.52 0.49,0.49 0 0 1 0.09,-0.15 v 0 h 0.13 c 0.66,-0.27 0.88,0.65 1.06,1.39 0.18,0.74 0.25,1.58 0.41,2.37 0.26,1.57 0.6,3.14 0.77,4.64 a 5.53,5.53 0 0 1 -0.08,2.16 c -0.24,0.72 -0.48,1.43 -0.71,2.14 v 0.07 0.06 a 115.17,115.17 0 0 0 4.47,14.46 c 1.58,4.27 3.17,8 4.56,11 1.39,3 2.65,5.35 3.51,6.93 l 1,1.79 a 3.36,3.36 0 0 0 0.39,0.6 4,4 0 0 0 -0.31,-0.64 l -1,-1.83 c -0.82,-1.61 -2,-4 -3.36,-7 -1.36,-3 -2.9,-6.73 -4.44,-11 a 119.4,119.4 0 0 1 -4.38,-14.42 v 0.14 c 0.23,-0.7 0.46,-1.41 0.7,-2.12 a 5.72,5.72 0 0 0 0.12,-2.39 c -0.18,-1.57 -0.51,-3.09 -0.77,-4.67 -0.15,-0.78 -0.25,-1.58 -0.41,-2.4 A 4.4,4.4 0 0 0 587,152 a 1.18,1.18 0 0 0 -0.55,-0.56 1.27,1.27 0 0 0 -0.79,0 h -0.16 a 0.65,0.65 0 0 0 -0.23,0.13 0.88,0.88 0 0 0 -0.25,0.35 2.26,2.26 0 0 0 -0.17,0.68 9.46,9.46 0 0 0 0,1.3 c 0,0.84 0.12,1.68 0.19,2.52 0,0.49 0.08,1 0.1,1.45 a 4.86,4.86 0 0 1 -0.07,1.35 c 0,0.1 -0.08,0.08 0,0.13 v 0 c 0,0 0,0 0,0 v 0 c 0,0 0,0 0,0 0,0 0,0 0,0 l -0.06,-0.06 a 2,2 0 0 1 -0.3,-0.54 9.83,9.83 0 0 1 -0.43,-1.33 18.59,18.59 0 0 1 -0.45,-2.77 q -0.16,-1.41 -0.39,-2.79 c -0.14,-0.92 -0.3,-1.82 -0.48,-2.72 a 12.18,12.18 0 0 0 -0.76,-2.67 0.85,0.85 0 0 0 -0.31,-0.35 1.73,1.73 0 0 0 -0.37,-0.16 1.11,1.11 0 0 0 -0.85,0.12 1.87,1.87 0 0 0 -0.74,1.3 4.85,4.85 0 0 0 0,1.37 c 0,0.43 0.1,0.85 0.13,1.27 a 37,37 0 0 1 0.09,4.92 8.54,8.54 0 0 1 -0.15,1.16 2.23,2.23 0 0 1 -0.15,0.52 0.61,0.61 0 0 1 -0.11,0.18 c 0,0.09 -0.07,0 -0.06,0.12 0,-0.1 0,0 0,-0.13 a 2,2 0 0 1 -0.12,-0.21 c -0.07,-0.16 -0.13,-0.34 -0.19,-0.51 -0.11,-0.36 -0.19,-0.73 -0.27,-1.09 a 79.46,79.46 0 0 1 -1.13,-8.28 v 0 a 4.35,4.35 0 0 0 -0.17,-1.49 1.4,1.4 0 0 0 -0.39,-0.66 1,1 0 0 0 -0.74,-0.28 h 0.06 a 0.87,0.87 0 0 0 -0.87,0.41 2.21,2.21 0 0 0 -0.3,0.78 10.09,10.09 0 0 0 -0.14,1.5 c 0,1 0,1.87 0,2.72 a 34.89,34.89 0 0 0 0.55,4.28 c 0.17,1.16 0.3,2.06 0.36,2.67 a 0.47,0.47 0 0 1 -0.29,0.52 c -0.3,0.03 -0.39,0.04 -0.38,0.05 z"
       style="fill:#a36957"
       id="path91" />
    <path
       d="m 510.53,208.23 a 21.41,21.41 0 0 0 -5.79,0.67 c -5.17,1.36 -14.08,6.76 -14.45,13.43 h 6.48 c 0,0 -3.63,7.72 -2.57,7 2.77,-1.86 8.27,-7.45 8.27,-7.45 z"
       style="fill:#b78876"
       id="path92" />
    <path
       d="m 598.86,92 c -0.15,0 -0.73,-5.34 -1.31,-12 -0.58,-6.66 -0.94,-12 -0.8,-12 0.14,0 0.73,5.34 1.31,12 0.58,6.66 0.94,12 0.8,12 z"
       style="fill:#263238"
       id="path93" />
    <path
       d="m 627.27,68.41 c 0.11,0.08 -4.26,6.43 -9.77,14.18 -5.51,7.75 -10.08,14 -10.2,13.88 -0.12,-0.12 4.26,-6.43 9.77,-14.18 5.51,-7.75 10.08,-13.96 10.2,-13.88 z"
       style="fill:#263238"
       id="path94" />
    <path
       d="m 639.07,97.19 c 0,0.14 -5.08,1.31 -11.4,2.61 -6.32,1.3 -11.48,2.24 -11.51,2.1 -0.03,-0.14 5.07,-1.31 11.4,-2.61 6.33,-1.3 11.44,-2.24 11.51,-2.1 z"
       style="fill:#263238"
       id="path95" />
  </g>
  <g
     id="freepik--Folder--inject-5"
     transform="translate(-86.33)">
    <path
       d="m 299,234.54 -35.4,181.8 -4.6,23.8 236,-1.14 c 10.6,-0.05 20,-9.46 23.39,-23.44 l 41.86,-171.63 c 2.59,-10.61 -3.09,-21.65 -11.13,-21.64 l -238.92,0.25 c -5.2,-0.01 -9.86,4.91 -11.2,12 z"
       style="fill:#193479"
       id="path96" />
    <g
       style="opacity:0.5"
       id="g97">
      <path
         d="m 299,234.54 -35.4,181.8 -4.6,23.8 236,-1.14 c 10.6,-0.05 20,-9.46 23.39,-23.44 l 41.86,-171.63 c 2.59,-10.61 -3.09,-21.65 -11.13,-21.64 l -238.92,0.25 c -5.2,-0.01 -9.86,4.91 -11.2,12 z"
         id="path97" />
    </g>
    <path
       d="m 472.39,404 -25,-201.41 c -1,-8.25 -7.59,-14.41 -15.36,-14.38 l -54.8,0.17 a 15,15 0 0 0 -10.83,4.8 l -26,27.67 -152.4,0.82 c -9.31,0.05 -16.47,8.87 -15.24,18.77 l 23.21,186.15 c 1,8.24 7.59,14.39 15.34,14.38 l 265.65,-0.53 c 29.58,0.61 32.41,-8.12 32.41,-8.12 -33.96,7.51 -36.98,-28.27 -36.98,-28.32 z"
       style="fill:#193479"
       id="path98" />
    <g
       style="opacity:0.5"
       id="g99">
      <polygon
         points="279.88,311.26 288.84,301.64 357.84,363.72 348.88,373.34 "
         style="fill:#ffffff"
         id="polygon98" />
      <polygon
         points="292.6,375.47 282.69,366.56 345.13,299.51 355.03,308.42 "
         style="fill:#ffffff"
         id="polygon99" />
    </g>
  </g>
  <g
     id="freepik--speech-bubble--inject-5"
     transform="translate(-86.33)">
    <path
       d="m 510.32,103.78 a 1.85,1.85 0 0 1 -1.13,-1.63 l -0.4,-9.28 a 1.86,1.86 0 0 1 2.29,-1.9 5.82,5.82 0 0 0 4.52,-0.89 5.21,5.21 0 0 0 2.33,-3.42 5.33,5.33 0 0 0 -1.12,-4 6,6 0 0 0 -3.94,-2.37 7,7 0 0 0 -7.1,5 1.87,1.87 0 0 1 -3.6,-1 10.76,10.76 0 0 1 11.13,-7.77 9.66,9.66 0 0 1 6.49,3.83 9.13,9.13 0 0 1 1.83,6.87 9,9 0 0 1 -4,5.92 9.72,9.72 0 0 1 -5.06,1.65 l 0.31,7.16 a 1.87,1.87 0 0 1 -2.6,1.79 z"
       style="fill:#193479"
       id="path99" />
    <path
       d="m 513.06,107.58 a 1.53,1.53 0 1 1 -1.63,-1.42 1.52,1.52 0 0 1 1.63,1.42 z"
       style="fill:#193479"
       id="path100" />
    <path
       d="m 478.19,90.69 a 4.68,4.68 0 0 0 0.09,-0.6 c 0,-0.44 0.11,-1 0.19,-1.79 a 21.67,21.67 0 0 1 0.49,-2.88 c 0.13,-0.56 0.2,-1.18 0.4,-1.81 0.2,-0.63 0.4,-1.31 0.62,-2 a 34.49,34.49 0 0 1 5,-9.53 33.5,33.5 0 0 1 10.51,-9.14 33,33 0 0 1 7.41,-3.06 33.55,33.55 0 0 1 8.55,-1.12 A 33.16,33.16 0 0 1 516,59 c 0.77,0.08 1.53,0.28 2.3,0.41 a 17.12,17.12 0 0 1 2.3,0.56 32,32 0 0 1 8.89,4.03 33.44,33.44 0 0 1 13.22,16.6 32.74,32.74 0 0 1 2,11.41 32.16,32.16 0 0 1 -2.09,11.74 l -0.45,1.14 -0.06,0.15 0.06,0.15 c 2.51,5.77 5,11.44 7.35,16.93 l 0.42,-0.48 -15,-5.75 -0.18,-0.07 -0.15,0.14 a 33.49,33.49 0 0 1 -14.14,8.16 33.31,33.31 0 0 1 -27,-4.19 34.17,34.17 0 0 1 -8.43,-7.85 33.21,33.21 0 0 1 -6.4,-15.34 c -0.12,-1 -0.22,-1.84 -0.31,-2.6 -0.09,-0.76 0,-1.38 -0.05,-1.91 -0.05,-0.53 0,-0.88 0,-1.17 a 0.2,0.2 0 1 0 -0.06,0 c 0,0.29 0,0.68 0,1.17 0,0.49 0,1.17 0,1.93 0,0.76 0.17,1.63 0.27,2.62 a 35.77,35.77 0 0 0 1.71,7.06 36.61,36.61 0 0 0 4.58,8.5 34.47,34.47 0 0 0 8.49,8 33.75,33.75 0 0 0 27.41,4.38 34,34 0 0 0 14.32,-8.24 l -0.33,0.07 15,5.78 0.75,0.29 -0.33,-0.77 c -2.38,-5.49 -4.84,-11.15 -7.34,-16.93 v 0.29 l 0.46,-1.17 a 32.7,32.7 0 0 0 2.14,-12 33.45,33.45 0 0 0 -2,-11.66 34,34 0 0 0 -13.51,-16.91 32.3,32.3 0 0 0 -9.12,-4.1 15.89,15.89 0 0 0 -2.34,-0.55 c -0.78,-0.14 -1.55,-0.34 -2.33,-0.41 a 34.39,34.39 0 0 0 -4.61,-0.26 33.56,33.56 0 0 0 -8.68,1.18 34.19,34.19 0 0 0 -7.51,3.14 33.57,33.57 0 0 0 -10.57,9.35 34.2,34.2 0 0 0 -4.93,9.68 c -0.21,0.72 -0.41,1.41 -0.59,2 a 17.6,17.6 0 0 0 -0.38,1.83 19,19 0 0 0 -0.42,2.9 c -0.06,0.77 -0.1,1.36 -0.13,1.8 a 2.54,2.54 0 0 0 -0.04,0.66 z"
       style="fill:#263238"
       id="path101" />
  </g>
</svg>
