<?xml version="1.0" encoding="UTF-8" standalone="no"?>
<svg
   viewBox="0 0 448.33102 424.20551"
   version="1.1"
   id="svg112"
   sodipodi:docname="ok.svg"
   width="448.33102"
   height="424.20551"
   inkscape:version="1.3.2 (1:1.3.2+202311252150+091e20ef0f)"
   xmlns:inkscape="http://www.inkscape.org/namespaces/inkscape"
   xmlns:sodipodi="http://sodipodi.sourceforge.net/DTD/sodipodi-0.dtd"
   xmlns="http://www.w3.org/2000/svg"
   xmlns:svg="http://www.w3.org/2000/svg">
  <defs
     id="defs112" />
  <sodipodi:namedview
     id="namedview112"
     pagecolor="#505050"
     bordercolor="#eeeeee"
     borderopacity="1"
     inkscape:showpageshadow="0"
     inkscape:pageopacity="0"
     inkscape:pagecheckerboard="0"
     inkscape:deskcolor="#d1d1d1"
     inkscape:zoom="2.352"
     inkscape:cx="224.06463"
     inkscape:cy="211.73469"
     inkscape:window-width="3440"
     inkscape:window-height="1376"
     inkscape:window-x="0"
     inkscape:window-y="27"
     inkscape:window-maximized="1"
     inkscape:current-layer="svg112" />
  <g
     id="freepik--background-complete--inject-7"
     transform="translate(-26.118973,-38.134499)">
    <path
       d="m 189.93,83.21 4.54,1.1 13.22,-11.4 2.19,-9 c 0,0 7.11,1.27 3.42,12.92 -3.69,11.65 -2.07,8.85 -2.07,8.85 0,0 14.87,3.6 15.77,5.2 0.68,1.15 -2.49,16 -4.28,24.08 -0.9,4.06 -4.28,7.21 -8.26,7.26 a 7,7 0 0 1 -1.66,-0.17 c -3.71,-0.9 -21.94,-8.51 -21.94,-8.51 l -7.83,-1.89 z"
       style="fill:#ebebeb"
       id="path1" />
    <polygon
       points="180.6,111.15 187.96,80.76 177.56,77.59 172.84,109.27 "
       style="fill:#ebebeb"
       id="polygon1" />
    <path
       d="m 245.22,56.42 3,-1 3.39,-11.2 -2,-5.9 c 0,0 4.48,-1.84 6.58,6.07 2.1,7.91 2,5.75 2,5.75 0,0 9.72,-3.27 10.82,-2.7 0.79,0.41 4.35,10 6.23,15.17 a 6,6 0 0 1 -2.07,7.07 4.39,4.39 0 0 1 -1,0.5 C 269.74,71 256.7,73.25 256.7,73.25 L 251.55,75 Z"
       style="fill:#e0e0e0"
       id="path2" />
    <polygon
       points="249.98,75.58 243.22,55.75 236.19,57.69 244.91,77.31 "
       style="fill:#e0e0e0"
       id="polygon2" />
    <polygon
       points="332.25,458.18 360.95,411.14 340.45,411.14 324.05,458.18 "
       style="fill:#ebebeb"
       id="polygon3" />
    <polygon
       points="442.73,458.18 414.03,411.14 434.53,411.14 450.93,458.18 "
       style="fill:#ebebeb"
       id="polygon4" />
    <rect
       x="342.5"
       y="281.29001"
       width="131.03999"
       height="131.03999"
       style="fill:#ebebeb"
       id="rect4" />
    <rect
       x="301.45001"
       y="281.29001"
       width="131.03999"
       height="131.03999"
       style="fill:#f5f5f5"
       id="rect5" />
    <path
       d="m 423.48,403.91 h -113 v -113 h 113 z m -112,-1 h 111 v -111 h -111 z"
       style="fill:#e0e0e0"
       id="path5" />
    <path
       d="m 311.6,326.47 c 18.53,0.54 37.15,0 55.69,0.06 18.54,0.06 37.14,0.28 55.69,0 a 0.26,0.26 0 0 0 0,-0.52 c -18.55,-0.31 -37.13,0 -55.69,0 -18.56,0 -37.16,-0.47 -55.69,0.07 a 0.24,0.24 0 0 0 0,0.47 z"
       style="fill:#e0e0e0"
       id="path6" />
    <path
       d="m 370.15,309.75 a 3.19,3.19 0 1 1 -3.19,-3.19 3.19,3.19 0 0 1 3.19,3.19 z"
       style="fill:#ebebeb"
       id="path7" />
    <path
       d="m 324.21,360.93 a 3.19,3.19 0 1 1 -3.19,-3.19 3.19,3.19 0 0 1 3.19,3.19 z"
       style="fill:#ebebeb"
       id="path8" />
    <polygon
       points="432.09,282.26 425.26,260.73 426.9,247.27 440.6,282.3 "
       style="fill:#e0e0e0"
       id="polygon8" />
    <polygon
       points="424.03,283.04 429.5,214.9 380.14,214.9 375.44,282.02 "
       style="fill:#ebebeb"
       id="polygon9" />
    <polygon
       points="417.21,277.87 422.26,219.97 385,220.3 381.08,276.18 "
       style="fill:#fafafa"
       id="polygon10" />
    <polygon
       points="409.93,267.48 413.45,228.2 392.93,228.2 390,267.48 "
       style="fill:#e0e0e0"
       id="polygon11" />
    <rect
       x="47.119999"
       y="48.310001"
       width="85.82"
       height="89.459999"
       style="fill:#e0e0e0"
       id="rect11" />
    <rect
       x="41.310001"
       y="48.310001"
       width="85.82"
       height="89.459999"
       style="fill:#ebebeb"
       id="rect12" />
    <rect
       x="52.849998"
       y="60.34"
       width="62.75"
       height="65.410004"
       style="fill:#fafafa"
       id="rect13" />
    <path
       d="M 52.85,126.18 A 11.84,11.84 0 0 1 51.28,128 c -1,1 -2.42,2.48 -4,4 -1.58,1.52 -3,2.95 -4.09,3.94 a 12.15,12.15 0 0 1 -1.79,1.53 10.94,10.94 0 0 1 1.6,-1.78 c 1,-1.05 2.42,-2.49 4,-4 1.58,-1.51 3,-3 4.1,-3.94 a 12,12 0 0 1 1.75,-1.57 z"
       style="fill:#e0e0e0"
       id="path13" />
    <path
       d="m 115.59,126 a 11.84,11.84 0 0 1 1.78,1.57 c 1,1 2.48,2.42 4,4 1.52,1.58 2.94,3 3.93,4.09 a 10.89,10.89 0 0 1 1.53,1.79 11.47,11.47 0 0 1 -1.77,-1.56 c -1,-1 -2.48,-2.42 -4,-4 -1.52,-1.58 -3,-3 -3.94,-4.09 a 12.81,12.81 0 0 1 -1.53,-1.8 z"
       style="fill:#e0e0e0"
       id="path14" />
    <path
       d="M 115.42,60.51 A 12.45,12.45 0 0 1 117,58.73 c 1,-1 2.42,-2.48 4,-4 1.58,-1.52 3,-2.94 4.09,-3.93 a 13.45,13.45 0 0 1 1.79,-1.54 11.21,11.21 0 0 1 -1.57,1.74 c -1,1.05 -2.42,2.48 -4,4 -1.58,1.52 -3,3 -4.1,3.94 a 10.93,10.93 0 0 1 -1.79,1.57 z"
       style="fill:#e0e0e0"
       id="path15" />
    <path
       d="M 52.68,60.67 A 11.84,11.84 0 0 1 50.9,59.1 c -1,-1 -2.48,-2.41 -4,-4 -1.52,-1.59 -2.94,-3 -3.93,-4.09 a 11.16,11.16 0 0 1 -1.53,-1.8 13.05,13.05 0 0 1 1.77,1.56 c 1,1 2.48,2.43 4,4 1.52,1.57 2.95,3 3.94,4.1 a 11.68,11.68 0 0 1 1.53,1.8 z"
       style="fill:#e0e0e0"
       id="path16" />
    <path
       d="m 115.42,125.75 c 0,0 0,-0.11 0,-0.32 0,-0.21 0,-0.52 0,-0.91 0,-0.81 0,-2 0,-3.53 0,-3.09 0,-7.6 -0.06,-13.32 0,-11.46 -0.06,-27.78 -0.1,-47.33 l 0.2,0.2 H 52.89 v 0 l 0.23,-0.23 c 0,24 0,46.47 0,65.41 l -0.2,-0.21 45.32,0.11 h 12.72 3.36 0.87 0.3 -1.19 -3.33 H 98.3 L 52.85,126 h -0.2 v -0.2 c 0,-18.94 0,-41.4 0,-65.41 V 60.1 h 0.24 62.57 0.21 v 0.21 c 0,19.6 -0.08,36 -0.11,47.46 0,5.7 0,10.19 0,13.28 0,1.51 0,2.68 0,3.48 0,0.39 0,0.68 0,0.89 0,0.21 -0.14,0.33 -0.14,0.33 z"
       style="fill:#e0e0e0"
       id="path17" />
    <path
       d="m 69.41,87.66 c 0,0 -1.35,16.2 16.19,16.2 0,-8.64 -7.13,-15.47 -16.19,-16.2 z"
       style="fill:#ebebeb"
       id="path18" />
    <path
       d="m 101.5,87.67 c 0,0 -16.19,-1.34 -16.19,16.2 8.69,0 15.46,-7.13 16.19,-16.2 z"
       style="fill:#ebebeb"
       id="path19" />
    <path
       d="m 84.83,78.81 c 0,0 -13.23,11.88 0.72,25 C 92,97 91.49,86.2 84.83,78.81 Z"
       style="fill:#e0e0e0"
       id="path20" />
  </g>
  <g
     id="freepik--Floor--inject-7"
     transform="translate(-26.118973,-38.134499)">
    <path
       d="m 474.45,460.16 c 0,0.15 -97.3,0.26 -217.3,0.26 -120,0 -217.31,-0.11 -217.31,-0.26 0,-0.15 97.27,-0.26 217.31,-0.26 120.04,0 217.3,0.1 217.3,0.26 z"
       style="fill:#263238"
       id="path21" />
  </g>
  <g
     id="freepik--Plant--inject-7"
     transform="translate(-26.118973,-38.134499)">
    <path
       d="m 105.5,253 c -14.27,-21.83 -12.19,-53 4.85,-72.73 5.29,-6.13 12.68,-11.45 20.74,-10.76 8.26,0.7 14.91,7.78 17.42,15.68 2.51,7.9 1.64,16.45 0.17,24.6 -2.07,11.42 -5.53,23.1 -13.45,31.58 -7.92,8.48 -19.55,17.2 -29.73,11.63"
       style="fill:#193479"
       id="path22" />
    <path
       d="m 113.39,358 c -5.38,-12.54 -1.48,-28.41 9.09,-37 3.28,-2.68 7.57,-4.75 11.66,-3.67 4.09,1.08 7,5.37 7.55,9.66 0.55,4.29 -0.64,8.63 -2.14,12.69 -2.1,5.7 -4.94,11.4 -9.79,15.05 -4.85,3.65 -11.63,7.09 -16.37,3.3"
       style="fill:#193479"
       id="path23" />
    <path
       d="m 79,350.55 c 3.93,-19.35 -6.27,-40.69 -23.78,-49.8 -5.44,-2.83 -12.13,-4.5 -17.61,-1.76 -5.48,2.74 -8.3,9.65 -7.86,15.91 0.44,6.26 3.46,12 6.78,17.35 4.65,7.46 10.35,14.7 18.3,18.45 7.95,3.75 18.57,6.61 24.17,-0.15"
       style="fill:#193479"
       id="path24" />
    <path
       d="m 81.46,298.24 c 6.83,-22.05 -4.76,-48.77 -24.06,-61.42 -6,-3.92 -13.58,-6.66 -20.27,-4.11 -6.85,2.61 -10.79,10.26 -11,17.59 -0.21,7.33 2.61,14.4 5.85,21 4.54,9.21 10.32,18.31 19.13,23.6 8.81,5.29 23.05,10.57 30.36,3.36"
       style="fill:#193479"
       id="path25" />
    <path
       d="m 95.17,406 a 5.79,5.79 0 0 1 -0.22,-1.07 c -0.12,-0.8 -0.27,-1.82 -0.46,-3.08 -0.09,-0.67 -0.19,-1.42 -0.31,-2.22 -0.12,-0.8 -0.32,-1.69 -0.5,-2.62 -0.36,-1.88 -0.73,-4 -1.35,-6.36 -0.28,-1.17 -0.58,-2.4 -0.89,-3.67 -0.31,-1.27 -0.75,-2.58 -1.15,-3.94 -0.73,-2.73 -1.82,-5.56 -2.84,-8.58 a 166.29,166.29 0 0 0 -8.51,-18.87 166.74,166.74 0 0 0 -11,-17.52 c -2,-2.52 -3.71,-5 -5.58,-7.11 L 59.7,327.8 57.13,325 c -1.61,-1.8 -3.19,-3.3 -4.56,-4.63 L 50.67,318.5 49,317 46.68,315 a 4.1,4.1 0 0 1 -0.77,-0.78 5.8,5.8 0 0 1 0.88,0.63 l 2.43,2 1.78,1.35 2,1.82 c 1.41,1.3 3,2.78 4.67,4.56 l 2.63,2.74 2.7,3.12 c 1.91,2.12 3.7,4.58 5.68,7.1 a 157.5,157.5 0 0 1 11.16,17.59 159.38,159.38 0 0 1 8.49,19 c 1,3 2.07,5.89 2.77,8.66 0.39,1.36 0.76,2.69 1.11,4 0.35,1.31 0.57,2.53 0.84,3.71 0.57,2.36 0.9,4.52 1.21,6.42 0.16,0.94 0.3,1.83 0.43,2.65 0.13,0.82 0.16,1.55 0.23,2.24 0.12,1.26 0.21,2.29 0.29,3.1 A 4.32,4.32 0 0 1 95.17,406 Z"
       style="fill:#263238"
       id="path26" />
    <path
       d="m 94.67,409.94 a 1.23,1.23 0 0 1 0,-0.44 c 0,-0.35 0.06,-0.76 0.09,-1.28 0.12,-1.2 0.27,-2.83 0.46,-4.9 0.1,-1.07 0.22,-2.25 0.35,-3.53 0.13,-1.28 0.13,-2.71 0.21,-4.22 0.11,-3 0.4,-6.47 0.29,-10.29 q 0,-2.86 0,-6 c 0,-2.08 -0.21,-4.24 -0.32,-6.47 -0.15,-4.49 -0.76,-9.24 -1.3,-14.26 A 224.39,224.39 0 0 0 87.69,326.5 222.45,222.45 0 0 0 75.85,296 c -2.28,-4.5 -4.36,-8.82 -6.68,-12.66 -1.13,-1.94 -2.14,-3.85 -3.26,-5.61 -1.12,-1.76 -2.2,-3.43 -3.24,-5 -2,-3.26 -4.11,-6 -5.85,-8.47 -0.89,-1.22 -1.69,-2.39 -2.48,-3.42 l -2.22,-2.84 -3,-3.86 -0.77,-1 c -0.17,-0.23 -0.26,-0.36 -0.24,-0.37 0.02,-0.01 0.11,0.09 0.31,0.31 l 0.85,1 3.18,3.75 2.29,2.73 c 0.81,1 1.63,2.17 2.55,3.38 1.79,2.46 3.95,5.17 6,8.41 1.06,1.6 2.16,3.28 3.3,5 1.14,1.72 2.17,3.67 3.32,5.6 2.36,3.84 4.48,8.17 6.79,12.67 a 217.63,217.63 0 0 1 11.93,30.68 217.68,217.68 0 0 1 6.72,32.21 c 0.51,5 1.1,9.81 1.21,14.31 0.09,2.25 0.27,4.42 0.27,6.51 0,2.09 0,4.09 0,6 0.07,3.82 -0.27,7.28 -0.43,10.31 -0.11,1.52 -0.17,2.93 -0.29,4.23 -0.12,1.3 -0.3,2.46 -0.43,3.53 -0.27,2.06 -0.48,3.69 -0.63,4.88 -0.07,0.51 -0.13,0.93 -0.18,1.27 a 1.36,1.36 0 0 1 -0.2,0.39 z"
       style="fill:#263238"
       id="path27" />
    <path
       d="m 131.81,195.87 c 0,0 -0.05,0.15 -0.18,0.41 -0.13,0.26 -0.37,0.68 -0.62,1.14 l -2.43,4.36 c -0.53,0.94 -1.16,2 -1.76,3.14 l -1.91,3.84 q -1,2.07 -2.2,4.4 c -0.74,1.58 -1.45,3.29 -2.24,5.05 -0.79,1.76 -1.62,3.62 -2.41,5.58 l -2.37,6.14 c -0.41,1.06 -0.82,2.14 -1.24,3.24 l -1.15,3.4 c -0.78,2.29 -1.57,4.66 -2.39,7.08 -3,9.78 -5.89,20.67 -8.31,32.23 -2.42,11.56 -4,22.73 -5.2,32.9 -1,10.18 -1.81,19.38 -2,27.12 -0.2,3.87 -0.24,7.37 -0.25,10.45 -0.01,3.08 -0.06,5.73 0,7.89 0.06,2.16 0.06,3.78 0.07,5 v 1.3 a 1.42,1.42 0 0 1 0,0.45 2.59,2.59 0 0 1 -0.06,-0.44 c 0,-0.35 0,-0.77 -0.09,-1.3 0,-1.21 -0.14,-2.88 -0.24,-5 -0.1,-2.12 -0.17,-4.82 -0.17,-7.9 0,-3.08 0,-6.59 0.11,-10.47 0.13,-7.76 0.83,-17 1.82,-27.2 1.17,-10.19 2.8,-21.37 5.14,-33 2.34,-11.63 5.33,-22.51 8.41,-32.3 l 2.43,-7.1 c 0.4,-1.14 0.79,-2.28 1.17,-3.39 0.38,-1.11 0.86,-2.18 1.28,-3.24 0.84,-2.13 1.64,-4.18 2.42,-6.15 0.78,-1.97 1.69,-3.79 2.48,-5.57 0.79,-1.78 1.54,-3.46 2.3,-5 0.76,-1.54 1.56,-3 2.27,-4.39 l 2,-3.81 c 0.63,-1.16 1.28,-2.18 1.83,-3.11 l 2.59,-4.28 0.7,-1.09 a 1.61,1.61 0 0 1 0.2,-0.38 z"
       style="fill:#263238"
       id="path28" />
    <path
       d="m 127,329.77 a 18.55,18.55 0 0 1 -1.51,2.66 c -1,1.67 -2.48,4.13 -4.16,7.22 -1.68,3.09 -3.53,6.84 -5.4,11.09 a 148.64,148.64 0 0 0 -5.25,14.16 150.36,150.36 0 0 0 -3.68,14.65 c -0.86,4.56 -1.46,8.71 -1.8,12.2 -0.34,3.49 -0.56,6.34 -0.64,8.31 a 18.5,18.5 0 0 1 -0.25,3.05 19.91,19.91 0 0 1 -0.11,-3.06 c 0,-2 0.07,-4.84 0.35,-8.36 a 122.76,122.76 0 0 1 1.6,-12.3 136,136 0 0 1 3.61,-14.77 137.77,137.77 0 0 1 5.35,-14.23 123.43,123.43 0 0 1 5.61,-11.06 c 1.77,-3.06 3.29,-5.48 4.43,-7.1 a 18.86,18.86 0 0 1 1.85,-2.46 z"
       style="fill:#263238"
       id="path29" />
    <polygon
       points="122.24,460.16 74.96,460.16 67.15,396.15 129.82,396.15 "
       style="fill:#455a64"
       id="polygon29" />
    <polygon
       points="122.24,460.16 127.72,453.48 69.44,453.25 74.76,460.16 "
       style="fill:#263238"
       id="polygon30" />
    <path
       d="m 127.38,415 c 0,0.26 -13,0.47 -29,0.47 -16,0 -29,-0.21 -29,-0.47 0,-0.26 13,-0.47 29.05,-0.47 16.05,0 28.95,0.19 28.95,0.47 z"
       style="fill:#fafafa"
       id="path30" />
    <path
       d="m 127.38,419.24 c 0,0.26 -13,0.47 -29,0.47 -16,0 -29,-0.21 -29,-0.47 0,-0.26 13,-0.47 29.05,-0.47 16.05,0 28.95,0.23 28.95,0.47 z"
       style="fill:#fafafa"
       id="path31" />
    <path
       d="m 126.6,423.37 c 0,0.26 -12.55,0.46 -28,0.46 -15.45,0 -28,-0.2 -28,-0.46 0,-0.26 12.55,-0.47 28,-0.47 15.45,0 28,0.21 28,0.47 z"
       style="fill:#fafafa"
       id="path32" />
  </g>
  <g
     id="freepik--speech-bubble--inject-7"
     transform="translate(-26.118973,-38.134499)">
    <path
       d="m 332.49,149.71 8.82,-15.55 a 41.7,41.7 0 1 1 10,11.1 v 0 z"
       style="fill:#fafafa"
       id="path33" />
    <path
       d="m 332.49,149.71 18.79,-4.55 -0.07,0.2 v 0 l -0.6,-0.78 0.78,0.6 a 42.73,42.73 0 0 0 8.53,5.08 41.69,41.69 0 0 0 11.33,3.18 36.9,36.9 0 0 0 6.53,0.31 c 1.12,-0.07 2.27,-0.1 3.42,-0.2 l 3.48,-0.54 a 41.6,41.6 0 0 0 25.69,-16.56 41.1,41.1 0 0 0 6.93,-15.9 41.94,41.94 0 0 0 -0.5,-18.29 40.54,40.54 0 0 0 -8.8,-16.92 l -1.68,-1.84 c -0.55,-0.63 -1.21,-1.14 -1.81,-1.71 a 23.7,23.7 0 0 0 -1.86,-1.62 l -2,-1.48 a 18.46,18.46 0 0 0 -2,-1.35 L 396.56,76.07 394.34,75 a 21.66,21.66 0 0 0 -2.2,-1 42,42 0 0 0 -18.43,-2.84 40.5,40.5 0 0 0 -16.92,5 41.49,41.49 0 0 0 -12.54,10.67 41.93,41.93 0 0 0 -7.06,13.33 44.89,44.89 0 0 0 -1.83,13.41 41,41 0 0 0 2,11.6 42,42 0 0 0 4.09,8.92 v 0.06 0.07 l -8.93,15.48 8.72,-15.61 v 0.13 a 42.43,42.43 0 0 1 -4.18,-9 41.4,41.4 0 0 1 -2,-11.68 45.09,45.09 0 0 1 1.8,-13.54 42.3,42.3 0 0 1 19.75,-24.3 41,41 0 0 1 17.13,-5.06 42.4,42.4 0 0 1 18.65,2.86 18.52,18.52 0 0 1 2.23,1 l 2.21,1.07 2.11,1.28 a 19,19 0 0 1 2.06,1.42 l 2,1.49 a 24.38,24.38 0 0 1 1.88,1.65 24.81,24.81 0 0 1 1.83,1.72 l 1.7,1.87 a 40.93,40.93 0 0 1 8.92,17.12 42.17,42.17 0 0 1 0.49,18.51 41.37,41.37 0 0 1 -7,16.07 42,42 0 0 1 -26,16.7 l -3.52,0.53 c -1.16,0.1 -2.32,0.12 -3.45,0.19 a 37.51,37.51 0 0 1 -6.59,-0.33 42.18,42.18 0 0 1 -11.41,-3.26 42.83,42.83 0 0 1 -8.56,-5.16 l 0.19,-0.18 v 0 l 0.12,0.16 h -0.19 z"
       style="fill:#263238"
       id="path34" />
    <path
       d="m 358.71,111.1 c 0,-4.58 3.57,-8 8.44,-8 4.87,0 8.43,3.37 8.43,8 0,4.63 -3.59,8 -8.43,8 -4.84,0 -8.44,-3.42 -8.44,-8 z m 13.26,0 a 4.83,4.83 0 1 0 -4.82,4.94 4.7,4.7 0 0 0 4.85,-4.94 z"
       style="fill:#263238"
       id="path35" />
    <path
       d="m 383.88,112.76 -2.07,2.15 v 3.9 h -3.54 V 103.4 h 3.54 v 7.2 l 6.83,-7.2 h 4 l -6.38,6.87 6.76,8.54 h -4.16 z"
       style="fill:#263238"
       id="path36" />
  </g>
  <g
     id="freepik--Character--inject-7"
     transform="translate(-26.118973,-38.134499)">
    <path
       d="m 303.78,174.33 c -2.63,6.55 -2.55,20.09 1.82,25.62 2.28,2.89 5.38,5.2 7,8.51 2.12,4.34 1.21,9.74 -1.45,13.77 -2.66,4.03 -6.85,6.85 -11.26,8.83 -4.91,2.22 -10.92,3.44 -15.5,0.6 -3.5,-2.16 -5.35,-6.21 -6.47,-10.17 -3.14,-11.08 -2,-23 1.26,-34.08 3.26,-11.08 8.57,-21.41 13.82,-31.63"
       style="fill:#263238"
       id="path37" />
    <path
       d="m 318.36,266.16 23.44,-14.31 c 0,0 -17.8,-34.29 -20.48,-35.53 -2.68,-1.24 -38.61,-6.53 -38.61,-6.53 -10.93,17.18 -24.61,12.94 -38.4,1.48 -1.23,0.25 -22.93,5.19 -28.6,5.93 -5.67,0.74 -22,26.76 -22,26.76 l 18.52,32.39 1.4,33.56 c 0,0 1,23.87 -2.91,36.19 l 98.28,3.19 a 126,126 0 0 1 -2.26,-15.51 c -0.37,-4.17 -1.5,-8.33 -0.65,-13.69 2.69,-17.02 12.27,-53.93 12.27,-53.93 z"
       style="fill:#193479"
       id="path38" />
    <path
       d="m 205.22,227.34 c 1.48,4.94 14,12.26 18.4,9.52 1.39,-0.87 2.59,-2.17 4.2,-2.48 2,-0.4 3.93,0.88 5.88,1.53 4.58,1.51 10.45,-0.18 13.75,3.33 1.63,1.73 2.66,4.67 5,4.6 a 12.18,12.18 0 0 0 2.46,-0.68 c 2.65,-0.66 5.22,1.37 7.95,1.56 a 12.12,12.12 0 0 0 4.2,-0.71 l 19.6,-5.74 c 1.42,-0.42 3,-1 3.61,-2.34 a 10.56,10.56 0 0 1 -7.16,-0.3 20.7,20.7 0 0 0 -3.81,-1.63 c -3.46,-0.71 -6.61,2 -10.05,2.85 -3.62,0.85 -7.35,-0.5 -10.82,-1.84 l -17.77,-6.83 c -4.9,-1.88 -9.92,-3.84 -13.81,-7.35 -1.24,-1.11 -5.89,1.23 -7.34,0.43 a 46.69,46.69 0 0 1 -4.82,-3.74 c -0.3,-0.22 -3,2.21 -4.19,3.49 -1.19,1.28 -5.28,6.33 -5.28,6.33 z"
       style="fill:#fafafa"
       id="path39" />
    <path
       d="m 213.68,309.91 c 4.36,-1.84 11.84,-4.74 16.49,-5.61 a 31.84,31.84 0 0 1 10.43,-0.52 c 1.73,0.25 3.52,0.72 5.2,0.22 1.68,-0.5 2.81,-1.72 4.29,-2.45 4.25,-2.09 9.33,0.51 14,-0.1 a 4.76,4.76 0 0 0 3.11,-1.45 2.34,2.34 0 0 0 -0.06,-3.16 3.29,3.29 0 0 0 -1.89,-0.6 41.9,41.9 0 0 0 -6.72,0.08 l -3.61,0.23 a 13.78,13.78 0 0 1 -4.49,-0.2 28.76,28.76 0 0 1 -4.09,-1.84 c -4.82,-2.12 -10.35,-1.17 -15.56,-0.44 a 21.48,21.48 0 0 1 -7.83,0.08 9.19,9.19 0 0 0 -2.67,-0.46 c -1.53,0.09 -2.82,1.22 -4.33,1.47 -1.51,0.25 -1.6,-2.64 -3,-3 z"
       style="fill:#fafafa"
       id="path40" />
    <path
       d="m 309.31,264.94 a 5.52,5.52 0 0 1 -1.75,0.75 c -2.83,0.39 -4.57,-4.59 -7.28,-3.68 -1,0.35 -1.73,1.56 -2.84,1.69 -1.11,0.13 -2.13,-1.12 -3.27,-1.63 -2,-0.9 -4.26,0.72 -6.48,0.9 -2.5,0.19 -5.42,-1.37 -7.29,0.31 -0.73,0.65 -1.15,1.74 -2.1,2 -0.95,0.26 -1.76,-0.39 -2.65,-0.66 -2.72,-0.81 -5.21,1.81 -8,2.29 -3.18,0.55 -7,-1.6 -9.39,0.53 -0.86,0.75 -1.38,2 -2.48,2.29 -1.1,0.29 -2.08,-0.34 -3.14,-0.35 -2.44,0 -4.68,3.22 -6.74,1.9 a 2.9,2.9 0 0 0 2.62,2.05 14.09,14.09 0 0 0 3.53,-0.3 c 6.91,-0.85 13.93,3.65 20.63,1.76 1.85,-0.52 3.58,-1.52 5.49,-1.66 3.58,-0.26 6.82,2.52 10.4,2.39 2.79,-0.11 5.38,-2 8.16,-1.66 2.78,0.34 4.92,2.83 7.52,4.06 3.11,1.48 6.75,1.05 10.17,0.59 l 1,-0.23 a 67.86,67.86 0 0 0 3.43,-13.59 10.8,10.8 0 0 0 -9.54,0.25 z"
       style="fill:#fafafa"
       id="path41" />
    <path
       d="m 301.26,324.79 a 7.37,7.37 0 0 0 -3.73,1.51 6.1,6.1 0 0 1 -3.78,1.3 c -2.46,-0.26 -4.66,-3.28 -6.81,-2.06 a 12.88,12.88 0 0 0 -1.51,1.36 c -1.5,1.23 -3.89,0.89 -5.32,2.2 -0.74,0.67 -1.14,1.73 -2.05,2.16 -1.71,0.8 -3.33,-1.18 -5.06,-1.95 -2.7,-1.21 -5.77,0.67 -8.73,0.61 -1.5,0 -3.09,-0.55 -4.45,0.07 a 15.94,15.94 0 0 0 -2,1.42 c -2.26,1.51 -5.3,0.81 -7.83,-0.2 -2.53,-1.01 -5.17,-2.28 -7.84,-1.75 -0.74,0.15 -1.58,0.61 -1.56,1.37 a 1.55,1.55 0 0 0 0.3,0.81 c 1.58,2.6 4.6,3.94 7.53,4.79 3.21,0.93 6.6,1.47 9.46,3.21 1.81,1.09 3.71,2.72 5.75,2.16 1.62,-0.44 2.61,-2.12 4.17,-2.72 2.2,-0.85 4.81,0.69 7,-0.22 0.73,-0.3 1.34,-0.86 2.08,-1.13 1.93,-0.7 4.08,0.71 6.08,0.26 a 9.11,9.11 0 0 1 2.12,-0.56 c 1.91,0 3.15,2.63 5,2.38 1.16,-0.16 1.95,-1.39 3.11,-1.6 1.53,-0.29 3.26,1.26 4.5,0.32 0.28,-0.21 0.5,-0.55 0.86,-0.58 0.36,-0.03 0.79,0.49 1.08,0.89 1.35,1.78 5.47,0.63 7.55,-0.18 l -1.35,-12 c 0.07,-1.52 -3.2,-1.87 -4.57,-1.87 z"
       style="fill:#fafafa"
       id="path42" />
    <g
       style="opacity:0.3"
       id="g43">
      <path
         d="m 217,227.76 c -1.86,5.88 -2.59,12.32 -0.74,18.2 a 70.76,70.76 0 0 0 3.43,7.84 57.68,57.68 0 0 1 5,28.46 1.53,1.53 0 0 0 0.12,1 c 0.39,0.65 1.38,0.41 2.07,0.1 l 4.43,-2 c 1.92,1.56 2.21,4.65 4.33,5.91 2.12,1.26 5.07,-0.15 7.19,-1.69 4.65,-3.41 9.06,-7.37 11.76,-12.47 a 48.59,48.59 0 0 0 3.77,-11.22 c 0.83,-3.39 1.67,-6.78 2.19,-10.23 a 57.52,57.52 0 0 0 -8.36,-39.3"
         id="path43" />
    </g>
    <path
       d="m 310.91,233 a 1.89,1.89 0 0 1 0.21,0.52 c 0.14,0.41 0.32,0.91 0.53,1.53 0.45,1.4 1.07,3.32 1.83,5.65 0.76,2.33 1.66,5.26 2.66,8.4 a 66,66 0 0 1 2.52,10.52 32.47,32.47 0 0 1 -0.53,10.8 57.13,57.13 0 0 1 -2.52,8.47 c -0.88,2.35 -1.68,4.22 -2.24,5.51 q -0.4,0.88 -0.66,1.47 a 2.16,2.16 0 0 1 -0.27,0.5 2,2 0 0 1 0.17,-0.54 l 0.57,-1.51 c 0.51,-1.31 1.25,-3.2 2.09,-5.55 a 62.32,62.32 0 0 0 2.39,-8.44 33,33 0 0 0 0.48,-10.65 67.8,67.8 0 0 0 -2.46,-10.44 c -1,-3.16 -1.82,-6 -2.55,-8.43 -0.73,-2.43 -1.26,-4.28 -1.67,-5.7 l -0.44,-1.56 A 2,2 0 0 1 310.91,233 Z"
       style="fill:#263238"
       id="path44" />
    <g
       style="opacity:0.3"
       id="g45">
      <path
         d="m 319.56,262.6 a 23.6,23.6 0 0 0 -0.49,-14.71 56.38,56.38 0 0 0 -6.95,-13.21 c 1.38,9.46 5.71,18.36 6.57,27.89"
         id="path45" />
    </g>
    <g
       style="opacity:0.3"
       id="g46">
      <path
         d="m 239.72,323.19 a 39.36,39.36 0 0 1 16.41,-12.78 77.45,77.45 0 0 1 20.3,-5.33 c 2.75,-0.4 5.74,-0.68 8.15,0.71 2.41,1.39 3.55,5.16 1.45,7 a 6.56,6.56 0 0 1 -3.95,1.18 c -9.62,0.7 -19.78,0.73 -28.1,5.63 -3.29,1.93 -6.21,4.59 -9.84,5.76 -1.65,0.53 -4.09,0.23 -4.26,-1.49"
         id="path46" />
    </g>
    <path
       d="m 288.76,303.79 a 2.65,2.65 0 0 1 -0.58,0 h -1.66 -1.21 l -1.42,0.09 c -1,0.08 -2.19,0.12 -3.47,0.31 l -2,0.25 c -0.7,0.1 -1.41,0.25 -2.16,0.38 -1.5,0.24 -3.07,0.65 -4.73,1 a 79.4,79.4 0 0 0 -10.47,3.63 88.82,88.82 0 0 0 -9.87,5.07 c -1.46,0.89 -2.85,1.73 -4.09,2.6 -1.24,0.87 -2.42,1.65 -3.47,2.41 -1.05,0.76 -2,1.48 -2.78,2.1 -0.78,0.62 -1.51,1.18 -2.06,1.64 l -1.3,1 a 2.36,2.36 0 0 1 -0.48,0.33 3,3 0 0 1 0.41,-0.41 l 1.23,-1.12 c 0.54,-0.49 1.21,-1.07 2,-1.71 0.79,-0.64 1.69,-1.41 2.74,-2.17 1.05,-0.76 2.17,-1.64 3.44,-2.48 1.27,-0.84 2.64,-1.74 4.09,-2.65 a 84.6,84.6 0 0 1 9.91,-5.14 74.3,74.3 0 0 1 10.56,-3.61 c 1.68,-0.38 3.26,-0.79 4.77,-1 0.76,-0.12 1.48,-0.27 2.18,-0.36 l 2,-0.21 c 1.29,-0.17 2.46,-0.19 3.49,-0.24 0.52,0 1,-0.05 1.44,-0.05 h 1.21 l 1.67,0.06 a 2,2 0 0 1 0.61,0.28 z"
       style="fill:#263238"
       id="path47" />
    <g
       style="opacity:0.3"
       id="g48">
      <path
         d="m 207.65,250.53 c -2.55,3.53 -2.84,8.29 -1.79,12.51 1.05,4.22 3.28,8 5.5,11.78 a 35.94,35.94 0 0 0 -0.86,-11.18 c -1.05,-4.38 -2.93,-8.64 -2.92,-13.15"
         id="path48" />
    </g>
    <path
       d="m 278.88,115.32 c 0.06,-3.19 3.7,-5.45 6.85,-4.91 3.15,0.54 5.61,3.09 7.08,5.92 1.47,2.83 2.18,6 3.29,9 3,8 8.89,14.89 11,23.21 a 35.11,35.11 0 0 1 -0.54,17.88 79.87,79.87 0 0 1 -7.03,16.58 60.2,60.2 0 0 0 -4.65,9.89 17.31,17.31 0 0 0 -0.33,10.76 2,2 0 0 1 0.14,1.44 c -0.31,0.68 -1.28,0.71 -2,0.52 -3.67,-0.94 -6.21,-4.55 -6.84,-8.29 -0.63,-3.74 0.33,-7.56 1.67,-11.11 1.34,-3.55 3.06,-7 4.05,-10.61 2.16,-8 0.66,-16.48 0.28,-24.77 -0.21,-4.67 -0.06,-9.39 -1,-14 -0.94,-4.61 -3.11,-9.14 -7,-11.75 -1.51,-1 -3.25,-1.74 -4.52,-3 -1.27,-1.26 -1.91,-3.51 -0.76,-4.93"
       style="fill:#263238"
       id="path49" />
    <path
       d="m 282.17,208.07 c 0,0 -0.11,-4.84 -0.11,-4.79 0,0.05 14.33,-2.73 16.86,-21.56 1.26,-9.36 0.43,-24.65 -0.65,-37.13 -1,-11.24 -8.76,-24.88 -19.95,-23.43 l -34.81,9.68 c -3.39,0.44 -4.51,3.35 -4.36,6.78 l -0.25,1.61 2.9,53.69 1,9 c 0.51,10.21 9.38,21 20.32,21.28 v 0 c 10.56,0.52 19.19,-3.83 19.05,-15.13 z"
       style="fill:#ffbe9d"
       id="path50" />
    <path
       d="m 291.87,156.7 a 2.41,2.41 0 0 1 -2.27,2.48 2.3,2.3 0 0 1 -2.53,-2.11 2.41,2.41 0 0 1 2.26,-2.48 2.31,2.31 0 0 1 2.54,2.11 z"
       style="fill:#263238"
       id="path51" />
    <path
       d="m 295,153.14 c -0.29,0.32 -2.14,-1 -4.73,-0.92 -2.59,0.08 -4.46,1.41 -4.74,1.1 -0.15,-0.14 0.14,-0.71 1,-1.34 a 6.65,6.65 0 0 1 3.79,-1.26 6.3,6.3 0 0 1 3.77,1.12 c 0.81,0.59 1.1,1.16 0.91,1.3 z"
       style="fill:#263238"
       id="path52" />
    <path
       d="m 269.85,158 c -0.29,0.32 -2.15,-1 -4.74,-0.91 -2.59,0.09 -4.45,1.4 -4.74,1.09 -0.14,-0.13 0.15,-0.71 1,-1.33 a 6.67,6.67 0 0 1 3.79,-1.27 6.36,6.36 0 0 1 3.78,1.13 c 0.77,0.57 1.06,1.13 0.91,1.29 z"
       style="fill:#263238"
       id="path53" />
    <path
       d="m 279.55,172.69 c 0,-0.15 1.59,-0.47 4.19,-0.86 0.66,-0.09 1.28,-0.23 1.38,-0.69 a 3.34,3.34 0 0 0 -0.49,-1.95 l -2.07,-5 c -2.88,-7.11 -5,-13 -4.7,-13.07 0.3,-0.07 2.86,5.55 5.74,12.66 q 1,2.63 2,5 a 3.81,3.81 0 0 1 0.41,2.58 1.7,1.7 0 0 1 -1.07,1 4.54,4.54 0 0 1 -1.12,0.18 c -2.63,0.24 -4.26,0.29 -4.27,0.15 z"
       style="fill:#263238"
       id="path54" />
    <path
       d="m 282.06,203.28 a 47.74,47.74 0 0 1 -25.28,-6.11 c 0,0 6.65,13.1 25.39,10.9 z"
       style="fill:#eb996e"
       id="path55" />
    <path
       d="m 269.75,151.43 c -0.29,0.69 -2.85,0.2 -5.91,0.37 -3.06,0.17 -5.56,0.86 -5.92,0.2 -0.16,-0.31 0.3,-0.95 1.34,-1.57 a 9.93,9.93 0 0 1 4.45,-1.25 9.75,9.75 0 0 1 4.56,0.82 c 1.09,0.52 1.61,1.1 1.48,1.43 z"
       style="fill:#263238"
       id="path56" />
    <path
       d="m 294.65,145.15 c -0.52,0.6 -2.65,0 -5.18,0.08 -2.53,0.08 -4.68,0.5 -5.19,-0.1 -0.22,-0.3 0.1,-0.89 1,-1.47 a 8.61,8.61 0 0 1 8.35,0 c 0.94,0.6 1.25,1.2 1.02,1.49 z"
       style="fill:#263238"
       id="path57" />
    <path
       d="m 277.62,178.12 a 4.29,4.29 0 0 0 -3.23,-1.62 5.09,5.09 0 0 0 -3.71,1.78 l -0.07,0.06 -0.13,0.14 v 0 a 2.41,2.41 0 0 0 -0.64,1.4 3.6,3.6 0 0 0 1.54,3 4.55,4.55 0 0 0 5.23,0.2 3.71,3.71 0 0 0 1.01,-4.96 z"
       style="fill:#eb996e"
       id="path58" />
    <path
       d="m 270.9,175.61 c 0.15,0 0.27,0.6 0.68,1.45 a 6.4,6.4 0 0 0 2.38,2.65 6.3,6.3 0 0 0 3.46,0.83 c 0.94,0 1.53,-0.22 1.6,-0.08 0.07,0.14 -0.47,0.54 -1.51,0.78 a 5.7,5.7 0 0 1 -4.06,-0.68 5.63,5.63 0 0 1 -2.52,-3.25 c -0.29,-1.03 -0.15,-1.7 -0.03,-1.7 z"
       style="fill:#263238"
       id="path59" />
    <path
       d="m 282.6,121.47 a 5.83,5.83 0 0 0 2,5.06 28.6,28.6 0 0 0 4.71,3.18 c 5,3.12 7.47,9.94 9.81,15.35 4.12,-7.85 -2.21,-18 -7.45,-24.15 a 11.35,11.35 0 0 0 -3.26,-2.84 4.79,4.79 0 0 0 -4.2,-0.25"
       style="fill:#263238"
       id="path60" />
    <path
       d="m 299.17,184.08 a 4.57,4.57 0 0 1 0.22,-0.7 l 0.72,-1.94 c 0.57,-1.71 1.41,-4.18 2.16,-7.31 a 70,70 0 0 0 1.37,-25 56,56 0 0 0 -3.24,-13.39 23.55,23.55 0 0 0 -6.25,-9.21 16.94,16.94 0 0 0 -6.59,-3.62 c -1.73,-0.45 -2.74,-0.45 -2.74,-0.51 a 3.37,3.37 0 0 1 0.73,0 13.3,13.3 0 0 1 2.06,0.32 16.41,16.41 0 0 1 6.78,3.53 23.75,23.75 0 0 1 6.46,9.31 54.78,54.78 0 0 1 3.31,13.51 68,68 0 0 1 -1.53,25.1 69.62,69.62 0 0 1 -2.33,7.3 c -0.34,0.83 -0.62,1.48 -0.81,1.91 a 3.55,3.55 0 0 1 -0.32,0.7 z"
       style="fill:#455a64"
       id="path61" />
    <path
       d="m 300.86,197.58 a 0.73,0.73 0 0 1 -0.09,-0.22 l -0.22,-0.67 a 12.94,12.94 0 0 1 -0.43,-2.64 19.59,19.59 0 0 1 2.25,-9.54 c 1.77,-3.81 5,-7.63 8.1,-12.12 a 31,31 0 0 0 3.92,-7.55 23.17,23.17 0 0 0 1.06,-9 22.88,22.88 0 0 0 -2.47,-8.74 34.11,34.11 0 0 0 -5,-6.92 c -3.66,-4 -7.34,-7.42 -9.75,-10.85 a 22.82,22.82 0 0 1 -4.16,-8.88 11.86,11.86 0 0 1 -0.23,-3.6 22.65,22.65 0 0 0 0.43,3.56 23.18,23.18 0 0 0 4.26,8.71 c 2.42,3.36 6.09,6.68 9.81,10.74 a 34.22,34.22 0 0 1 5.07,7 23.46,23.46 0 0 1 2.53,8.93 23.79,23.79 0 0 1 -1.09,9.22 31.24,31.24 0 0 1 -4,7.66 c -3.15,4.51 -6.38,8.28 -8.17,12 a 19.6,19.6 0 0 0 -2.37,9.36 17.31,17.31 0 0 0 0.55,3.55 z"
       style="fill:#263238"
       id="path62" />
    <path
       d="m 279.58,111.63 c -3.21,-2.27 -7.35,-2.79 -11.28,-2.73 -10.6,0.15 -21.36,4.2 -28.45,12.08 -6,6.64 -14.81,19.42 -16.48,28.18 -4.07,21.35 9.42,27.33 -1.57,60.66 -2,6 -4.48,11.88 -5.7,18.08 a 32.08,32.08 0 0 0 -0.61,6.72 c -1.29,3.9 -0.5,8.4 1.09,12.28 1.87,4.56 4.72,8.66 6.51,13.25 1.79,4.59 5.73,12.12 3.1,16.29 3.71,-1 3.84,-4.87 6.78,-7.34 a 19.33,19.33 0 0 1 -0.08,10.1 21.1,21.1 0 0 0 12.46,-5.2 c 6.86,-6 9,-15.75 10.07,-24.83 2.3,-19.85 0.05,-38.89 -5.21,-58.17 l -0.07,0.09 c -3.83,-12.33 -11.08,-23.71 -4.57,-26.43 11.34,-4.73 1,-9.71 5.3,-21.63 1.35,-3.72 2.85,-7.66 6,-10 3.78,-2.82 8.89,-2.67 13.6,-2.93 4.71,-0.26 10.05,-1.5 12.26,-5.66 l 0.29,-2.49 c 1.69,-3.57 -0.23,-8.04 -3.44,-10.32 z"
       style="fill:#263238"
       id="path63" />
    <path
       d="m 228.44,190.56 a 4.45,4.45 0 0 0 0.83,-0.84 5.07,5.07 0 0 0 0.63,-3.27 c -0.32,-2.95 -1.81,-7 -3.76,-12 a 47.06,47.06 0 0 1 -2.53,-8.38 18.13,18.13 0 0 1 7.52,-18.7 c 3.2,-2.3 7.55,-2.65 10.22,-5.77 2.67,-3.12 4,-6.86 5.16,-10.48 a 48.2,48.2 0 0 1 2,-5.32 27.69,27.69 0 0 1 2.8,-4.69 27.34,27.34 0 0 1 7.36,-6.83 17,17 0 0 1 4.14,-2 12.09,12.09 0 0 1 4.2,-0.5 22.43,22.43 0 0 1 7,1.74 c 2,0.81 3.64,1.52 5,2.24 a 7.69,7.69 0 0 1 2.63,2.22 3.55,3.55 0 0 1 0.53,1.08 10.4,10.4 0 0 0 -0.62,-1 7.77,7.77 0 0 0 -2.64,-2.1 c -1.32,-0.68 -3,-1.37 -5,-2.15 a 22.33,22.33 0 0 0 -6.91,-1.61 11.53,11.53 0 0 0 -4.07,0.51 17.32,17.32 0 0 0 -4,1.94 27,27 0 0 0 -9.93,11.35 48.26,48.26 0 0 0 -2,5.27 c -1.18,3.61 -2.41,7.58 -5.26,10.67 a 13.24,13.24 0 0 1 -5.1,3.33 25.37,25.37 0 0 0 -5.21,2.52 18,18 0 0 0 -6.64,8.45 18.21,18.21 0 0 0 -0.79,9.76 47.59,47.59 0 0 0 2.46,8.33 c 1.9,5 3.35,9.09 3.61,12.11 a 5,5 0 0 1 -0.75,3.34 3,3 0 0 1 -0.64,0.63 z"
       style="fill:#455a64"
       id="path64" />
    <path
       d="m 245,166.31 c -0.29,-4 -4.69,-6.56 -8.11,-4.49 -1.88,1.14 -3.28,3.38 -3,7.62 0.71,11.29 11.9,8.25 11.9,7.92 0,-0.33 -0.5,-6.36 -0.79,-11.05 z"
       style="fill:#ffbe9d"
       id="path65" />
    <path
       d="m 242,173.3 c 0,0 -0.19,0.15 -0.51,0.32 a 2,2 0 0 1 -1.47,0.13 c -1.22,-0.37 -2.34,-2.2 -2.52,-4.23 a 6.46,6.46 0 0 1 0.37,-2.85 2.25,2.25 0 0 1 1.39,-1.6 1,1 0 0 1 1.19,0.46 c 0.17,0.31 0.11,0.54 0.18,0.56 0.07,0.02 0.23,-0.21 0.11,-0.67 a 1.26,1.26 0 0 0 -0.49,-0.68 1.52,1.52 0 0 0 -1.11,-0.22 2.77,2.77 0 0 0 -1.94,1.88 6.65,6.65 0 0 0 -0.49,3.19 c 0.22,2.27 1.52,4.33 3.18,4.7 a 2.14,2.14 0 0 0 1.78,-0.41 c 0.33,-0.3 0.38,-0.56 0.33,-0.58 z"
       style="fill:#eb996e"
       id="path66" />
    <path
       d="m 246.32,181 c 0,0 0.08,0.22 0,0.62 a 2.52,2.52 0 0 1 -1,1.39 2.83,2.83 0 0 1 -2.53,0.29 3.76,3.76 0 0 1 -2.23,-2.19 5.29,5.29 0 0 1 1,-5.36 2.9,2.9 0 0 1 2,-1.12 6,6 0 0 0 -1.72,1.36 5.22,5.22 0 0 0 -1,2.12 4.94,4.94 0 0 0 0.21,2.8 3.31,3.31 0 0 0 1.9,1.94 2.48,2.48 0 0 0 2.17,-0.15 2.59,2.59 0 0 0 1,-1.14 c 0.13,-0.34 0.15,-0.56 0.2,-0.56 z"
       style="fill:#ffffff"
       id="path67" />
    <path
       d="m 280.4,123.19 a 15.9,15.9 0 0 0 -2.39,-2 13,13 0 0 0 -8.18,-1.72 15.21,15.21 0 0 0 -5.59,1.68 21.27,21.27 0 0 0 -5.31,4.12 36.61,36.61 0 0 0 -4.51,6 c -1.37,2.21 -2.62,4.61 -3.91,7.07 a 81,81 0 0 1 -4,7.05 34.15,34.15 0 0 1 -4.8,5.86 c -1.72,1.69 -3.44,3.2 -4.91,4.74 a 21.49,21.49 0 0 0 -3.58,4.65 12.05,12.05 0 0 0 -1.44,8.21 9.57,9.57 0 0 0 1.24,2.86 5.88,5.88 0 0 1 -0.5,-0.65 7.51,7.51 0 0 1 -0.93,-2.16 12,12 0 0 1 1.3,-8.43 21.49,21.49 0 0 1 3.6,-4.78 c 1.47,-1.57 3.18,-3.09 4.88,-4.78 a 34.57,34.57 0 0 0 4.72,-5.8 c 1.43,-2.18 2.71,-4.56 4,-7 1.29,-2.44 2.54,-4.87 3.94,-7.1 a 35.83,35.83 0 0 1 4.59,-6 21.33,21.33 0 0 1 5.46,-4.17 15.71,15.71 0 0 1 5.75,-1.67 13,13 0 0 1 8.33,1.92 9.65,9.65 0 0 1 1.77,1.55 5.25,5.25 0 0 1 0.47,0.55 z"
       style="fill:#455a64"
       id="path68" />
    <path
       d="m 195.31,245.43 2.1,-10.14 -19.32,-8.81 -0.5,1.65 c -2.76,9.19 -16.52,53.48 -17.36,56.79 -3.1,12.29 -2.41,36.61 2.49,41.16 3.92,3.64 11.45,6.32 16.43,5.77 4.98,-0.55 18.71,-18.22 18.71,-18.22 l 12.59,-40.34 z"
       style="fill:#ffbe9d"
       id="path69" />
    <path
       d="m 196.16,239.4 a 3.81,3.81 0 0 1 -0.09,0.78 c -0.1,0.56 -0.22,1.3 -0.38,2.24 -0.35,2 -0.86,4.77 -1.47,8.19 -0.61,3.42 -1.35,7.58 -2,12.18 a 117.08,117.08 0 0 0 -1.16,15 62,62 0 0 0 1.69,14.94 c 1.09,4.49 2.09,8.63 2,12.2 a 16.07,16.07 0 0 1 -2.08,8 8.28,8.28 0 0 1 -1.94,2.36 14.46,14.46 0 0 0 3.65,-10.41 c 0.06,-3.5 -1,-7.58 -2.09,-12.08 a 61.8,61.8 0 0 1 -1.74,-15.05 110.78,110.78 0 0 1 1.21,-15.09 c 0.65,-4.61 1.42,-8.73 2.09,-12.18 0.67,-3.45 1.24,-6.18 1.63,-8.16 0.2,-0.93 0.36,-1.66 0.47,-2.22 a 6.62,6.62 0 0 1 0.21,-0.7 z"
       style="fill:#eb996e"
       id="path70" />
    <path
       d="m 216.13,218.52 -3.74,-4.14 v -4.92 l -3.88,-5.58 -7.74,1.24 -2.37,0.2 L 200,194 a 47,47 0 0 1 3.48,-8.37 c 2.76,-5.52 -1.68,-8.05 -1.68,-8.05 l -8.3,14.52 -2.76,9.65 -1.18,-7.87 c 0,0 1.4,-7.66 1.2,-11.6 -0.2,-3.94 -4.15,-3.37 -4.15,-3.37 l -3.16,17.33 v 8.67 l -2.75,-5.12 c 0,0 -0.59,-4.34 -1,-8.28 -0.41,-3.94 -3.54,-2.76 -3.54,-2.76 v 12.81 l 3.54,11.82 c 0,0 -2.33,15.25 -2.72,15.84 L 195.21,242 c 0,0 4,-3 4.77,-3.21 0.77,-0.21 10.64,-7.49 10.64,-7.49 l 6.89,-7.29 c 0,0 1.18,-0.78 1.18,-1.57 0,-0.79 -2.56,-3.92 -2.56,-3.92 z m -9.45,4.73 -3.94,-1.78 -2.17,-5.32 1.61,-2.91 0.56,-1 0.72,-0.5 2.63,0.5 c 0,0 1.18,3.75 1,5.52 -0.18,1.77 2.17,3.55 2.17,3.55 z"
       style="fill:#ffbe9d"
       id="path71" />
    <path
       d="m 203.46,211.71 c 0,0.06 -0.36,0.1 -0.9,-0.07 a 4,4 0 0 1 -1.8,-1.26 3.87,3.87 0 0 1 -0.88,-2 c -0.06,-0.56 0,-0.91 0.1,-0.9 a 5.55,5.55 0 0 0 3.48,4.24 z"
       style="fill:#eb996e"
       id="path72" />
    <path
       d="m 213.6,221.92 a 34.49,34.49 0 0 1 0.26,-5.74 6.61,6.61 0 0 1 0.27,2.89 6.39,6.39 0 0 1 -0.53,2.85 z"
       style="fill:#eb996e"
       id="path73" />
    <path
       d="m 207.52,229.37 c 0,0 -0.5,-0.32 -1.06,-1.08 a 5.06,5.06 0 0 1 -1,-3.55 2.11,2.11 0 0 1 0.48,-1.05 c 0.23,-0.25 0.47,-0.48 0.7,-0.69 a 14.91,14.91 0 0 1 1.28,-1 c 0.76,-0.54 1.3,-0.78 1.34,-0.7 a 10.71,10.71 0 0 1 -1.11,1 c -0.35,0.3 -0.75,0.66 -1.18,1.08 -0.21,0.21 -0.43,0.44 -0.64,0.68 a 1.68,1.68 0 0 0 -0.36,0.8 4,4 0 0 0 0.19,1.83 6.14,6.14 0 0 0 0.63,1.43 c 0.44,0.74 0.8,1.2 0.73,1.25 z"
       style="fill:#eb996e"
       id="path74" />
    <path
       d="m 212.4,213.88 a 6.08,6.08 0 0 1 -1.31,4.06 3.6,3.6 0 0 1 -1.34,1.13 2.34,2.34 0 0 1 -1.45,0.13 c -0.85,-0.21 -1.07,-0.79 -1,-0.8 0.07,-0.01 0.37,0.36 1.07,0.44 a 2.06,2.06 0 0 0 1.18,-0.21 3.3,3.3 0 0 0 1.13,-1 17.7,17.7 0 0 0 1.72,-3.75 z"
       style="fill:#eb996e"
       id="path75" />
    <path
       d="m 207.09,217.45 c -0.12,0 -0.41,-1.74 -1,-3.87 a 23.7,23.7 0 0 1 -0.52,-2.8 c -0.07,-0.73 0,-1.19 0,-1.19 0,0 0.16,0.43 0.32,1.13 0.23,1 0.44,1.83 0.66,2.74 0.64,2.14 0.71,3.99 0.54,3.99 z"
       style="fill:#eb996e"
       id="path76" />
    <path
       d="m 213.6,223.1 a 9.13,9.13 0 0 1 -4.46,-1.58 5.71,5.71 0 0 1 -1.46,-1.23 3.51,3.51 0 0 1 -0.66,-1.43 2,2 0 0 1 0.07,-1.41 c 0.09,0 0,0.54 0.28,1.32 a 4.22,4.22 0 0 0 2,2.3 c 2.21,1.38 4.28,1.86 4.23,2.03 z"
       style="fill:#eb996e"
       id="path77" />
    <path
       d="m 197.36,227.48 a 24.46,24.46 0 0 0 -4.36,-5.38 24.74,24.74 0 0 0 -6,-3.51 5.55,5.55 0 0 1 2,0.52 15.14,15.14 0 0 1 7.51,6.46 5.46,5.46 0 0 1 0.85,1.91 z"
       style="fill:#eb996e"
       id="path78" />
    <path
       d="m 190.76,209.09 c 0,0.15 -1.44,0.27 -3.11,0.86 -1.67,0.59 -2.88,1.36 -3,1.24 a 7.44,7.44 0 0 1 6.08,-2.1 z"
       style="fill:#eb996e"
       id="path79" />
    <path
       d="m 222.42,428.7 c 0,0 -58.43,16.17 -60.77,17 -3.52,1.24 -2.93,14.14 2.55,13.94 2.59,-0.1 44.87,1.57 50.22,1.24 5.35,-0.33 19.72,-6 19.72,-6 z"
       style="fill:#455a64"
       id="path80" />
    <path
       d="m 198.08,451 c -0.3,0 -0.69,-3.05 -2.58,-6.27 -1.89,-3.22 -4.31,-5.14 -4.13,-5.38 0.18,-0.24 3,1.42 5,4.89 2,3.47 1.95,6.76 1.71,6.76 z"
       style="fill:#263238"
       id="path81" />
    <path
       d="m 204.17,448.23 c -0.29,0 -0.88,-2.71 -2.43,-5.76 -1.55,-3.05 -3.4,-5.19 -3.19,-5.39 0.21,-0.2 2.45,1.72 4.06,4.95 1.61,3.23 1.81,6.18 1.56,6.2 z"
       style="fill:#263238"
       id="path82" />
    <path
       d="m 209.88,446.7 c -0.29,0 -0.07,-2.94 -1.36,-6.17 -1.29,-3.23 -3.39,-5.25 -3.19,-5.47 0.2,-0.22 2.74,1.59 4.1,5.11 1.36,3.52 0.69,6.61 0.45,6.53 z"
       style="fill:#263238"
       id="path83" />
    <path
       d="m 208.85,439.15 c -0.11,0 -0.63,-1.6 -0.63,-4.34 a 20.36,20.36 0 0 1 0.59,-4.77 20.69,20.69 0 0 1 0.87,-2.71 3.29,3.29 0 0 1 0.94,-1.43 1.54,1.54 0 0 1 2,0.1 2.52,2.52 0 0 1 0.78,1.65 11.69,11.69 0 0 1 0.08,1.54 13.64,13.64 0 0 1 -0.36,2.86 17.32,17.32 0 0 1 -1.8,4.47 c -1.36,2.37 -2.54,3.58 -2.63,3.52 -0.09,-0.06 0.85,-1.46 2,-3.84 a 19.54,19.54 0 0 0 1.53,-4.34 12.93,12.93 0 0 0 0.28,-2.67 c 0,-0.9 0,-2 -0.54,-2.46 a 0.56,0.56 0 0 0 -0.77,-0.06 2.42,2.42 0 0 0 -0.64,1 22,22 0 0 0 -0.89,2.58 23.33,23.33 0 0 0 -0.77,4.56 c -0.15,2.67 0.11,4.32 -0.04,4.34 z"
       style="fill:#263238"
       id="path84" />
    <path
       d="m 208.92,438.56 c 0,-0.11 1.38,-0.59 3.77,-0.61 a 16.83,16.83 0 0 1 4.14,0.51 9,9 0 0 1 2.39,0.88 2.46,2.46 0 0 1 1.32,2.67 2.91,2.91 0 0 1 -2.1,2.08 5.43,5.43 0 0 1 -2.63,0 10,10 0 0 1 -3.79,-1.87 10.46,10.46 0 0 1 -2.72,-2.67 c 0.11,-0.13 1.21,0.83 3.11,2.1 a 10.1,10.1 0 0 0 3.59,1.55 4.55,4.55 0 0 0 2.17,0 2,2 0 0 0 1.42,-1.38 1.5,1.5 0 0 0 -0.87,-1.63 8.66,8.66 0 0 0 -2.12,-0.83 20.21,20.21 0 0 0 -3.94,-0.69 c -2.28,-0.19 -3.72,0.05 -3.74,-0.11 z"
       style="fill:#263238"
       id="path85" />
    <path
       d="m 189.1,451.62 c -0.29,0 0,-2.53 -1.15,-5.27 -1.15,-2.74 -3,-4.35 -2.86,-4.58 0.14,-0.23 2.54,1.15 3.76,4.21 1.22,3.06 0.49,5.74 0.25,5.64 z"
       style="fill:#263238"
       id="path86" />
    <path
       d="m 229.87,454.32 a 13.25,13.25 0 0 1 -2.26,1.06 49.24,49.24 0 0 1 -6.5,2 c -5.59,1.41 -13.56,2.21 -22.31,2.12 -8.75,-0.09 -16.65,-0.5 -22.37,-0.73 l -6.77,-0.36 a 11.69,11.69 0 0 1 -2.48,-0.26 11.77,11.77 0 0 1 2.49,-0.12 h 6.78 l 22.35,0.44 a 104.52,104.52 0 0 0 22.2,-1.75 c 5.54,-1.15 8.8,-2.59 8.87,-2.4 z"
       style="fill:#263238"
       id="path87" />
    <path
       d="m 231.6,455.65 c -0.08,0.13 -1.68,-0.8 -4.38,-2 a 20.39,20.39 0 0 0 -11.06,-1.83 c -4.4,0.67 -7.52,3.63 -9.55,5.68 -2.03,2.05 -3.25,3.54 -3.37,3.44 a 18.09,18.09 0 0 1 2.86,-3.94 22.55,22.55 0 0 1 3.87,-3.62 13.9,13.9 0 0 1 6,-2.56 19.28,19.28 0 0 1 11.5,2.18 15.63,15.63 0 0 1 4.13,2.65 z"
       style="fill:#263238"
       id="path88" />
    <path
       d="m 173,458.17 c -0.1,-0.07 0.4,-0.84 0.86,-2.2 a 11.2,11.2 0 0 0 0.43,-5.49 11.08,11.08 0 0 0 -2.37,-5 c -0.91,-1.11 -1.65,-1.66 -1.58,-1.76 0.07,-0.1 0.92,0.31 2,1.38 a 9.95,9.95 0 0 1 2,11.05 c -0.61,1.41 -1.29,2.08 -1.34,2.02 z"
       style="fill:#263238"
       id="path89" />
    <path
       d="M 216.73,346.17 206.23,372 c 0,0 -52.18,-19.09 -82.72,-13.53 -11.61,2.12 -24,28.47 -7.12,45.39 16.51,16.51 46,39.85 101.42,47.4 1.38,0.19 24.07,5.06 22.67,4.89 -1.4,-0.17 31.81,5.09 31.81,5.09 l 7.8,-29.47 61.91,9.74 c 36.46,-2.49 54.3,-41.48 32.35,-54 -20.48,-11.71 -59,-12.64 -59,-12.64 l -9.45,-25.79 z"
       style="fill:#263238"
       id="path90" />
    <path
       d="m 273.52,462.34 c 0.17,-1 0.6,-3.68 1.51,-9.18 0.49,-3 1.1,-6.53 1.88,-10.65 0.39,-2.06 0.83,-4.26 1.35,-6.57 0.26,-1.16 0.55,-2.34 0.89,-3.55 0.17,-0.6 0.35,-1.21 0.57,-1.82 a 5.56,5.56 0 0 1 0.94,-1.82 l 0.09,0.45 c -13.17,-4.67 -29.63,-10.85 -47.18,-18.25 -10.78,-4.59 -21,-9.22 -29.92,-14.05 a 96.57,96.57 0 0 1 -12.27,-7.61 c -3.64,-2.69 -6.88,-5.37 -9.92,-7.71 -6,-4.75 -11.48,-7.82 -15.56,-9.12 a 23.29,23.29 0 0 0 -2.73,-0.81 16.59,16.59 0 0 0 -2,-0.44 l -1.27,-0.23 a 2.05,2.05 0 0 1 -0.43,-0.1 2.09,2.09 0 0 1 0.44,0 l 1.28,0.16 a 15.42,15.42 0 0 1 2.06,0.38 23.42,23.42 0 0 1 2.76,0.75 37,37 0 0 1 7.16,3.19 76.38,76.38 0 0 1 8.61,5.81 c 3.06,2.32 6.32,5 10,7.64 a 98.07,98.07 0 0 0 12.23,7.51 c 8.95,4.78 19.12,9.39 29.89,14 17.53,7.39 34,13.61 47.1,18.36 l 0.36,0.13 -0.27,0.31 a 5.52,5.52 0 0 0 -0.81,1.61 c -0.22,0.59 -0.4,1.19 -0.57,1.78 -0.35,1.19 -0.64,2.37 -0.91,3.52 -0.54,2.3 -1,4.49 -1.4,6.54 -0.82,4.11 -1.47,7.69 -2,10.62 -0.53,2.93 -1,5.18 -1.26,6.77 -0.16,0.78 -0.28,1.37 -0.38,1.77 a 3.89,3.89 0 0 1 -0.24,0.61 z"
       style="fill:#455a64"
       id="path91" />
    <path
       d="m 362.3,391 a 1.43,1.43 0 0 1 -0.34,0 l -1,-0.16 c -0.85,-0.11 -2.08,-0.43 -3.7,-0.58 a 72.47,72.47 0 0 0 -13.72,-0.49 102.09,102.09 0 0 0 -20.09,3.32 c -3.71,1 -7.57,2.16 -11.52,3.53 -3.95,1.37 -8,2.94 -12.1,4.59 a 112,112 0 0 1 -12.35,4.07 c -4,1.12 -8,2 -11.79,2.72 -7.57,1.48 -14.45,2.39 -20.23,3.09 -5.78,0.7 -10.47,1.18 -13.71,1.51 l -3.73,0.37 -1,0.08 c -0.22,0 -0.33,0 -0.33,0 a 1.51,1.51 0 0 1 0.32,-0.07 l 1,-0.14 3.71,-0.49 13.68,-1.72 c 5.77,-0.77 12.64,-1.72 20.17,-3.23 3.77,-0.74 7.71,-1.63 11.74,-2.75 a 112.09,112.09 0 0 0 12.27,-4.06 c 4.12,-1.64 8.17,-3.22 12.14,-4.59 3.97,-1.37 7.85,-2.52 11.58,-3.51 a 100,100 0 0 1 20.22,-3.19 67.66,67.66 0 0 1 13.78,0.7 c 1.62,0.2 2.84,0.56 3.69,0.71 l 1,0.22 a 1.19,1.19 0 0 1 0.31,0.07 z"
       style="fill:#455a64"
       id="path92" />
    <path
       d="m 267,380.43 c 0,0.44 -2.77,1.14 -7.41,1.57 a 96.75,96.75 0 0 1 -35.95,-3.85 c -4.43,-1.4 -7,-2.69 -6.9,-3.11 0.3,-0.93 11.25,2 25.05,3.42 13.8,1.42 25.11,1 25.21,1.97 z"
       style="fill:#263238"
       id="path93" />
    <path
       d="m 315.89,375.25 a 12.06,12.06 0 0 1 -2,0.55 c -0.67,0.14 -1.47,0.34 -2.39,0.62 -0.92,0.28 -2,0.55 -3.12,1 a 77.62,77.62 0 0 0 -7.9,3.13 c -2.9,1.37 -6,3 -9.19,4.91 a 145.4,145.4 0 0 0 -15.49,10.89 c -1.89,1.51 -3.41,2.76 -4.45,3.64 a 12.85,12.85 0 0 1 -1.67,1.3 12.62,12.62 0 0 1 1.5,-1.5 c 1,-0.93 2.46,-2.24 4.33,-3.8 a 124.16,124.16 0 0 1 15.44,-11.1 97.85,97.85 0 0 1 9.27,-4.89 68.66,68.66 0 0 1 8,-3 c 1.16,-0.38 2.23,-0.64 3.18,-0.87 a 24.66,24.66 0 0 1 2.42,-0.52 13.68,13.68 0 0 1 2.07,-0.36 z"
       style="fill:#455a64"
       id="path94" />
    <path
       d="m 257.89,401.25 a 15.16,15.16 0 0 1 -3.66,-1.05 78,78 0 0 1 -8.38,-3.78 l -8.11,-4.25 a 27.16,27.16 0 0 1 -3.34,-1.81 17.37,17.37 0 0 1 3.54,1.39 c 2.14,1 5,2.45 8.21,4.08 3.21,1.63 6.1,3 8.25,3.94 a 35.88,35.88 0 0 1 3.49,1.48 z"
       style="fill:#455a64"
       id="path95" />
    <path
       d="m 263.53,347.69 c 0.1,0 -0.07,2.38 -0.27,6.21 -0.2,3.83 -0.37,9.12 -0.28,15 0.09,5.88 0.43,11.13 0.75,14.94 0.32,3.81 0.56,6.17 0.46,6.19 a 8.32,8.32 0 0 1 -0.33,-1.62 c -0.18,-1.06 -0.38,-2.59 -0.6,-4.5 -0.44,-3.81 -0.85,-9.12 -0.94,-15 -0.09,-5.88 0.15,-11.2 0.47,-15 0.16,-1.92 0.32,-3.46 0.46,-4.52 a 8.48,8.48 0 0 1 0.28,-1.7 z"
       style="fill:#455a64"
       id="path96" />
    <path
       d="m 269.34,357.83 c 0,0.06 -0.22,0.21 -0.54,0.58 a 3.7,3.7 0 0 0 -0.82,1.89 3.53,3.53 0 0 0 0.8,2.8 3.3,3.3 0 0 0 5.46,-2 3.55,3.55 0 0 0 -1.22,-2.65 3.68,3.68 0 0 0 -1.85,-0.9 c -0.49,-0.07 -0.78,0 -0.79,-0.08 -0.01,-0.08 0.27,-0.17 0.81,-0.18 a 3.63,3.63 0 0 1 2.13,0.8 3.91,3.91 0 0 1 1.53,3 3.86,3.86 0 0 1 -6.52,2.42 3.91,3.91 0 0 1 -0.81,-3.29 3.58,3.58 0 0 1 1.09,-2 1.43,1.43 0 0 1 0.73,-0.39 z"
       style="fill:#455a64"
       id="path97" />
    <path
       d="m 280.45,431 c 0,0 59.3,9 61.7,9.55 3.6,0.8 4.54,13.54 -0.87,14 -2.55,0.21 -43.9,6.82 -49.19,7.12 -5.29,0.3 -21.86,-4 -21.86,-4 z"
       style="fill:#455a64"
       id="path98" />
    <path
       d="m 307,450 c 0.3,0 0.32,-3.08 1.79,-6.47 1.47,-3.39 3.64,-5.56 3.43,-5.76 -0.21,-0.2 -2.78,1.74 -4.32,5.38 -1.54,3.64 -1.16,6.93 -0.9,6.85 z"
       style="fill:#263238"
       id="path99" />
    <path
       d="m 300.67,448 c 0.29,0 0.55,-2.77 1.72,-5.95 1.17,-3.18 2.72,-5.49 2.49,-5.66 -0.23,-0.17 -2.2,2 -3.4,5.33 -1.2,3.33 -1.05,6.33 -0.81,6.28 z"
       style="fill:#263238"
       id="path100" />
    <path
       d="m 294.88,447.2 c 0.29,-0.05 -0.28,-2.89 0.62,-6.22 0.9,-3.33 2.71,-5.56 2.48,-5.74 -0.23,-0.18 -2.5,1.87 -3.42,5.49 -0.92,3.62 0.1,6.58 0.32,6.47 z"
       style="fill:#263238"
       id="path101" />
    <path
       d="m 295,439.67 c 0.11,0 0.42,-1.65 0.11,-4.35 a 20.64,20.64 0 0 0 -1.15,-4.61 19.26,19.26 0 0 0 -1.17,-2.56 3.25,3.25 0 0 0 -1.09,-1.3 1.55,1.55 0 0 0 -2,0.34 2.54,2.54 0 0 0 -0.57,1.71 12.66,12.66 0 0 0 0.11,1.53 12.53,12.53 0 0 0 0.69,2.76 17.62,17.62 0 0 0 2.29,4.18 11.66,11.66 0 0 0 3,3.15 c 0.12,-0.11 -1,-1.33 -2.43,-3.54 a 18.68,18.68 0 0 1 -2,-4.08 13.23,13.23 0 0 1 -0.59,-2.59 c -0.08,-0.89 -0.22,-2 0.24,-2.47 a 0.56,0.56 0 0 1 0.75,-0.16 2.34,2.34 0 0 1 0.75,0.93 19.92,19.92 0 0 1 1.17,2.43 22.65,22.65 0 0 1 1.3,4.39 c 0.51,2.57 0.44,4.23 0.59,4.24 z"
       style="fill:#263238"
       id="path102" />
    <path
       d="m 294.87,439.09 c 0,-0.11 -1.43,-0.42 -3.77,-0.15 a 16.44,16.44 0 0 0 -4,1 9,9 0 0 0 -2.24,1.15 2.43,2.43 0 0 0 -1,2.78 2.91,2.91 0 0 0 2.31,1.8 5.31,5.31 0 0 0 2.58,-0.32 10,10 0 0 0 3.51,-2.28 10.22,10.22 0 0 0 2.35,-2.94 c -0.12,-0.11 -1.09,1 -2.81,2.43 a 10.16,10.16 0 0 1 -3.34,1.95 4.56,4.56 0 0 1 -2.13,0.22 1.94,1.94 0 0 1 -1.56,-1.19 1.5,1.5 0 0 1 0.66,-1.71 9.16,9.16 0 0 1 2,-1.06 19.52,19.52 0 0 1 3.79,-1.14 c 2.21,-0.44 3.64,-0.38 3.65,-0.54 z"
       style="fill:#263238"
       id="path103" />
    <path
       d="m 315.88,449.59 c 0.28,-0.07 -0.3,-2.49 0.51,-5.31 0.81,-2.82 2.48,-4.63 2.27,-4.83 -0.21,-0.2 -2.36,1.42 -3.21,4.57 -0.85,3.15 0.21,5.7 0.43,5.57 z"
       style="fill:#263238"
       id="path104" />
    <path
       d="m 276.14,457 a 11.81,11.81 0 0 0 2.35,0.78 50.63,50.63 0 0 0 6.62,1.22 92.1,92.1 0 0 0 22.16,-0.55 c 8.59,-1.13 16.3,-2.45 21.89,-3.34 l 6.61,-1.15 a 12.3,12.3 0 0 0 2.4,-0.55 11.6,11.6 0 0 0 -2.46,0.18 l -6.65,0.84 -21.91,3.06 a 103.93,103.93 0 0 1 -22,0.83 c -5.59,-0.45 -8.96,-1.47 -9.01,-1.32 z"
       style="fill:#263238"
       id="path105" />
    <path
       d="m 274.6,458.54 c 0.1,0.13 1.56,-1 4.07,-2.46 A 20.12,20.12 0 0 1 289.32,453 c 4.4,0.15 7.81,2.69 10.05,4.47 a 35.64,35.64 0 0 0 3.71,3 18,18 0 0 0 -3.26,-3.51 23.3,23.3 0 0 0 -4.24,-3.1 13.61,13.61 0 0 0 -6.23,-1.8 19.08,19.08 0 0 0 -11,3.49 15.64,15.64 0 0 0 -3.75,2.99 z"
       style="fill:#263238"
       id="path106" />
    <path
       d="m 314.42,282.08 c -0.23,1.46 -1,41 1.36,44.59 3.71,5.7 15.67,15.9 23.11,13.11 12.07,-4.53 14.8,-30.06 14.58,-25.32 l -9.55,-80.67 H 325.53 L 324,262.72 318.64,266 a 53,53 0 0 1 -2.05,9.92 z"
       style="fill:#ffbe9d"
       id="path107" />
    <path
       d="m 325.53,233.79 c 0,0 -7.34,-7.26 -7.34,-8.87 0,-1.61 -2.87,-2.51 -2.87,-2.51 l -4.66,-2.32 c 0,0 -3,-2.87 -2.32,-4.48 a 4.2,4.2 0 0 1 2,-2.15 c 0,0 0.23,-3.94 3.16,-5 0,0 -2.75,-3 0,-5.19 2.75,-2.19 3.41,-1.26 3.41,-1.26 0,0 -0.3,-2.33 1.31,-2.5 1.61,-0.17 13.13,-3.05 13.13,-3.05 a 23.05,23.05 0 0 1 4.6,3.05 c 1.43,1.43 2.15,2.32 2.15,2.32 a 17.49,17.49 0 0 0 2.87,-5.37 c 0.71,-2.69 1.79,-10.75 9.85,-10.39 v 2 a 21.79,21.79 0 0 0 -3.23,7.88 c -1.07,5 -3,16.11 -3,16.11 l -0.6,21.78 z"
       style="fill:#ffbe9d"
       id="path108" />
    <path
       d="m 318.45,314.26 a 5.12,5.12 0 0 1 -0.16,-0.81 c -0.08,-0.54 -0.23,-1.32 -0.31,-2.35 a 50.27,50.27 0 0 1 -0.13,-8.71 107.37,107.37 0 0 1 1.73,-12.81 c 0.87,-4.78 2.05,-10 2.93,-15.52 1.72,-11.07 1.94,-21.24 2.22,-28.58 0.13,-3.63 0.24,-6.59 0.31,-8.69 l 0.12,-2.37 a 4.06,4.06 0 0 1 0.08,-0.82 7.62,7.62 0 0 1 0,0.83 c 0,0.59 0,1.37 0,2.36 0,2.11 -0.08,5.07 -0.14,8.7 a 217.38,217.38 0 0 1 -2.1,28.65 c -0.89,5.55 -2.09,10.76 -3,15.53 a 113.26,113.26 0 0 0 -1.83,12.74 55.59,55.59 0 0 0 0,8.67 c 0.05,1 0.17,1.82 0.22,2.36 a 4.57,4.57 0 0 1 0.06,0.82 z"
       style="fill:#eb996e"
       id="path109" />
    <path
       d="m 331.28,200.82 c 0,0.07 -0.8,0.05 -2.08,0.22 -1.28,0.17 -3.06,0.35 -5,0.53 a 49.74,49.74 0 0 1 -7.2,0.43 48.27,48.27 0 0 1 7.1,-0.91 c 2,-0.18 3.75,-0.31 5,-0.38 a 4.7,4.7 0 0 1 2.18,0.11 z"
       style="fill:#eb996e"
       id="path110" />
    <path
       d="m 327.9,209.42 a 10.67,10.67 0 0 1 -2.08,-0.07 c -1.27,-0.08 -3,-0.11 -5,-0.16 a 38.14,38.14 0 0 1 -5,-0.37 6.37,6.37 0 0 1 -2,-0.51 12,12 0 0 1 2.07,0.14 c 1.27,0.11 3,0.18 5,0.22 2,0.04 3.74,0.14 5,0.31 a 7,7 0 0 1 2.01,0.44 z"
       style="fill:#eb996e"
       id="path111" />
    <path
       d="m 325.25,216.37 a 8.76,8.76 0 0 1 -2.12,-0.25 c -1.3,-0.22 -3.08,-0.56 -5.05,-1 -1.97,-0.44 -3.74,-0.8 -5,-1.11 a 8.78,8.78 0 0 1 -2.05,-0.61 8.78,8.78 0 0 1 2.13,0.25 c 1.29,0.22 3.08,0.56 5,1 1.92,0.44 3.73,0.8 5,1.12 a 8.78,8.78 0 0 1 2.09,0.6 z"
       style="fill:#eb996e"
       id="path112" />
  </g>
</svg>
