<?xml version="1.0" encoding="UTF-8" standalone="no"?>
<svg
   viewBox="0 0 420 437.58224"
   version="1.1"
   id="svg209"
   sodipodi:docname="sorry.svg"
   width="420"
   height="437.58224"
   inkscape:version="1.3.2 (1:1.3.2+202311252150+091e20ef0f)"
   xmlns:inkscape="http://www.inkscape.org/namespaces/inkscape"
   xmlns:sodipodi="http://sodipodi.sourceforge.net/DTD/sodipodi-0.dtd"
   xmlns="http://www.w3.org/2000/svg"
   xmlns:svg="http://www.w3.org/2000/svg">
  <defs
     id="defs209" />
  <sodipodi:namedview
     id="namedview209"
     pagecolor="#505050"
     bordercolor="#eeeeee"
     borderopacity="1"
     inkscape:showpageshadow="0"
     inkscape:pageopacity="0"
     inkscape:pagecheckerboard="0"
     inkscape:deskcolor="#d1d1d1"
     inkscape:zoom="2.352"
     inkscape:cx="210.03401"
     inkscape:cy="213.0102"
     inkscape:window-width="3440"
     inkscape:window-height="1376"
     inkscape:window-x="0"
     inkscape:window-y="27"
     inkscape:window-maximized="1"
     inkscape:current-layer="svg209" />
  <g
     id="freepik--background-complete--inject-11"
     transform="translate(-40,-36.997763)">
    <path
       d="M 95.36,353.55 A 43,43 0 0 0 76.9,347.19 c -3,-0.31 -6.31,-0.22 -8.73,1.61 a 1.76,1.76 0 0 0 -0.9,1.59 1.91,1.91 0 0 0 0.85,1.09 c 7.51,5.73 18.88,6.46 27.24,2.07"
       style="fill:#e0e0e0"
       id="path1" />
    <path
       d="M 94.89,353 A 89.51,89.51 0 0 1 83,342.53 30.06,30.06 0 0 1 75.52,328.7 c -0.32,-1.57 -0.42,-3.37 0.59,-4.62 9.51,7.42 17,17 18.81,28.94"
       style="fill:#e0e0e0"
       id="path2" />
    <path
       d="m 95.27,353.47 c -0.72,-5.2 -1,-10.54 0.22,-15.65 1.22,-5.11 4,-10 8.34,-12.92 1.64,3.84 0.93,8.26 -0.22,12.27 a 59.8,59.8 0 0 1 -8.27,17.41"
       style="fill:#e0e0e0"
       id="path3" />
    <path
       d="m 104.58,370.17 c -5.65,0.69 -10.58,3.67 -14.8,7.5 a 27.89,27.89 0 0 0 -8.47,14.54 c 5.55,-0.35 10.25,-4.26 13.67,-8.65 3.42,-4.39 5.78,-9.2 9.53,-13.3"
       style="fill:#e0e0e0"
       id="path4" />
    <path
       d="m 106.61,372.84 a 36.48,36.48 0 0 1 4.22,-34.54 c 3.22,11.46 2,24.41 -4.22,34.54"
       style="fill:#e0e0e0"
       id="path5" />
    <path
       d="M 118.92,387.5 A 26.4,26.4 0 0 0 93.67,402 c -0.31,0.62 -0.59,1.42 -0.17,2 a 1.9,1.9 0 0 0 1.68,0.49 c 5,-0.32 9.38,-3.32 13,-6.72 3.62,-3.4 6.81,-7.35 10.83,-10.3"
       style="fill:#e0e0e0"
       id="path6" />
    <path
       d="m 118.53,386.71 a 47,47 0 0 1 -0.47,-26.27 c 0.92,-3.39 2.48,-6.95 5.6,-8.53 a 1.07,1.07 0 0 1 0.86,-0.15 1.09,1.09 0 0 1 0.54,0.63 15.77,15.77 0 0 1 1.33,7.53 48,48 0 0 1 -1.18,7.63 c -1,4.67 -1.51,9.68 -4.07,13.7 a 27.22,27.22 0 0 0 -1.63,3 c -0.48,1 -0.48,1.38 -0.93,2.19"
       style="fill:#e0e0e0"
       id="path7" />
    <path
       d="m 151.12,391.56 c -2.41,-9.18 0.15,-20.32 5.94,-27.85 0.42,-0.55 1,-1.15 1.68,-1.08 1.07,0.1 1.35,1.52 1.3,2.59 a 50.33,50.33 0 0 1 -8.92,26.34"
       style="fill:#e0e0e0"
       id="path8" />
    <path
       d="m 154.06,393.57 c 11.16,2.9 24,0.08 33.24,-6.76 a 26.94,26.94 0 0 0 -18,-2.21 c -6,1.38 -11.5,4.07 -15.24,9"
       style="fill:#e0e0e0"
       id="path9" />
    <path
       d="m 156.54,387.45 c 6.25,-10.19 18.23,-16.84 30.17,-17.44 -1.38,4.85 -5.37,8.63 -9.87,10.91 -4.5,2.28 -9.53,3.27 -14.48,4.23 -1.93,0.38 -4.57,0.79 -5.82,2.3"
       style="fill:#e0e0e0"
       id="path10" />
    <path
       d="m 151.74,357.78 c 1.69,-5.8 3.39,-11.65 3.86,-17.67 0.47,-6.02 -0.39,-12.31 -3.52,-17.48 -5.84,11.3 -6.43,24.5 -0.51,35.75"
       style="fill:#e0e0e0"
       id="path11" />
    <path
       d="m 171.4,347.84 c 6.82,-12.4 20.75,-22.31 34.84,-23.7 -5.43,13.53 -20.26,24 -34.84,23.7"
       style="fill:#e0e0e0"
       id="path12" />
    <path
       d="m 167.1,350.28 c 10.18,1.55 18.86,8.05 28.37,12 a 12.73,12.73 0 0 0 6.42,1.23 5,5 0 0 0 3.14,-8.88 13.63,13.63 0 0 0 -4.66,-2.83 C 190,347.48 178.89,347.37 168,350"
       style="fill:#e0e0e0"
       id="path13" />
    <path
       d="m 161.21,357.42 c 2.3,0.66 3.09,1.85 4.92,3.4 a 53.1,53.1 0 0 0 21.51,11.06 c 0.82,0.2 1.9,0.28 2.31,-0.46 0.41,-0.74 -0.1,-1.43 -0.56,-2 a 29.6,29.6 0 0 0 -13,-8.82 c -5,-1.85 -9.27,-4.08 -15.19,-3.6"
       style="fill:#e0e0e0"
       id="path14" />
    <path
       d="m 154.56,314.29 a 40.72,40.72 0 0 0 31.21,10.62 2.16,2.16 0 0 0 1.43,-0.51 c 0.78,-0.86 -0.16,-2.18 -1.08,-2.89 -9.17,-7.16 -20.29,-10.12 -31.56,-7.22"
       style="fill:#e0e0e0"
       id="path15" />
    <path
       d="m 162.44,311.4 a 43.5,43.5 0 0 1 38.95,-6.4 c -4.9,4.83 -11.71,7.43 -18.56,8.14 a 58.47,58.47 0 0 1 -20.39,-1.72"
       style="fill:#e0e0e0"
       id="path16" />
    <path
       d="m 159.31,291.58 c -0.9,-9.16 -0.32,-16.39 -0.95,-25.59 -0.05,-0.74 -0.21,-1.62 -0.9,-1.89 -1,-0.36 -1.76,0.81 -2.07,1.79 a 29.31,29.31 0 0 0 3.91,25.49"
       style="fill:#e0e0e0"
       id="path17" />
    <path
       d="m 158.65,292.6 c 6.21,-3.84 10.87,-8.86 15.17,-14.75 3,-4.1 5.53,-9 4.85,-14.05 -4.21,-0.08 -8.21,2.24 -10.95,5.44 -2.74,3.2 -4.36,7.19 -5.58,11.22 -1.22,4.03 -2.06,8.17 -3.49,12.14"
       style="fill:#e0e0e0"
       id="path18" />
    <path
       d="m 173.56,288.45 a 122.07,122.07 0 0 0 37.34,-22 c -4.46,-1.79 -9.57,-0.72 -14,1.08 -10.18,4.12 -18.51,11.06 -23.51,20.84"
       style="fill:#e0e0e0"
       id="path19" />
    <path
       d="m 162.84,297.61 c 6.9,0.75 13.9,1.24 20.74,0.1 6.84,-1.14 13.07,-3.79 19.36,-6.43 a 2.3,2.3 0 0 0 1.31,-1 1.52,1.52 0 0 0 -0.47,-1.66 4,4 0 0 0 -1.65,-0.77 c -6.83,-1.91 -14.2,-1 -20.92,1.25 a 96.87,96.87 0 0 0 -18.37,8.51"
       style="fill:#e0e0e0"
       id="path20" />
    <path
       d="m 123.48,314.6 c -4.7,-9.49 -4.4,-20.57 -0.33,-30.36 2.86,4.36 3.21,9.91 2.68,15.1 -0.53,5.19 -2.1,10.52 -2.2,15.73"
       style="fill:#e0e0e0"
       id="path21" />
    <path
       d="m 104.69,305.12 a 42.33,42.33 0 0 0 -31.46,13.41 c 5.86,0.92 11.9,-0.59 17.23,-3.2 5.33,-2.61 10.07,-6.25 14.76,-9.88"
       style="fill:#e0e0e0"
       id="path22" />
    <path
       d="m 92.06,300.9 c -5.74,-0.47 -11.27,-1.18 -16.79,0.52 -5.52,1.7 -10.55,5.58 -12.81,10.85 a 30.31,30.31 0 0 0 15.75,-3 91.91,91.91 0 0 0 13.85,-8.4"
       style="fill:#e0e0e0"
       id="path23" />
    <path
       d="m 110.76,301.09 c -5.16,-3.38 -10.47,-6.83 -16.49,-8.23 -6.02,-1.4 -13,-0.37 -17.18,4.17 4.87,2.85 10.78,3.19 16.42,3.19 5.64,0 12.57,-0.07 17.9,1.81"
       style="fill:#e0e0e0"
       id="path24" />
    <path
       d="m 110.79,301.37 c -8.83,-8.68 -12.18,-24.26 -8.63,-36.12 a 55,55 0 0 1 8.63,36.12"
       style="fill:#e0e0e0"
       id="path25" />
    <path
       d="m 135.09,276.79 c 1.66,-3.88 2.84,-7.94 4.33,-11.89 a 34,34 0 0 1 6.18,-10.9 16.26,16.26 0 0 1 10.94,-5.67 44.1,44.1 0 0 1 -21.24,28.57"
       style="fill:#e0e0e0"
       id="path26" />
    <path
       d="m 130.69,281.91 c -2.76,-3.8 -5.94,-9 -9.68,-11.78 -3.74,-2.78 -8.61,-4.55 -13.17,-3.46 a 30.68,30.68 0 0 0 22.85,15.24"
       style="fill:#e0e0e0"
       id="path27" />
    <path
       d="m 131.57,277.1 c -1.81,-4.59 -3.63,-9.23 -4.36,-14.11 -0.73,-4.88 -0.28,-10.1 2.21,-14.35 4.85,9.16 6.41,19 2.4,28.57"
       style="fill:#e0e0e0"
       id="path28" />
    <path
       d="m 135.13,248.64 c 2.75,-9.09 11.07,-15.78 20.05,-18.85 a 7.52,7.52 0 0 1 3.52,-0.53 3,3 0 0 1 2.59,2.16 c 0.33,1.55 -0.95,2.93 -2.15,4 a 68.44,68.44 0 0 1 -24,13.26"
       style="fill:#e0e0e0"
       id="path29" />
    <path
       d="m 135.23,241.2 c 0.35,-5.86 0.72,-11.8 2.62,-17.35 1.9,-5.55 5.58,-10.76 10.92,-13.19 0.91,5.92 -1.7,11.8 -4.85,16.9 -3.15,5.1 -6.94,9.9 -8.83,15.58"
       style="fill:#e0e0e0"
       id="path30" />
    <path
       d="m 135.09,245.24 c -2.27,-6.63 -2.51,-15 -6.47,-20.81 -2.78,-4 -7.22,-6.78 -9.6,-11.05 a 16.8,16.8 0 0 0 0.55,12.55 36.36,36.36 0 0 0 7.34,10.5 c 2.94,3.13 5.45,5.49 8.18,8.81"
       style="fill:#e0e0e0"
       id="path31" />
    <path
       d="m 135.13,440.28 c -0.17,0 -0.33,-44.18 -0.34,-98.67 -0.01,-54.49 0.12,-98.68 0.3,-98.68 0.18,0 0.33,44.17 0.34,98.68 0.01,54.51 -0.12,98.67 -0.3,98.67 z"
       style="fill:#e0e0e0"
       id="path32" />
    <path
       d="m 173.74,307.93 a 8.4,8.4 0 0 1 -1.66,0.63 l -4.57,1.54 c -3.86,1.31 -9.15,3.21 -14.9,5.57 -5.75,2.36 -11.06,4.42 -14.11,7.07 a 10.47,10.47 0 0 0 -2.84,3.75 c -0.44,1 -0.51,1.67 -0.57,1.66 a 1.16,1.16 0 0 1 0,-0.46 6.74,6.74 0 0 1 0.32,-1.29 10,10 0 0 1 2.77,-4 24.52,24.52 0 0 1 6.12,-3.8 c 2.45,-1.14 5.17,-2.34 8.05,-3.52 5.76,-2.36 11.1,-4.2 15,-5.41 1.95,-0.61 3.54,-1.06 4.64,-1.35 a 9.83,9.83 0 0 1 1.75,-0.39 z"
       style="fill:#e0e0e0"
       id="path33" />
    <path
       d="m 186.4,276.85 a 3.83,3.83 0 0 1 -0.47,0.49 l -1.42,1.34 -5.29,4.8 -17.62,15.69 c -6.87,6.12 -12.81,12 -16.93,16.37 -2.06,2.2 -3.69,4 -4.8,5.3 l -1.28,1.46 a 2.54,2.54 0 0 1 -0.47,0.48 2.49,2.49 0 0 1 0.37,-0.56 c 0.27,-0.36 0.66,-0.89 1.19,-1.54 1,-1.33 2.63,-3.2 4.66,-5.44 a 222.3,222.3 0 0 1 16.84,-16.55 c 6.9,-6.1 13.18,-11.59 17.74,-15.54 l 5.43,-4.66 1.5,-1.24 c 0.34,-0.25 0.53,-0.42 0.55,-0.4 z"
       style="fill:#e0e0e0"
       id="path34" />
    <path
       d="m 154.18,305.39 c -0.18,-0.08 1.26,-3.39 2.69,-7.59 1.43,-4.2 2.12,-7.73 2.31,-7.7 0.19,0.03 -0.24,3.66 -1.71,7.91 a 53.69,53.69 0 0 1 -2.13,5.31 8,8 0 0 1 -1.16,2.07 z"
       style="fill:#e0e0e0"
       id="path35" />
    <path
       d="m 135.17,332.14 a 9.42,9.42 0 0 1 -1.06,-1.23 l -2.71,-3.49 c -2.28,-2.94 -5.43,-7 -9,-11.46 -3.57,-4.46 -6.78,-8.45 -9.13,-11.34 l -2.78,-3.43 a 6.9,6.9 0 0 1 -1,-1.32 9.25,9.25 0 0 1 1.14,1.15 c 0.71,0.77 1.71,1.9 2.93,3.31 2.45,2.82 5.75,6.77 9.29,11.23 3.54,4.46 6.64,8.57 8.83,11.59 1.09,1.51 2,2.74 2.55,3.61 a 7.13,7.13 0 0 1 0.94,1.38 z"
       style="fill:#e0e0e0"
       id="path36" />
    <path
       d="m 126.71,321.27 c -0.11,0.11 -2.37,-2.57 -3.55,-6.64 a 19,19 0 0 1 -0.8,-6.7 h 0.28 c -0.13,0.51 -0.22,0.78 -0.27,0.77 -0.05,-0.01 -0.05,-0.29 0,-0.82 h 0.28 a 30.26,30.26 0 0 0 1.13,6.52 c 1.13,3.99 3.1,6.76 2.93,6.87 z"
       style="fill:#e0e0e0"
       id="path37" />
    <path
       d="m 115.78,307.52 a 11.36,11.36 0 0 0 -2.48,-1.44 16.59,16.59 0 0 0 -6.87,-0.55 42.31,42.31 0 0 0 -6.93,1.12 20.45,20.45 0 0 1 -2.85,0.68 10.51,10.51 0 0 1 2.73,-1.11 31.19,31.19 0 0 1 7,-1.32 15,15 0 0 1 7.09,0.76 4.45,4.45 0 0 1 2.31,1.86 z"
       style="fill:#e0e0e0"
       id="path38" />
    <path
       d="m 113.19,304.19 c 0,0.1 -1.45,-0.58 -3.8,-1.38 a 38.73,38.73 0 0 0 -9.46,-1.95 39.29,39.29 0 0 0 -9.65,0.49 c -2.45,0.44 -3.93,0.89 -4,0.79 a 3.58,3.58 0 0 1 1,-0.43 21.71,21.71 0 0 1 2.87,-0.8 33.41,33.41 0 0 1 9.79,-0.69 33.79,33.79 0 0 1 9.57,2.16 24.55,24.55 0 0 1 2.71,1.23 3.69,3.69 0 0 1 0.97,0.58 z"
       style="fill:#e0e0e0"
       id="path39" />
    <path
       d="m 135.09,290.1 c -0.17,0 -1.41,-4.26 -2.77,-9.61 -1.36,-5.35 -2.32,-9.73 -2.15,-9.77 0.17,-0.04 1.41,4.26 2.77,9.61 1.36,5.35 2.32,9.72 2.15,9.77 z"
       style="fill:#e0e0e0"
       id="path40" />
    <path
       d="m 135.26,290.1 c -0.19,0.06 -1,-2.82 -3.06,-5.76 a 25.2,25.2 0 0 0 -4.52,-4.65 4.1,4.1 0 0 1 1.75,0.89 14.3,14.3 0 0 1 3.29,3.4 c 2.16,3.02 2.7,6.11 2.54,6.12 z"
       style="fill:#e0e0e0"
       id="path41" />
    <path
       d="m 135.13,416.73 c -0.07,0 -0.2,-1.07 -0.7,-2.94 a 41,41 0 0 0 -3,-7.65 c -3,-6.24 -8.6,-14.15 -15.66,-22.07 -3.5,-4 -6.89,-7.77 -9.77,-11.37 a 79.55,79.55 0 0 1 -7,-10.08 48.21,48.21 0 0 1 -3.53,-7.48 C 95.15,354.22 94.91,353.5 94.78,353 a 3.47,3.47 0 0 1 -0.18,-0.76 c 0.06,0 0.38,1 1.11,2.81 a 53.86,53.86 0 0 0 3.68,7.34 84.34,84.34 0 0 0 7.06,9.94 c 2.89,3.57 6.29,7.32 9.79,11.32 7.08,7.94 12.62,16 15.59,22.29 a 39.16,39.16 0 0 1 2.79,7.79 c 0.2,1 0.34,1.7 0.39,2.21 a 3.87,3.87 0 0 1 0.12,0.79 z"
       style="fill:#e0e0e0"
       id="path42" />
    <path
       d="m 170,377.32 a 17.26,17.26 0 0 1 -1.83,1 39.37,39.37 0 0 0 -4.74,3.13 54.65,54.65 0 0 0 -6.23,5.68 c -2.19,2.31 -4.44,5 -6.74,7.87 -4.59,5.76 -8.89,10.86 -11.46,14.94 -1.31,2 -2.26,3.72 -2.88,4.92 a 15.36,15.36 0 0 1 -1,1.84 1.79,1.79 0 0 1 0.17,-0.52 c 0.14,-0.33 0.32,-0.82 0.62,-1.43 a 43.94,43.94 0 0 1 2.72,-5 c 2.49,-4.17 6.76,-9.35 11.35,-15.1 2.3,-2.88 4.58,-5.57 6.81,-7.88 a 50.8,50.8 0 0 1 6.38,-5.63 32.54,32.54 0 0 1 4.9,-3 c 0.6,-0.31 1.1,-0.5 1.42,-0.64 a 1.79,1.79 0 0 1 0.51,-0.18 z"
       style="fill:#e0e0e0"
       id="path43" />
    <path
       d="m 170.7,390.1 a 24,24 0 0 1 -3.86,0.56 51.25,51.25 0 0 0 -9.17,1.81 27.4,27.4 0 0 0 -8.2,4.31 c -1.9,1.46 -2.79,2.67 -2.88,2.6 a 3.13,3.13 0 0 1 0.58,-0.89 14.25,14.25 0 0 1 2,-2.06 24.88,24.88 0 0 1 8.3,-4.57 41.28,41.28 0 0 1 9.31,-1.64 21.6,21.6 0 0 1 3.92,-0.12 z"
       style="fill:#e0e0e0"
       id="path44" />
    <path
       d="m 147.72,398 c -0.2,-0.11 1.54,-2.77 2.89,-6.35 1.35,-3.58 1.57,-6.78 1.8,-6.74 a 6.42,6.42 0 0 1 -0.07,2.07 22.29,22.29 0 0 1 -1.13,4.89 23.49,23.49 0 0 1 -2.24,4.48 c -0.69,1.05 -1.18,1.65 -1.25,1.65 z"
       style="fill:#e0e0e0"
       id="path45" />
    <path
       d="m 181.32,343 a 3.28,3.28 0 0 1 -0.62,0.33 l -1.81,0.82 c -0.8,0.34 -1.77,0.78 -2.85,1.35 -1.08,0.57 -2.37,1.14 -3.7,1.94 l -2.11,1.2 c -0.73,0.42 -1.45,0.92 -2.22,1.4 -1.55,0.94 -3.11,2.1 -4.77,3.29 a 81.67,81.67 0 0 0 -18.39,19 c -1.12,1.7 -2.23,3.3 -3.12,4.89 -0.46,0.78 -0.93,1.52 -1.33,2.27 l -1.12,2.15 c -0.75,1.35 -1.29,2.64 -1.81,3.75 -0.52,1.11 -0.94,2.09 -1.25,2.9 -0.31,0.81 -0.57,1.35 -0.77,1.84 a 3.46,3.46 0 0 1 -0.3,0.63 2.71,2.71 0 0 1 0.18,-0.67 l 0.65,-1.89 c 0.28,-0.83 0.65,-1.82 1.16,-3 0.51,-1.18 1,-2.44 1.74,-3.82 l 1.09,-2.18 c 0.39,-0.75 0.85,-1.5 1.3,-2.3 0.88,-1.61 2,-3.23 3.1,-5 a 78.52,78.52 0 0 1 18.52,-19.16 c 1.68,-1.18 3.26,-2.34 4.84,-3.27 0.78,-0.47 1.51,-1 2.26,-1.38 l 2.14,-1.17 c 1.35,-0.77 2.64,-1.33 3.75,-1.86 a 31.71,31.71 0 0 1 2.91,-1.26 l 1.86,-0.71 a 2.74,2.74 0 0 1 0.67,-0.09 z"
       style="fill:#e0e0e0"
       id="path46" />
    <path
       d="m 153.71,361.5 a 4.4,4.4 0 0 1 1.52,-2.26 9.56,9.56 0 0 1 6.11,-2.35 16.61,16.61 0 0 1 6.44,1.26 9.41,9.41 0 0 1 2.44,1.18 14.54,14.54 0 0 1 -2.59,-0.76 19.43,19.43 0 0 0 -6.27,-1 9.94,9.94 0 0 0 -5.84,2.05 18,18 0 0 0 -1.81,1.88 z"
       style="fill:#e0e0e0"
       id="path47" />
    <path
       d="m 149.58,365.76 c -0.17,-0.1 1.38,-2.38 1.74,-5.66 0.36,-3.28 -0.58,-5.84 -0.39,-5.89 a 3.7,3.7 0 0 1 0.72,1.64 11.75,11.75 0 0 1 -1,8.47 c -0.53,0.98 -1.01,1.48 -1.07,1.44 z"
       style="fill:#e0e0e0"
       id="path48" />
    <path
       d="m 104.62,423.06 c 0.95,16.88 6,34.05 13.86,51.41 h 34 c 7.46,-17.18 12.2,-34.33 13,-51.41 z"
       style="fill:#e0e0e0"
       id="path49" />
    <path
       d="m 160,450.38 c 0,0.18 -11.2,0.32 -25,0.32 -13.8,0 -25,-0.14 -25,-0.32 0,-0.18 11.2,-0.32 25,-0.32 13.8,0 25,0.14 25,0.32 z"
       style="fill:#fafafa"
       id="path50" />
    <path
       d="m 159.28,456.5 c 0,0.17 -10.5,0.31 -23.46,0.31 -12.96,0 -23.46,-0.14 -23.46,-0.31 0,-0.17 10.5,-0.32 23.46,-0.32 12.96,0 23.46,0.14 23.46,0.32 z"
       style="fill:#fafafa"
       id="path51" />
    <path
       d="m 119,434.14 c 0.18,0 0.32,3.51 0.32,7.84 0,4.33 -0.14,7.84 -0.32,7.84 -0.18,0 -0.32,-3.51 -0.32,-7.84 0,-4.33 0.18,-7.84 0.32,-7.84 z"
       style="fill:#fafafa"
       id="path52" />
    <path
       d="m 137.27,434.14 c 0.17,0 0.32,3.64 0.32,8.12 0,4.48 -0.15,8.12 -0.32,8.12 -0.17,0 -0.32,-3.64 -0.32,-8.12 0,-4.48 0.14,-8.12 0.32,-8.12 z"
       style="fill:#fafafa"
       id="path53" />
    <path
       d="m 154.38,434 c 0.18,0 0.32,3.7 0.32,8.27 0,4.57 -0.14,8.28 -0.32,8.28 -0.18,0 -0.31,-3.7 -0.31,-8.28 0,-4.58 0.14,-8.27 0.31,-8.27 z"
       style="fill:#fafafa"
       id="path54" />
    <path
       d="m 164.48,434.14 c 0,0.18 -13.15,0.32 -29.35,0.32 -16.2,0 -29.36,-0.14 -29.36,-0.32 0,-0.18 13.14,-0.32 29.36,-0.32 16.22,0 29.35,0.18 29.35,0.32 z"
       style="fill:#fafafa"
       id="path55" />
    <rect
       x="52.16"
       y="54.959999"
       width="80.260002"
       height="83.660004"
       style="fill:#e0e0e0"
       id="rect55" />
    <rect
       x="46.720001"
       y="54.959999"
       width="80.260002"
       height="83.660004"
       style="fill:#fafafa"
       id="rect56" />
    <path
       d="M 127,138.65 H 46.7 V 54.94 H 127 Z M 46.74,138.6 H 127 V 55 H 46.75 Z"
       style="fill:#e0e0e0"
       id="path56" />
    <rect
       x="57.509998"
       y="66.209999"
       width="58.68"
       height="61.169998"
       style="fill:#ffffff"
       id="rect57" />
    <path
       d="m 57.51,127.79 a 9.62,9.62 0 0 1 -1.45,1.68 c -0.93,1 -2.25,2.33 -3.73,3.78 -1.48,1.45 -2.83,2.75 -3.83,3.67 a 8.83,8.83 0 0 1 -1.7,1.41 9.39,9.39 0 0 1 1.45,-1.67 c 0.93,-1 2.25,-2.34 3.73,-3.79 1.48,-1.45 2.84,-2.76 3.84,-3.68 a 8.87,8.87 0 0 1 1.69,-1.4 z"
       style="fill:#e0e0e0"
       id="path57" />
    <path
       d="m 116.19,127.63 a 10.13,10.13 0 0 1 1.69,1.45 c 1,0.94 2.32,2.26 3.78,3.73 1.46,1.47 2.75,2.84 3.67,3.84 a 9.38,9.38 0 0 1 1.41,1.69 9.23,9.23 0 0 1 -1.68,-1.44 c -1,-0.93 -2.33,-2.26 -3.79,-3.74 -1.46,-1.48 -2.75,-2.84 -3.67,-3.84 a 9.38,9.38 0 0 1 -1.41,-1.69 z"
       style="fill:#e0e0e0"
       id="path58" />
    <path
       d="m 116,66.37 a 10.21,10.21 0 0 1 1.45,-1.68 c 0.94,-1 2.25,-2.33 3.73,-3.78 1.48,-1.45 2.82,-2.75 3.82,-3.67 a 8.71,8.71 0 0 1 1.7,-1.41 9.42,9.42 0 0 1 -1.44,1.67 c -0.94,1 -2.26,2.33 -3.74,3.79 -1.48,1.46 -2.84,2.76 -3.84,3.68 a 8.52,8.52 0 0 1 -1.68,1.4 z"
       style="fill:#e0e0e0"
       id="path59" />
    <path
       d="m 57.35,66.52 a 9.62,9.62 0 0 1 -1.68,-1.45 c -1,-0.93 -2.33,-2.25 -3.78,-3.73 -1.45,-1.48 -2.75,-2.83 -3.67,-3.83 a 8.86,8.86 0 0 1 -1.41,-1.69 8.9,8.9 0 0 1 1.67,1.44 c 1,0.93 2.33,2.25 3.79,3.73 1.46,1.48 2.73,2.84 3.73,3.84 a 9.26,9.26 0 0 1 1.35,1.69 z"
       style="fill:#e0e0e0"
       id="path60" />
    <path
       d="m 116,127.38 c 0,0 0,-0.11 0,-0.3 0,-0.19 0,-0.49 0,-0.85 q 0,-1.16 0,-3.3 c 0,-2.9 0,-7.12 -0.06,-12.47 0,-10.71 -0.07,-26 -0.11,-44.25 l 0.22,0.23 H 57.54 v 0 l 0.26,-0.26 c 0,22.45 0,43.45 0,61.17 l -0.23,-0.22 42.37,0.11 11.91,0.06 h 3.15 0.81 -0.81 -3.1 l -11.85,0.06 -42.52,0.11 h -0.22 v -0.22 c 0,-17.72 0,-38.72 0,-61.17 V 66 h 0.27 58.42 0.23 v 0.23 c -0.05,18.33 -0.09,33.65 -0.12,44.39 0,5.33 0,9.53 -0.06,12.42 0,1.41 0,2.5 0,3.26 0,0.35 0,0.62 0,0.83 a 1.39,1.39 0 0 1 -0.05,0.25 z"
       style="fill:#e0e0e0"
       id="path61" />
    <rect
       x="77.059998"
       y="87"
       width="19.58"
       height="19.58"
       style="fill:#ebebeb"
       id="rect61" />
    <rect
       x="325.81"
       y="37.02"
       width="116.62"
       height="169.03"
       style="fill:#e0e0e0"
       id="rect62" />
    <rect
       x="319.95999"
       y="37.02"
       width="116.62"
       height="169.03"
       style="fill:#f5f5f5"
       id="rect63" />
    <rect
       x="334.45001"
       y="55.32"
       width="87.639999"
       height="132.42"
       style="fill:#ffffff"
       id="rect64" />
    <path
       d="m 422.09,187.74 c 0,0 0,-0.23 0,-0.65 0,-0.42 0,-1.06 0,-1.88 0,-1.66 0,-4.1 0,-7.26 0,-6.35 0,-15.59 -0.08,-27.28 0,-23.35 -0.08,-56.41 -0.14,-95.35 l 0.29,0.29 h -87.63 v 0 l 0.32,-0.32 c 0,49.95 0,96 -0.07,132.42 l -0.25,-0.25 63.79,0.13 17.63,0.06 h 4.62 1.6 -1.55 -4.57 l -17.57,0.07 -63.95,0.13 h -0.25 v -0.25 c 0,-36.41 0,-82.47 -0.07,-132.42 V 55 h 0.33 87.63 0.29 v 0.29 c -0.06,39 -0.11,72.15 -0.14,95.54 0,11.66 -0.06,20.88 -0.08,27.21 0,3.14 0,5.56 0,7.21 0,0.8 0,1.42 0,1.84 0,0.42 -0.15,0.65 -0.15,0.65 z"
       style="fill:#e0e0e0"
       id="path64" />
    <path
       d="m 436.91,37 a 22.47,22.47 0 0 1 -2.08,3 c -1.36,1.81 -3.28,4.27 -5.47,6.94 -2.19,2.67 -4.25,5 -5.77,6.7 a 20.75,20.75 0 0 1 -2.59,2.65 21.76,21.76 0 0 1 2.22,-2.91 c 1.57,-1.89 3.49,-4.23 5.62,-6.81 l 5.61,-6.81 A 20.82,20.82 0 0 1 436.91,37 Z"
       style="fill:#e0e0e0"
       id="path65" />
    <path
       d="m 422.54,187.31 a 108.7,108.7 0 0 0 15.28,19.12"
       style="fill:#ffffff"
       id="path66" />
    <path
       d="m 437.82,206.43 a 17.74,17.74 0 0 1 -2.66,-2.43 84.27,84.27 0 0 1 -10.84,-13.56 17.11,17.11 0 0 1 -1.78,-3.13 24.79,24.79 0 0 1 2.15,2.88 c 1.28,1.81 3.09,4.28 5.2,6.91 2.11,2.63 4.12,5 5.59,6.6 a 22.89,22.89 0 0 1 2.34,2.73 z"
       style="fill:#e0e0e0"
       id="path67" />
    <path
       d="m 320,205.91 15.27,-18.84"
       style="fill:#ffffff"
       id="path68" />
    <path
       d="m 335.22,187.07 c 0.14,0.11 -3.17,4.41 -7.39,9.62 -4.22,5.21 -7.75,9.33 -7.88,9.22 -0.13,-0.11 3.17,-4.42 7.39,-9.62 4.22,-5.2 7.75,-9.29 7.88,-9.22 z"
       style="fill:#e0e0e0"
       id="path69" />
    <path
       d="m 320,37 c 0.14,-0.11 3.46,3.85 7.42,8.86 3.96,5.01 7.05,9.15 6.91,9.26 A 109.65,109.65 0 0 1 326.92,46.25 108.61,108.61 0 0 1 320,37 Z"
       style="fill:#e0e0e0"
       id="path70" />
    <rect
       x="365.44"
       y="82.209999"
       width="29.34"
       height="83.32"
       style="fill:#e0e0e0"
       id="rect70" />
  </g>
  <g
     id="freepik--Plant--inject-11"
     transform="translate(-40,-36.997763)">
    <path
       d="m 374.24,383 c -0.1,0.11 -0.89,-0.36 -1.78,-1.07 -0.89,-0.71 -1.52,-1.38 -1.43,-1.5 0.09,-0.12 0.89,0.36 1.78,1.07 0.89,0.71 1.52,1.36 1.43,1.5 z"
       style="fill:#263238"
       id="path71" />
    <path
       d="m 398.36,346.91 c 0.15,-3.37 0.24,-6.82 -0.82,-10 -1.06,-3.18 -3.53,-6.15 -6.83,-6.83 -3.77,-0.78 -7.63,1.6 -9.75,4.82 -2.12,3.22 -2.83,7.12 -3.46,10.92 a 386.21,386.21 0 0 0 -4.73,79.29 l 15.43,2.16 c 6.8,-27.7 8.93,-51.89 10.16,-80.36 z"
       style="fill:#455a64"
       id="path72" />
    <path
       d="m 388.57,329.94 c 0,0 0,0.09 -0.07,0.25 -0.07,0.16 -0.16,0.41 -0.26,0.7 -0.25,0.65 -0.59,1.54 -1,2.66 -0.21,0.58 -0.5,1.21 -0.73,1.93 l -0.75,2.33 c -0.27,0.84 -0.55,1.74 -0.86,2.69 l -0.8,3.05 a 135,135 0 0 0 -3,15.27 c -0.83,5.8 -1.38,12.22 -1.81,19 -0.79,13.52 -0.91,25.78 -1.26,34.65 -0.16,4.44 -0.31,8 -0.48,10.51 -0.09,1.2 -0.15,2.15 -0.2,2.85 l -0.06,0.74 a 1,1 0 0 1 0,0.25 0.72,0.72 0 0 1 0,-0.25 c 0,-0.2 0,-0.45 0,-0.75 q 0,-1.05 0.09,-2.85 c 0.11,-2.48 0.2,-6.07 0.31,-10.51 0.25,-8.87 0.31,-21.13 1.1,-34.67 0.43,-6.76 1,-13.2 1.86,-19 a 126.88,126.88 0 0 1 3.11,-15.3 l 0.83,-3.05 0.91,-2.68 0.8,-2.33 c 0.24,-0.72 0.54,-1.34 0.77,-1.92 0.48,-1.11 0.85,-2 1.13,-2.63 l 0.3,-0.68 a 1,1 0 0 1 0.07,-0.26 z"
       style="fill:#263238"
       id="path73" />
    <path
       d="m 390,330 a 11,11 0 0 1 1.89,3.19 23.65,23.65 0 0 1 1.41,10 c -0.41,8.52 -1.18,20.26 -2.19,33.23 -1.01,12.97 -2.11,24.58 -3.11,33.1 -0.46,4.23 -0.85,7.66 -1.14,10 -0.15,1.14 -0.27,2.05 -0.35,2.72 0,0.28 -0.08,0.51 -0.11,0.7 a 0.68,0.68 0 0 1 -0.05,0.24 0.73,0.73 0 0 1 0,-0.24 l 0.05,-0.71 c 0.06,-0.68 0.14,-1.59 0.25,-2.74 0.23,-2.42 0.56,-5.84 1,-10 0.81,-8.48 1.88,-20.21 2.9,-33.17 1.02,-12.96 1.84,-24.71 2.35,-33.21 A 24,24 0 0 0 391.68,333.23 19.5,19.5 0 0 0 390,330 Z"
       style="fill:#263238"
       id="path74" />
    <path
       d="m 400.69,369.87 a 8.6,8.6 0 0 1 -2.92,-0.76 8.51,8.51 0 0 1 -2.74,-1.27 8.18,8.18 0 0 1 2.92,0.75 8.3,8.3 0 0 1 2.74,1.28 z"
       style="fill:#263238"
       id="path75" />
    <path
       d="m 402.55,354.15 a 18.72,18.72 0 0 1 -5.79,2.59 18.12,18.12 0 0 1 5.79,-2.59 z"
       style="fill:#263238"
       id="path76" />
    <path
       d="m 401.58,341.32 a 5.1,5.1 0 0 1 -2.3,0.12 c -1.26,-0.09 -2.27,-0.28 -2.26,-0.44 a 5,5 0 0 1 2.3,-0.11 4.91,4.91 0 0 1 2.26,0.43 z"
       style="fill:#263238"
       id="path77" />
    <path
       d="m 385.67,333.1 c -0.13,0.08 -0.81,-0.76 -1.51,-1.88 -0.7,-1.12 -1.17,-2.09 -1,-2.17 0.17,-0.08 0.8,0.76 1.5,1.88 0.7,1.12 1.14,2.07 1.01,2.17 z"
       style="fill:#263238"
       id="path78" />
    <path
       d="m 380.41,340.86 a 4.64,4.64 0 0 1 -2.19,0.22 4.51,4.51 0 0 1 -2.18,-0.32 4.66,4.66 0 0 1 2.19,-0.23 c 1.2,0.03 2.18,0.17 2.18,0.33 z"
       style="fill:#263238"
       id="path79" />
    <path
       d="m 376.63,356.38 a 5.31,5.31 0 0 1 -2.3,-0.63 c -1.22,-0.49 -2.16,-1 -2.1,-1.15 a 5.34,5.34 0 0 1 2.3,0.63 c 1.22,0.49 2.16,1.01 2.1,1.15 z"
       style="fill:#263238"
       id="path80" />
    <path
       d="m 376.23,369.43 c 0,0.15 -0.85,0.46 -2,0.7 -1.15,0.24 -2,0.3 -2.08,0.15 -0.08,-0.15 0.85,-0.46 2,-0.69 1.15,-0.23 2.05,-0.31 2.08,-0.16 z"
       style="fill:#263238"
       id="path81" />
    <path
       d="m 374.45,390.79 a 4.64,4.64 0 0 1 -2.08,0.65 c -1.18,0.21 -2.16,0.26 -2.18,0.11 -0.02,-0.15 0.9,-0.44 2.08,-0.65 a 4.5,4.5 0 0 1 2.18,-0.11 z"
       style="fill:#263238"
       id="path82" />
    <path
       d="m 373.27,402.57 c 0.07,0.14 -0.71,0.69 -1.74,1.23 -1.03,0.54 -1.92,0.88 -2,0.75 -0.08,-0.13 0.7,-0.69 1.74,-1.23 1.04,-0.54 1.93,-0.88 2,-0.75 z"
       style="fill:#263238"
       id="path83" />
    <path
       d="m 382.9,416 c -0.14,0.08 -0.81,-0.86 -1.52,-2.09 a 6.11,6.11 0 0 1 -1,-2.36 c 0.13,-0.08 0.81,0.86 1.51,2.09 a 6.42,6.42 0 0 1 1.01,2.36 z"
       style="fill:#263238"
       id="path84" />
    <path
       d="m 385.67,393.72 c 0.11,0.11 -0.65,1 -1.68,2 -1.03,1 -2,1.75 -2.08,1.64 -0.08,-0.11 0.65,-1 1.69,-2 1.04,-1 1.97,-1.75 2.07,-1.64 z"
       style="fill:#263238"
       id="path85" />
    <path
       d="m 385.06,382.05 c -0.11,0.11 -0.81,-0.47 -1.57,-1.28 -0.76,-0.81 -1.27,-1.55 -1.16,-1.66 0.11,-0.11 0.82,0.47 1.57,1.29 0.75,0.82 1.27,1.6 1.16,1.65 z"
       style="fill:#263238"
       id="path86" />
    <path
       d="m 387,367.15 c 0.11,0.1 -0.52,1 -1.41,2 -0.89,1 -1.7,1.72 -1.81,1.61 -0.11,-0.11 0.51,-1 1.4,-2 0.89,-1 1.67,-1.71 1.82,-1.61 z"
       style="fill:#263238"
       id="path87" />
    <path
       d="m 388,356.33 c -0.1,0.11 -1,-0.58 -2,-1.54 -1,-0.96 -1.68,-1.83 -1.57,-1.94 0.11,-0.11 1,0.59 2,1.55 1,0.96 1.72,1.82 1.57,1.93 z"
       style="fill:#263238"
       id="path88" />
    <path
       d="m 390.15,341.71 a 5.42,5.42 0 0 1 -1,2.19 c -0.68,1.13 -1.33,2 -1.46,1.9 a 5.47,5.47 0 0 1 1,-2.19 c 0.68,-1.13 1.31,-1.98 1.46,-1.9 z"
       style="fill:#263238"
       id="path89" />
    <path
       d="m 394.13,328.16 a 5.37,5.37 0 0 1 -0.87,2.19 c -0.62,1.14 -1.23,2 -1.36,1.93 a 5.32,5.32 0 0 1 0.87,-2.19 c 0.62,-1.09 1.23,-2 1.36,-1.93 z"
       style="fill:#263238"
       id="path90" />
    <path
       d="m 398.63,334.31 c 0.07,0.14 -0.55,0.57 -1.37,1 -0.82,0.43 -1.55,0.6 -1.62,0.46 -0.07,-0.14 0.55,-0.56 1.38,-1 0.83,-0.44 1.55,-0.59 1.61,-0.46 z"
       style="fill:#263238"
       id="path91" />
    <path
       d="m 398.74,383 a 6.32,6.32 0 0 1 -3,-0.73 6.16,6.16 0 0 1 -2.61,-1.68 16.1,16.1 0 0 1 2.83,1.17 14.38,14.38 0 0 1 2.78,1.24 z"
       style="fill:#263238"
       id="path92" />
    <path
       d="m 396.9,393.28 c 0,0.15 -0.9,0.46 -2.08,0.69 -1.18,0.23 -2.15,0.29 -2.17,0.14 -0.02,-0.15 0.9,-0.46 2.07,-0.69 a 4.75,4.75 0 0 1 2.18,-0.14 z"
       style="fill:#263238"
       id="path93" />
    <path
       d="m 394.64,411 a 6,6 0 0 1 -2.35,-2.06 6.06,6.06 0 0 1 -1.48,-2.76 17.48,17.48 0 0 1 1.91,2.41 18.49,18.49 0 0 1 1.92,2.41 z"
       style="fill:#263238"
       id="path94" />
    <path
       d="m 369.84,419 c -0.1,-0.11 0.53,-0.81 1.4,-1.56 0.87,-0.75 1.66,-1.25 1.76,-1.14 0.1,0.11 -0.53,0.81 -1.4,1.56 -0.87,0.75 -1.66,1.3 -1.76,1.14 z"
       style="fill:#263238"
       id="path95" />
    <path
       d="m 362.72,380.47 c -1,-3.14 -2.89,-6.79 -6.18,-6.84 a 5.45,5.45 0 0 0 -4.63,3.1 11.35,11.35 0 0 0 -1.25,5.67 148.14,148.14 0 0 0 7.07,41.09 h 12 a 142.92,142.92 0 0 0 -7.01,-43.02 z"
       style="fill:#455a64"
       id="path96" />
    <path
       d="m 340.94,360.73 c -1.69,-6.73 -6.71,-10.36 -12.54,-10.7 -5.32,0.93 -7.39,6.17 -8,11.54 -0.61,5.37 1,10.71 2.68,15.86 Q 331,402.21 338.91,427 l 15,-1.64 c -4.76,-22.13 -7.48,-42.66 -12.97,-64.63 z"
       style="fill:#455a64"
       id="path97" />
    <path
       d="m 356.54,373.63 a 11.47,11.47 0 0 0 -1,1.71 11.07,11.07 0 0 0 -0.57,5.32 c 0.24,2.29 0.5,5 0.88,8.07 0.38,3.07 0.94,6.34 1.62,9.79 1.36,6.92 2.89,13.13 3.87,17.66 0.49,2.26 0.86,4.09 1.1,5.37 0.1,0.58 0.18,1.07 0.25,1.47 a 1.83,1.83 0 0 1 0.05,0.52 2.1,2.1 0 0 1 -0.16,-0.5 c -0.1,-0.39 -0.21,-0.87 -0.35,-1.45 l -1.27,-5.33 c -1.07,-4.5 -2.67,-10.69 -4,-17.63 -0.67,-3.47 -1.21,-6.8 -1.57,-9.84 -0.19,-1.52 -0.32,-3 -0.44,-4.33 -0.12,-1.33 -0.26,-2.61 -0.33,-3.77 a 11,11 0 0 1 0.76,-5.44 4.78,4.78 0 0 1 1.16,-1.62 z"
       style="fill:#263238"
       id="path98" />
    <path
       d="m 328.62,349.6 a 20.1,20.1 0 0 0 -1.81,2.43 17.06,17.06 0 0 0 -2.29,7.84 36.33,36.33 0 0 0 1.86,12.06 c 1.31,4.46 2.76,9.36 4.27,14.49 l 7.67,26.36 c 0.95,3.34 1.71,6.06 2.27,8 0.24,0.9 0.44,1.63 0.58,2.18 a 4.06,4.06 0 0 1 0.17,0.77 3.94,3.94 0 0 1 -0.27,-0.74 c -0.18,-0.54 -0.4,-1.26 -0.69,-2.15 -0.59,-1.94 -1.42,-4.64 -2.43,-8 l -7.83,-26.31 c -1.5,-5.14 -2.93,-10 -4.23,-14.51 -1.3,-4.51 -2,-8.67 -1.75,-12.22 a 16.86,16.86 0 0 1 2.48,-7.93 9.37,9.37 0 0 1 2,-2.27 z"
       style="fill:#263238"
       id="path99" />
    <path
       d="m 350.63,423.77 a 3.47,3.47 0 0 1 -0.34,-0.72 c -0.2,-0.48 -0.52,-1.18 -0.86,-2.11 -0.71,-1.84 -1.63,-4.55 -2.57,-7.95 -0.94,-3.4 -1.89,-7.51 -2.79,-12.08 -0.9,-4.57 -1.83,-9.62 -2.83,-14.91 -1,-5.29 -2.2,-10.26 -3.54,-14.72 a 82.62,82.62 0 0 0 -4.37,-11.54 61.91,61.91 0 0 0 -4,-7.28 c -0.52,-0.84 -1,-1.44 -1.26,-1.88 a 3.41,3.41 0 0 1 -0.42,-0.68 5.07,5.07 0 0 1 0.51,0.61 c 0.3,0.42 0.8,1 1.35,1.83 a 56.1,56.1 0 0 1 4.21,7.23 79,79 0 0 1 4.5,11.57 145.91,145.91 0 0 1 3.6,14.76 c 1,5.28 1.93,10.32 2.78,14.91 0.85,4.59 1.77,8.67 2.67,12.08 0.9,3.41 1.76,6.12 2.41,8 0.3,0.94 0.59,1.65 0.75,2.14 a 6,6 0 0 1 0.2,0.74 z"
       style="fill:#263238"
       id="path100" />
    <path
       d="m 323.33,375 c 0,0.15 -0.78,0.47 -1.82,0.73 -1.04,0.26 -1.92,0.33 -1.95,0.19 -0.03,-0.14 0.78,-0.48 1.82,-0.73 1.04,-0.25 1.91,-0.39 1.95,-0.19 z"
       style="fill:#263238"
       id="path101" />
    <path
       d="m 321.74,364.73 a 19,19 0 0 1 -5.07,0.2 8.65,8.65 0 0 1 5.07,-0.2 z"
       style="fill:#263238"
       id="path102" />
    <path
       d="m 323.43,355.39 c -0.1,0.11 -0.91,-0.41 -1.82,-1.18 -0.91,-0.77 -1.56,-1.49 -1.46,-1.6 0.1,-0.11 0.91,0.41 1.82,1.18 0.91,0.77 1.56,1.48 1.46,1.6 z"
       style="fill:#263238"
       id="path103" />
    <path
       d="m 328,346.74 c 0.15,0 0.11,0.76 0.08,1.65 -0.03,0.89 0,1.61 -0.18,1.63 -0.18,0.02 -0.4,-0.71 -0.37,-1.65 0.03,-0.94 0.32,-1.66 0.47,-1.63 z"
       style="fill:#263238"
       id="path104" />
    <path
       d="m 337.34,350.82 c 0.12,0.08 -0.24,0.82 -0.82,1.64 -0.58,0.82 -1.14,1.42 -1.27,1.34 -0.13,-0.08 0.24,-0.83 0.82,-1.65 0.58,-0.82 1.14,-1.42 1.27,-1.33 z"
       style="fill:#263238"
       id="path105" />
    <path
       d="m 343.4,361.34 c 0.05,0.15 -0.72,0.6 -1.74,1 -1.02,0.4 -1.88,0.63 -1.94,0.49 -0.06,-0.14 0.72,-0.59 1.74,-1 1.02,-0.41 1.88,-0.63 1.94,-0.49 z"
       style="fill:#263238"
       id="path106" />
    <path
       d="m 347.07,372.18 a 6.94,6.94 0 0 1 -5,1.12 10.37,10.37 0 0 1 2.47,-0.62 9.22,9.22 0 0 1 2.53,-0.5 z"
       style="fill:#263238"
       id="path107" />
    <path
       d="m 330.19,369.1 c -0.14,0 0,-0.79 0.24,-1.67 0.24,-0.88 0.61,-1.55 0.76,-1.51 0.15,0.04 0,0.8 -0.24,1.67 -0.24,0.87 -0.61,1.56 -0.76,1.51 z"
       style="fill:#263238"
       id="path108" />
    <path
       d="m 332.55,382.7 a 5.09,5.09 0 0 1 0.68,-2.25 c 0.51,-1.18 1,-2.09 1.18,-2 a 5.09,5.09 0 0 1 -0.68,2.25 c -0.51,1.15 -1.04,2.06 -1.18,2 z"
       style="fill:#263238"
       id="path109" />
    <path
       d="m 326.73,386.42 c -0.06,0.15 -1,-0.11 -2.16,-0.47 -1.16,-0.36 -2.07,-0.69 -2,-0.84 0.07,-0.15 1,-0.05 2.21,0.31 1.21,0.36 2.01,0.87 1.95,1 z"
       style="fill:#263238"
       id="path110" />
    <path
       d="m 330.08,397.51 c 0.09,0.13 -0.55,0.74 -1.43,1.36 -0.88,0.62 -1.66,1 -1.75,0.92 -0.09,-0.08 0.55,-0.74 1.43,-1.36 0.88,-0.62 1.67,-1.04 1.75,-0.92 z"
       style="fill:#263238"
       id="path111" />
    <path
       d="m 332.77,408.57 c 0,0.15 -0.75,0.47 -1.77,0.71 -1.02,0.24 -1.87,0.33 -1.9,0.18 -0.03,-0.15 0.76,-0.46 1.77,-0.71 1.01,-0.25 1.87,-0.33 1.9,-0.18 z"
       style="fill:#263238"
       id="path112" />
    <path
       d="m 347.37,381.41 c 0.08,0.13 -0.6,0.67 -1.59,1 -0.99,0.33 -1.85,0.42 -1.88,0.27 -0.03,-0.15 0.75,-0.43 1.69,-0.78 0.94,-0.35 1.7,-0.62 1.78,-0.49 z"
       style="fill:#263238"
       id="path113" />
    <path
       d="m 349.46,398.61 c -0.07,0.14 -0.88,-0.1 -1.81,-0.54 -0.93,-0.44 -1.64,-0.91 -1.57,-1.05 0.07,-0.14 0.87,0.11 1.8,0.55 0.93,0.44 1.64,0.91 1.58,1.04 z"
       style="fill:#263238"
       id="path114" />
    <path
       d="m 353.14,410.92 a 5.64,5.64 0 0 1 -2.39,-0.64 c -1.26,-0.49 -2.24,-1 -2.18,-1.15 a 5.83,5.83 0 0 1 2.38,0.64 5.7,5.7 0 0 1 2.19,1.15 z"
       style="fill:#263238"
       id="path115" />
    <path
       d="m 333.36,420.56 c -0.07,-0.13 0.91,-0.79 2.05,-1.69 1.14,-0.9 2,-1.69 2.13,-1.58 0.13,0.11 -0.61,1.09 -1.79,2 a 4.83,4.83 0 0 1 -2.39,1.27 z"
       style="fill:#263238"
       id="path116" />
    <path
       d="m 343.1,414.31 c -0.16,0 -0.37,-0.81 -0.75,-1.77 -0.38,-0.96 -0.76,-1.72 -0.64,-1.81 0.12,-0.09 0.76,0.57 1.16,1.61 0.4,1.04 0.37,1.95 0.23,1.97 z"
       style="fill:#263238"
       id="path117" />
    <path
       d="m 340.52,399.5 c -0.09,0.13 -0.72,-0.17 -1.41,-0.67 -0.69,-0.5 -1.17,-1 -1.08,-1.11 0.09,-0.11 0.72,0.17 1.4,0.67 0.68,0.5 1.18,0.99 1.09,1.11 z"
       style="fill:#263238"
       id="path118" />
    <path
       d="m 363.2,376.31 c 0.09,0.12 -0.52,0.72 -1.37,1.35 -0.85,0.63 -1.6,1 -1.69,0.9 -0.09,-0.1 0.52,-0.72 1.37,-1.35 0.85,-0.63 1.6,-1.03 1.69,-0.9 z"
       style="fill:#263238"
       id="path119" />
    <path
       d="m 366.62,385.65 c 0,0.15 -0.94,0.35 -2.13,0.22 -1.19,-0.13 -2.08,-0.53 -2,-0.67 0.08,-0.14 1,0 2.09,0.12 1.09,0.12 2.03,0.18 2.04,0.33 z"
       style="fill:#263238"
       id="path120" />
    <path
       d="m 351.92,387.75 c 0,0.14 -0.85,0.46 -2,0.54 -1.15,0.08 -2.07,-0.12 -2.05,-0.27 0.02,-0.15 0.91,-0.21 2,-0.28 1.09,-0.07 2.02,-0.14 2.05,0.01 z"
       style="fill:#263238"
       id="path121" />
    <path
       d="m 353.19,378.91 c 0,0.15 -0.91,0.17 -1.89,-0.28 -0.98,-0.45 -1.55,-1.15 -1.45,-1.25 0.1,-0.1 0.78,0.34 1.68,0.75 0.9,0.41 1.68,0.63 1.66,0.78 z"
       style="fill:#263238"
       id="path122" />
    <path
       d="m 367.88,395.69 a 5,5 0 0 1 -2.05,-1 c -1.05,-0.66 -1.84,-1.3 -1.76,-1.43 0.08,-0.13 1,0.3 2.05,1 1.05,0.7 1.88,1.3 1.76,1.43 z"
       style="fill:#263238"
       id="path123" />
    <rect
       x="325.32999"
       y="421.92001"
       width="78.410004"
       height="13.9"
       style="fill:#193479"
       id="rect123" />
    <polygon
       points="387.45,474.58 397.89,433.06 331.19,433.06 340.72,474.58 "
       style="fill:#193479"
       id="polygon123" />
    <path
       d="m 403.7,435.83 c 0,0.15 -17.69,0.28 -39.5,0.28 -21.81,0 -39.5,-0.13 -39.5,-0.28 0,-0.15 17.68,-0.28 39.5,-0.28 21.82,0 39.5,0.13 39.5,0.28 z"
       style="fill:#263238"
       id="path124" />
    <path
       d="m 360.09,388.05 c -0.13,0.08 -0.66,-0.54 -1.19,-1.39 -0.53,-0.85 -0.86,-1.61 -0.73,-1.69 0.13,-0.08 0.66,0.54 1.19,1.39 0.53,0.85 0.86,1.64 0.73,1.69 z"
       style="fill:#263238"
       id="path125" />
    <path
       d="m 360.12,399.23 a 4.44,4.44 0 0 1 0.41,-2.11 c 0.37,-1.12 0.79,-2 0.94,-1.93 a 4.45,4.45 0 0 1 -0.41,2.11 c -0.37,1.11 -0.79,1.98 -0.94,1.93 z"
       style="fill:#263238"
       id="path126" />
    <path
       d="m 364,411 c -0.14,0.07 -0.72,-0.87 -1.31,-2.1 a 5.7,5.7 0 0 1 -0.81,-2.33 c 0.14,-0.06 0.72,0.87 1.31,2.1 A 5.7,5.7 0 0 1 364,411 Z"
       style="fill:#263238"
       id="path127" />
    <path
       d="m 355.67,420.41 c -0.12,-0.1 0.35,-0.82 1,-1.62 0.65,-0.8 1.35,-1.36 1.46,-1.26 0.11,0.1 -0.35,0.82 -1,1.62 -0.65,0.8 -1.35,1.36 -1.46,1.26 z"
       style="fill:#263238"
       id="path128" />
    <path
       d="m 353.93,403.27 c 0,0.15 -0.78,0.14 -1.68,0 -0.9,-0.14 -1.62,-0.41 -1.59,-0.56 0.03,-0.15 0.78,-0.14 1.68,0 0.9,0.14 1.66,0.41 1.59,0.56 z"
       style="fill:#263238"
       id="path129" />
  </g>
  <g
     id="freepik--speech-bubble--inject-11"
     transform="translate(-40,-36.997763)">
    <path
       d="m 169.69,124.69 -8.94,-15.76 a 42.26,42.26 0 1 0 -10.12,11.25 v 0 z"
       style="fill:#fafafa"
       id="path130" />
    <path
       d="m 169.69,124.69 -19.1,-4.36 h -0.19 l 0.12,-0.16 v 0 l 0.18,0.19 a 43.07,43.07 0 0 1 -8.67,5.22 42.36,42.36 0 0 1 -11.56,3.31 37.52,37.52 0 0 1 -6.67,0.33 c -1.15,-0.06 -2.32,-0.09 -3.5,-0.19 l -3.56,-0.54 a 42.52,42.52 0 0 1 -33.48,-33.2 43,43 0 0 1 0.5,-18.76 41.58,41.58 0 0 1 9,-17.34 l 1.72,-1.89 c 0.56,-0.64 1.24,-1.17 1.85,-1.75 0.61,-0.58 1.22,-1.18 1.92,-1.67 l 2,-1.51 a 18,18 0 0 1 2.09,-1.39 l 2.14,-1.3 2.24,-1.08 a 19.75,19.75 0 0 1 2.26,-1 43,43 0 0 1 18.9,-2.9 41.64,41.64 0 0 1 17.35,5.12 42.82,42.82 0 0 1 20,24.63 46,46 0 0 1 1.83,13.72 42,42 0 0 1 -6.3,20.91 v -0.13 l 8.83,15.82 -8.95,-15.77 v -0.07 -0.06 a 42.92,42.92 0 0 0 4.15,-9 42,42 0 0 0 2,-11.75 45.5,45.5 0 0 0 -1.86,-13.59 42.38,42.38 0 0 0 -19.86,-24.33 41.24,41.24 0 0 0 -17.15,-5 42.61,42.61 0 0 0 -18.67,2.8 20.32,20.32 0 0 0 -2.25,1 l -2.21,1.08 -2.11,1.28 a 19,19 0 0 0 -2.07,1.37 l -2,1.5 c -0.68,0.48 -1.25,1.1 -1.89,1.64 -0.64,0.54 -1.26,1.13 -1.82,1.72 l -1.7,1.87 a 41.11,41.11 0 0 0 -8.93,17.13 42.57,42.57 0 0 0 -0.51,18.53 41.61,41.61 0 0 0 7,16.11 42.22,42.22 0 0 0 26,16.79 l 3.53,0.54 c 1.17,0.1 2.33,0.14 3.47,0.2 a 36.87,36.87 0 0 0 6.61,-0.31 42.23,42.23 0 0 0 11.48,-3.22 43.65,43.65 0 0 0 8.65,-5.15 l 0.78,-0.6 -0.6,0.78 v 0 l -0.07,-0.2 z"
       style="fill:#263238"
       id="path131" />
    <path
       d="M 96.93,91.21 98,88.83 a 8,8 0 0 0 4.51,1.43 c 1.87,0 2.64,-0.63 2.64,-1.47 0,-2.56 -8,-0.8 -8,-5.88 0,-2.32 1.87,-4.25 5.76,-4.25 a 9.15,9.15 0 0 1 4.74,1.21 l -1,2.4 A 7.77,7.77 0 0 0 103,81.19 c -1.88,0 -2.6,0.71 -2.6,1.57 0,2.52 8,0.78 8,5.8 0,2.28 -1.89,4.24 -5.8,4.24 a 9.73,9.73 0 0 1 -5.67,-1.59 z"
       style="fill:#263238"
       id="path132" />
    <path
       d="m 109.47,87.31 c 0,-3.17 2.44,-5.41 5.78,-5.41 3.34,0 5.75,2.24 5.75,5.41 0,3.17 -2.42,5.41 -5.76,5.41 -3.34,0 -5.77,-2.25 -5.77,-5.41 z m 8.45,0 a 2.69,2.69 0 1 0 -2.67,2.91 2.65,2.65 0 0 0 2.67,-2.91 z"
       style="fill:#263238"
       id="path133" />
    <path
       d="m 129.56,81.9 v 2.81 c -0.25,0 -0.45,0 -0.68,0 a 2.59,2.59 0 0 0 -2.8,2.93 v 5 h -3 V 82.05 H 126 v 1.39 a 4.22,4.22 0 0 1 3.56,-1.54 z"
       style="fill:#263238"
       id="path134" />
    <path
       d="m 137.9,81.9 v 2.81 c -0.26,0 -0.45,0 -0.69,0 -1.68,0 -2.79,0.92 -2.79,2.93 v 5 h -3 V 82.05 h 2.91 v 1.39 a 4.25,4.25 0 0 1 3.57,-1.54 z"
       style="fill:#263238"
       id="path135" />
    <path
       d="m 150.51,82.05 -4.74,11.16 c -1,2.53 -2.47,3.3 -4.36,3.3 a 4.64,4.64 0 0 1 -2.93,-1 l 1.11,-2.17 a 2.73,2.73 0 0 0 1.72,0.67 c 0.84,0 1.31,-0.38 1.72,-1.31 v -0.1 l -4.55,-10.59 h 3.14 l 3,7.13 3,-7.13 z"
       style="fill:#263238"
       id="path136" />
    <path
       d="m 151.31,90.94 a 1.88,1.88 0 0 1 3.75,0 1.88,1.88 0 0 1 -3.75,0 z m 0.06,-12 H 155 l -0.61,8.93 H 152 Z"
       style="fill:#263238"
       id="path137" />
  </g>
  <g
     id="freepik--Character--inject-11"
     transform="translate(-40,-36.997763)">
    <polygon
       points="265.59,141.93 275.71,145.02 262.06,203.82 228.51,211.07 212.95,190.42 211.6,150.5 227.13,144.75 "
       style="fill:#ffbe9d"
       id="polygon137" />
    <path
       d="M 298.74,152.9 273.67,144 c 0,0 -23.51,33.63 -62.07,6.45 0,0 -16.91,6.08 -19.43,7.48 -2.52,1.4 11.76,44.13 11.76,44.13 l -1.68,53.13 c 22,11.35 57.2,7.13 87.84,2 l -0.88,-59 z"
       style="fill:#193479"
       id="path138" />
    <path
       d="M 289,104.7 A 9.31,9.31 0 0 0 275.2,92.4 l -5,8.87 A 24.16,24.16 0 0 0 264.87,113 17.34,17.34 0 0 0 267.78,125.43 15,15 0 1 0 289,104.7 Z"
       style="fill:#263238"
       id="path139" />
    <path
       d="m 276,105.39 c -0.15,-3 -0.47,-6 0.38,-8.91 a 12.26,12.26 0 0 0 0.82,-3.27 4,4 0 0 0 -7.06,-2.54 L 270,91 c -1.73,1.4 -2.56,3.61 -3.24,5.73 a 89.46,89.46 0 0 0 -2.56,10.07 16,16 0 0 0 -0.33,5.8 6.18,6.18 0 0 0 3.19,4.61 c 2.72,1.26 6.08,-0.48 7.57,-3.07 1.49,-2.59 1.55,-5.77 1.37,-8.75 z"
       style="fill:#193479"
       id="path140" />
    <path
       d="m 272.3,95.11 c -0.57,-3.4 -2.05,-6.6 -2.57,-10 -0.68,-4.47 0.33,-9 0.58,-13.52 0.25,-4.52 -0.46,-9.49 -3.77,-12.57 -3.53,-3.29 -8.84,-3.44 -13.59,-4.3 -5.4,-1 -10.52,-3.11 -15.83,-4.52 -5.31,-1.41 -11.06,-2.08 -16.2,-0.15 -4.65,1.74 -8.29,5.39 -11.58,9.1 C 204,65.16 199,72.28 199,80.32 c 0,4.17 1.47,8.21 2,12.35 0.51,4 0.19,8 1.12,12 0.93,4 3.57,7.8 7.51,8.52 l 43.22,4.32 a 19.19,19.19 0 0 0 19.45,-22.4 z"
       style="fill:#263238"
       id="path141" />
    <path
       d="m 260.54,73.91 -0.11,-5.29 -32,-4.75 c -9.82,-0.64 -20,9.6 -20.22,19.44 -0.24,10.93 -0.11,24.29 1.51,32.38 3.26,16.26 15.89,17.83 15.89,17.83 v 9.24 a 18.58,18.58 0 0 0 18.57,18.56 v 0 a 18.57,18.57 0 0 0 18.56,-19.17 z"
       style="fill:#ffbe9d"
       id="path142" />
    <path
       d="m 215,94.21 a 2.11,2.11 0 0 0 2.11,2 2,2 0 0 0 2.09,-2 2.11,2.11 0 0 0 -2.11,-2 2,2 0 0 0 -2.09,2 z"
       style="fill:#263238"
       id="path143" />
    <path
       d="m 212,90.12 c 0.27,0.26 1.82,-1 4.07,-1.06 2.25,-0.06 4,1 4.2,0.69 0.11,-0.13 -0.17,-0.61 -0.92,-1.11 a 5.81,5.81 0 0 0 -3.37,-0.89 5.48,5.48 0 0 0 -3.22,1.19 c -0.7,0.56 -0.91,1.06 -0.76,1.18 z"
       style="fill:#263238"
       id="path144" />
    <path
       d="m 236.37,93.49 a 2.11,2.11 0 0 0 2.11,2 2,2 0 0 0 2.09,-2 2.11,2.11 0 0 0 -2.11,-2 2,2 0 0 0 -2.09,2 z"
       style="fill:#263238"
       id="path145" />
    <path
       d="m 234.2,89.64 c 0.27,0.26 1.81,-1 4.07,-1.06 2.26,-0.06 4,1 4.19,0.69 0.12,-0.13 -0.16,-0.61 -0.91,-1.11 a 5.81,5.81 0 0 0 -3.37,-0.89 5.49,5.49 0 0 0 -3.18,1.19 c -0.72,0.54 -0.93,1.06 -0.8,1.18 z"
       style="fill:#263238"
       id="path146" />
    <path
       d="m 226.68,106.72 a 15,15 0 0 0 -3.69,-0.51 c -0.58,0 -1.13,-0.13 -1.25,-0.52 a 3,3 0 0 1 0.32,-1.72 c 0.49,-1.42 1,-2.91 1.53,-4.46 2.11,-6.35 3.62,-11.51 3.41,-11.65 -0.21,-0.14 -2.18,5 -4.29,11.35 -0.51,1.56 -1,3.05 -1.46,4.48 A 3.36,3.36 0 0 0 221,106 a 1.44,1.44 0 0 0 1,0.8 4,4 0 0 0 1,0.1 14.47,14.47 0 0 0 3.68,-0.18 z"
       style="fill:#263238"
       id="path147" />
    <path
       d="m 225.65,133.56 a 43.32,43.32 0 0 0 22.23,-6.79 c 0,0 -5.23,11.73 -22.23,10.91 z"
       style="fill:#eb996e"
       id="path148" />
    <path
       d="m 227.86,112.13 a 4,4 0 0 1 3.58,-1.66 3.68,3.68 0 0 1 2.63,1.27 2.36,2.36 0 0 1 0.28,2.68 2.74,2.74 0 0 1 -2.93,0.87 8.5,8.5 0 0 1 -2.95,-1.6 2.63,2.63 0 0 1 -0.68,-0.65 0.78,0.78 0 0 1 0,-0.84"
       style="fill:#eb996e"
       id="path149" />
    <path
       d="m 244.62,82.93 c -0.13,-0.64 -2.41,-0.68 -5,-1.38 -2.59,-0.7 -4.6,-1.73 -5,-1.23 -0.19,0.23 0.09,0.86 0.86,1.57 a 9,9 0 0 0 7.63,2 c 1.01,-0.25 1.56,-0.66 1.51,-0.96 z"
       style="fill:#263238"
       id="path150" />
    <path
       d="m 218.49,81.3 c -0.71,-0.21 -2.33,1.22 -4.55,2.4 -2.22,1.18 -4.3,1.82 -4.49,2.52 -0.07,0.33 0.46,0.63 1.51,0.64 a 9,9 0 0 0 4.11,-1.17 8.72,8.72 0 0 0 3.18,-2.79 c 0.55,-0.9 0.57,-1.48 0.24,-1.6 z"
       style="fill:#263238"
       id="path151" />
    <path
       d="m 254.57,58.3 -24.68,1.94 -20.45,7.05 c 2.63,5.73 3.13,10.44 9.41,11 a 18.49,18.49 0 0 0 16.46,-7.41 c 1.06,4.64 6.29,7 11,7.66 a 18.74,18.74 0 0 0 9.94,-0.9 c 3.09,-1.32 5.71,-4.1 6.13,-7.44 0.42,-3.34 -4.49,-11.35 -7.81,-11.9 z"
       style="fill:#263238"
       id="path152" />
    <path
       d="m 274.12,74.7 a 12,12 0 0 0 -6.34,-5.54 l -0.63,-4.79 -18.29,5.77 C 244.53,77 246.51,87 253.19,91.81 l 0.08,3.47 a 21.44,21.44 0 0 0 2.92,10.34 v 0 l 5.8,12.63 c 4.26,0.1 5.23,-4.51 6.92,-8.28 1.69,-3.77 1.71,-8 1.56,-12.14 q -0.11,-3 -0.31,-6 c 1.3,-2.2 3.15,-4.25 4.24,-6.59 A 12,12 0 0 0 274.12,74.7 Z"
       style="fill:#263238"
       id="path153" />
    <path
       d="m 255.71,96.34 c 0.25,-0.13 10,-4 10.59,6.26 0.59,10.26 -9.79,8.74 -9.82,8.45 -0.03,-0.29 -0.77,-14.71 -0.77,-14.71 z"
       style="fill:#ffbe9d"
       id="path154" />
    <path
       d="m 259.37,107 c 0,0 0.19,0.12 0.5,0.24 a 1.77,1.77 0 0 0 1.33,-0.06 c 1.06,-0.46 1.87,-2.23 1.8,-4.08 a 5.84,5.84 0 0 0 -0.65,-2.52 2.06,2.06 0 0 0 -1.42,-1.29 0.91,0.91 0 0 0 -1,0.55 c -0.12,0.3 -0.05,0.5 -0.1,0.52 -0.05,0.02 -0.23,-0.16 -0.17,-0.59 a 1.12,1.12 0 0 1 0.36,-0.66 1.33,1.33 0 0 1 1,-0.32 2.51,2.51 0 0 1 2,1.47 6.11,6.11 0 0 1 0.79,2.82 c 0.06,2.07 -0.88,4.06 -2.34,4.57 a 1.87,1.87 0 0 1 -1.64,-0.17 C 259.4,107.23 259.34,107 259.37,107 Z"
       style="fill:#eb996e"
       id="path155" />
    <path
       d="m 273.05,73.48 c 0.16,0 0.26,0.51 0.1,1.34 a 7.23,7.23 0 0 1 -1.65,3.18 8.5,8.5 0 0 1 -4.68,2.74 c -2.12,0.45 -4.24,0 -6,0.19 a 14.73,14.73 0 0 0 -2.74,0.67 c -0.48,0.14 -1,0.28 -1.5,0.39 -0.5,0.11 -1,0.19 -1.48,0.25 a 11.29,11.29 0 0 1 -5.25,-0.43 6.89,6.89 0 0 1 -3,-2 c -0.54,-0.65 -0.68,-1.11 -0.56,-1.22 0.3,-0.3 1.56,1 4,1.43 a 11.89,11.89 0 0 0 4.39,-0.17 c 0.42,-0.08 0.85,-0.18 1.28,-0.29 0.43,-0.11 0.85,-0.26 1.31,-0.42 a 15.19,15.19 0 0 1 3.23,-0.82 c 2.44,-0.21 4.36,0.29 5.88,0 a 7.74,7.74 0 0 0 3.8,-1.7 c 1.97,-1.55 2.48,-3.24 2.87,-3.14 z"
       style="fill:#ffffff"
       id="path156" />
    <path
       d="m 235.63,110.89 c 0.06,0.29 -1.94,0.9 -4.16,2.08 -2.22,1.18 -3.86,2.48 -4.07,2.26 -0.21,-0.22 1.19,-1.92 3.58,-3.18 2.39,-1.26 4.61,-1.43 4.65,-1.16 z"
       style="fill:#263238"
       id="path157" />
    <path
       d="m 237.42,112.45 c -0.14,-0.07 0.11,-0.78 -0.1,-1.63 -0.21,-0.85 -0.7,-1.4 -0.61,-1.51 0.09,-0.11 0.89,0.34 1.12,1.39 0.23,1.05 -0.3,1.84 -0.41,1.75 z"
       style="fill:#eb996e"
       id="path158" />
    <path
       d="m 242.17,95.92 c 0.12,0.06 -0.37,1 -1.53,1.56 -1.16,0.56 -2.21,0.32 -2.17,0.18 0.04,-0.14 0.95,-0.16 1.95,-0.65 1,-0.49 1.63,-1.18 1.75,-1.09 z"
       style="fill:#eb996e"
       id="path159" />
    <path
       d="m 243.12,96.71 c 0.12,0.08 -0.26,0.75 -1.07,1.19 -0.81,0.44 -1.57,0.4 -1.58,0.26 -0.01,-0.14 0.63,-0.33 1.33,-0.72 0.7,-0.39 1.2,-0.82 1.32,-0.73 z"
       style="fill:#eb996e"
       id="path160" />
    <path
       d="m 215.11,98.88 c 0,0.14 -0.56,0.23 -1.14,-0.07 -0.58,-0.3 -0.83,-0.8 -0.72,-0.89 0.11,-0.09 0.48,0.18 1,0.42 0.52,0.24 0.87,0.39 0.86,0.54 z"
       style="fill:#eb996e"
       id="path161" />
    <path
       d="m 215,100.09 c 0,0.14 -0.64,0.15 -1.32,-0.16 -0.68,-0.31 -1.09,-0.79 -1,-0.89 0.09,-0.1 0.6,0.14 1.21,0.42 0.61,0.28 1.16,0.54 1.11,0.63 z"
       style="fill:#eb996e"
       id="path162" />
    <path
       d="m 229.55,80.09 a 7.6,7.6 0 0 1 -8.27,0.82 19.07,19.07 0 0 0 4.21,0.3 19,19 0 0 0 4.06,-1.12 z"
       style="fill:#eb996e"
       id="path163" />
    <path
       d="m 230.52,81.14 a 3.22,3.22 0 0 1 -2.14,1.62 3.16,3.16 0 0 1 -2.68,-0.09 23.37,23.37 0 0 0 2.52,-0.41 c 1.34,-0.41 2.19,-1.26 2.3,-1.12 z"
       style="fill:#eb996e"
       id="path164" />
    <path
       d="m 212.61,74.83 c 0,0 -0.1,-0.09 -0.25,-0.29 a 5.38,5.38 0 0 1 -0.57,-0.94 8.65,8.65 0 0 1 -0.81,-3.93 c 0,-3.43 2,-8.11 6,-11.52 a 18.05,18.05 0 0 1 6.36,-3.57 18.25,18.25 0 0 1 5.89,-0.84 17,17 0 0 1 4,0.53 c 0.45,0.12 0.8,0.23 1,0.32 0.2,0.09 0.35,0.14 0.34,0.16 a 26.32,26.32 0 0 0 -5.36,-0.65 18.83,18.83 0 0 0 -5.75,0.94 18.12,18.12 0 0 0 -6.16,3.5 c -3.86,3.32 -5.86,7.83 -5.93,11.14 a 9,9 0 0 0 0.63,3.84 c 0.34,0.86 0.65,1.28 0.61,1.31 z"
       style="fill:#455a64"
       id="path165" />
    <path
       d="m 249.5,78.51 a 2.79,2.79 0 0 1 -0.87,-0.2 12.87,12.87 0 0 1 -2.22,-1 17.34,17.34 0 0 1 -5.89,-5.42 11,11 0 0 1 -1.44,-4.22 20.6,20.6 0 0 1 -0.21,-3.61 16.82,16.82 0 0 1 0.24,-2.42 2.77,2.77 0 0 1 0.22,-0.86 c 0.09,0 -0.12,1.26 -0.09,3.29 a 22.69,22.69 0 0 0 0.31,3.52 11.18,11.18 0 0 0 1.41,4 18.77,18.77 0 0 0 5.64,5.41 c 1.72,1.06 2.93,1.43 2.9,1.51 z"
       style="fill:#455a64"
       id="path166" />
    <path
       d="m 220.42,74.69 a 3.52,3.52 0 0 1 -0.32,-1 12.23,12.23 0 0 1 -0.27,-2.8 13.36,13.36 0 0 1 11.22,-13.13 11.8,11.8 0 0 1 2.81,-0.16 3.61,3.61 0 0 1 1,0.15 28.11,28.11 0 0 0 -3.77,0.37 13.55,13.55 0 0 0 -10.92,12.78 25.22,25.22 0 0 0 0.25,3.79 z"
       style="fill:#455a64"
       id="path167" />
    <path
       d="m 253.55,55.37 a 19.74,19.74 0 0 0 -6.44,0.15 19.54,19.54 0 0 0 -5.87,2.67 4.8,4.8 0 0 1 1.44,-1.3 12.67,12.67 0 0 1 9,-2.06 5.08,5.08 0 0 1 1.87,0.54 z"
       style="fill:#455a64"
       id="path168" />
    <path
       d="m 289.65,104.91 c -0.52,0.54 -3.14,-1.22 -6.72,-2.26 -3.58,-1.04 -6.72,-1.11 -6.85,-1.85 -0.05,-0.34 0.73,-0.81 2.13,-1.06 a 12.6,12.6 0 0 1 10.26,3.11 c 1.02,0.98 1.41,1.81 1.18,2.06 z"
       style="fill:#ffffff"
       id="path169" />
    <path
       d="m 288.08,107.58 c 0,0 0.45,-0.23 1.23,-0.68 a 10.63,10.63 0 0 0 2.85,-2.44 9.62,9.62 0 0 0 2.16,-5 9.4,9.4 0 0 0 -1.7,-6.4 9.23,9.23 0 0 0 -5.62,-3.59 13.26,13.26 0 0 0 -5.55,0 36.2,36.2 0 0 0 -4.95,1.58 5.82,5.82 0 0 1 1.24,-0.68 17.74,17.74 0 0 1 3.64,-1.26 13.09,13.09 0 0 1 5.72,-0.1 9.57,9.57 0 0 1 5.91,3.71 9.56,9.56 0 0 1 -0.61,12 10.08,10.08 0 0 1 -3,2.38 7.28,7.28 0 0 1 -1,0.41 1.48,1.48 0 0 1 -0.32,0.07 z"
       style="fill:#263238"
       id="path170" />
    <path
       d="m 205.4,257.6 c 0,0 -21.29,44.86 -21.08,65.51 0.14,13 18.34,151.36 18.34,151.36 h 38.78 l 3.15,-128.9 2.66,-3.56 1.66,4.06 c 0,0 -5.85,125.21 -4.48,128.4 h 43.35 c 0,0 13.78,-99.28 15.61,-114.32 1.83,-15.04 4,-22.24 3.06,-44.12 -0.94,-21.88 -16.28,-58.43 -16.28,-58.43 0,0 -58.79,9.57 -84.77,0 z"
       style="fill:#263238"
       id="path171" />
    <polygon
       points="214.14,272.51 217.06,260.05 207.36,257.9 203.76,270.28 "
       style="fill:#455a64"
       id="polygon171" />
    <path
       d="m 221,260.57 -2.1,11.94 a 200.37,200.37 0 0 0 24.46,1 c 12.17,-0.33 24.06,-1.35 29.39,-3.21 l -1.55,-10.65 c 0,0 -40.2,3.69 -50.2,0.92 z"
       style="fill:#455a64"
       id="path172" />
    <path
       d="m 276.39,259.05 2.57,10.5 c 0,0 8.3,-0.91 11.72,-2.91 l -2.86,-9.43 z"
       style="fill:#455a64"
       id="path173" />
    <path
       d="m 221,472.74 c -0.1,-2.86 -1.52,-44.06 -3.37,-97.86 -0.86,-27 -1.47,-51.52 -1.65,-69.24 0,-4.43 0,-8.44 -0.05,-12 -0.05,-3.56 0.06,-6.54 0.08,-9 0.02,-2.46 0.13,-4.38 0.17,-5.7 0,-0.64 0,-1.13 0.05,-1.49 0.05,-0.36 0,-0.5 0,-0.5 0,0 0,0.17 0,0.51 0,0.34 0,0.84 0,1.48 0,1.33 0,3.24 -0.07,5.7 -0.07,2.46 0,5.52 0,9 0,3.48 0.07,7.53 0.12,12 0.27,17.71 0.94,42.19 1.8,69.22 0.86,27.03 1.65,51.47 2.22,69.2 0.27,8.86 0.45,16 0.55,21 0,2.46 0.06,4.37 0.08,5.7 0,0.64 0,1.13 0,1.49 0,0.36 0.07,0.49 0.07,0.49 z"
       style="fill:#455a64"
       id="path174" />
    <path
       d="m 246.22,274.31 a 2.7,2.7 0 0 1 0.05,0.59 c 0,0.44 0,1 0,1.68 0,1.52 0,3.61 0.07,6.16 0.05,5.21 0.16,12.4 0.38,20.34 0.22,7.94 0.54,15.13 0.78,20.33 0.12,2.55 0.21,4.64 0.28,6.16 q 0,1 0.06,1.68 a 2.14,2.14 0 0 1 0,0.59 4.68,4.68 0 0 1 -0.09,-0.58 l -0.15,-1.68 c -0.13,-1.45 -0.28,-3.55 -0.45,-6.15 -0.33,-5.2 -0.7,-12.39 -0.93,-20.33 -0.23,-7.94 -0.22,-15.1 -0.22,-20.36 0,-2.6 0.05,-4.71 0.09,-6.17 l 0.06,-1.67 a 2.27,2.27 0 0 1 0.07,-0.59 z"
       style="fill:#455a64"
       id="path175" />
    <path
       d="m 247.86,331.84 a 6.41,6.41 0 0 1 -0.65,-0.11 l -1.85,-0.36 a 61.56,61.56 0 0 1 -6.76,-1.71 9.22,9.22 0 0 1 -2.14,-1 1.31,1.31 0 0 1 -0.46,-0.54 c -0.07,-0.21 -0.13,-0.41 -0.19,-0.61 a 10.7,10.7 0 0 1 -0.23,-1.28 c -0.2,-1.75 -0.09,-3.59 -0.11,-5.53 0,-3.89 0.05,-8.15 0.08,-12.62 0.09,-8.93 0.18,-17 0.24,-22.93 0.06,-2.89 0.11,-5.25 0.14,-6.95 q 0,-1.17 0.06,-1.89 a 2.89,2.89 0 0 1 0.06,-0.66 3.44,3.44 0 0 1 0,0.66 q 0,0.72 0,1.89 c 0,1.7 0,4.06 0,6.95 0,5.92 -0.06,14 -0.09,22.93 0,4.48 -0.08,8.74 -0.12,12.62 0,1.94 -0.11,3.79 0.06,5.48 a 9.87,9.87 0 0 0 0.21,1.23 c 0.05,0.19 0.1,0.39 0.16,0.57 a 1.05,1.05 0 0 0 0.32,0.36 8.73,8.73 0 0 0 2,0.95 c 2.75,0.95 5.08,1.45 6.67,1.86 l 1.83,0.46 a 2.22,2.22 0 0 1 0.77,0.23 z"
       style="fill:#455a64"
       id="path176" />
    <path
       d="m 269.49,472.74 c 0,0 0,-0.17 0,-0.51 0,-0.34 0.05,-0.87 0.09,-1.52 0.08,-1.35 0.21,-3.31 0.36,-5.82 0.37,-5.07 0.89,-12.37 1.54,-21.39 1.32,-18.05 3.16,-43 4.63,-70.58 1.47,-27.58 2,-52.61 1.41,-70.7 -0.09,-2.26 -0.19,-4.41 -0.28,-6.44 -0.09,-2.03 -0.15,-4 -0.33,-5.75 -0.32,-3.58 -0.49,-6.67 -0.81,-9.18 -0.32,-2.51 -0.61,-4.43 -0.8,-5.77 -0.08,-0.65 -0.15,-1.15 -0.19,-1.51 -0.04,-0.36 -0.05,-0.51 -0.05,-0.51 0,0 0,0.17 0.1,0.51 0.1,0.34 0.14,0.85 0.25,1.49 0.2,1.34 0.51,3.28 0.89,5.76 0.38,2.48 0.55,5.61 0.9,9.19 0.2,1.79 0.28,3.71 0.38,5.75 0.1,2.04 0.2,4.19 0.31,6.45 0.72,18.11 0.13,43.14 -1.26,70.74 -1.39,27.6 -3.37,52.53 -4.79,70.58 -0.71,9 -1.29,16.31 -1.69,21.38 -0.2,2.5 -0.36,4.46 -0.47,5.81 -0.06,0.65 -0.1,1.15 -0.13,1.51 -0.03,0.36 -0.06,0.51 -0.06,0.51 z"
       style="fill:#455a64"
       id="path177" />
    <path
       d="m 244.11,273.93 v 2.32 l 13.44,-0.52 a 1.64,1.64 0 0 0 1.58,-1.65 v -12.41 a 1.65,1.65 0 0 0 -1.65,-1.65 h -14.27 v 1.86 l 13.53,0.7 v 4.51 h -0.91 a 0.71,0.71 0 0 0 -0.73,0.71 v 0 a 0.71,0.71 0 0 0 0.69,0.7 h 1 v 4.5 z"
       style="fill:#e0e0e0"
       id="path178" />
    <rect
       x="232.53"
       y="260.85999"
       width="3.8"
       height="13"
       style="fill:#263238"
       id="rect178" />
    <path
       d="m 255.55,269.28 c -0.05,0.05 -0.26,0 -0.48,-0.35 a 2.18,2.18 0 0 1 -0.38,-1.36 2,2 0 0 1 0.56,-1.29 c 0.25,-0.27 0.47,-0.34 0.51,-0.29 0.04,0.05 -0.49,0.7 -0.55,1.62 -0.06,0.92 0.45,1.58 0.34,1.67 z"
       style="fill:#263238"
       id="path179" />
    <path
       d="m 244.75,266.64 c 0,0 0.07,-0.08 0.22,-0.07 a 0.69,0.69 0 0 1 0.49,0.35 1,1 0 0 1 0.06,0.92 1.06,1.06 0 0 1 -1,0.57 1,1 0 0 1 -0.85,-0.79 0.91,0.91 0 0 1 0.32,-0.86 c 0.43,-0.33 0.78,-0.17 0.75,-0.12 -0.03,0.05 -0.28,0.1 -0.49,0.38 a 0.52,0.52 0 0 0 -0.11,0.5 0.5,0.5 0 0 0 0.41,0.37 0.65,0.65 0 0 0 0.54,-0.28 0.67,0.67 0 0 0 0,-0.52 c -0.09,-0.34 -0.33,-0.38 -0.34,-0.45 z"
       style="fill:#263238"
       id="path180" />
    <path
       d="m 282.24,269.28 a 9.09,9.09 0 0 1 1,-1.91 c 0.37,-0.63 0.76,-1.3 1.18,-2 l 0.71,-1.18 a 9.1,9.1 0 0 0 0.7,-1.21 1.34,1.34 0 0 0 -0.2,-1.17 4.8,4.8 0 0 0 -1,-0.8 l -1.89,-1.35 a 9.19,9.19 0 0 1 -1.66,-1.36 8.5,8.5 0 0 1 1.87,1.05 l 1.95,1.27 0.56,0.37 a 2.13,2.13 0 0 1 0.58,0.52 1.87,1.87 0 0 1 0.28,1.63 3,3 0 0 1 -0.38,0.72 l -0.39,0.61 -0.74,1.16 -1.27,1.93 a 8.71,8.71 0 0 1 -1.3,1.72 z"
       style="fill:#263238"
       id="path181" />
    <path
       d="m 305,299.55 a 1.27,1.27 0 0 1 -0.35,0.19 5.42,5.42 0 0 1 -1.11,0.33 8.37,8.37 0 0 1 -4.19,-0.52 26,26 0 0 1 -5.5,-3 40.37,40.37 0 0 1 -15.61,-20 9.1,9.1 0 0 1 -0.43,-1.48 7.53,7.53 0 0 1 0.62,1.41 c 0.38,0.92 1,2.22 1.76,3.8 a 44.6,44.6 0 0 0 8.12,11.06 43.68,43.68 0 0 0 5.81,4.84 27.34,27.34 0 0 0 5.36,3 8.62,8.62 0 0 0 4,0.67 c 1.01,-0.11 1.52,-0.35 1.52,-0.3 z"
       style="fill:#455a64"
       id="path182" />
    <path
       d="m 207.42,279.29 a 13.57,13.57 0 0 1 -1.65,2.6 47.71,47.71 0 0 1 -10.46,10.45 14.1,14.1 0 0 1 -2.59,1.65 23.76,23.76 0 0 1 2.37,-1.94 64.9,64.9 0 0 0 10.39,-10.39 25.36,25.36 0 0 1 1.94,-2.37 z"
       style="fill:#455a64"
       id="path183" />
    <path
       d="m 242.31,178.87 -0.7,-33.39 c -0.34,-4.29 -4.05,-3.49 -4.05,-3.49 0,0 -0.24,11.84 -1.23,18.49 -0.99,6.65 -4.57,14 -4.69,15.49 -0.12,1.49 -0.58,14.15 -1,18.21 a 60.37,60.37 0 0 1 -2.55,10.08 l 9.51,7.31 2.89,-4.06 c 0,0 3.25,-2.32 4,-5.22 0.75,-2.9 -2.18,-23.42 -2.18,-23.42 z"
       style="fill:#ffbe9d"
       id="path184" />
    <path
       d="m 242.31,178.87 c 0,0 0.05,0.18 0.11,0.54 l 0.24,1.57 c 0.21,1.38 0.5,3.41 0.84,6 0.34,2.59 0.74,5.79 1.05,9.48 0.09,0.93 0.15,1.88 0.2,2.87 0,0.5 0.05,1 0,1.51 a 6.62,6.62 0 0 1 -0.16,1.58 8.35,8.35 0 0 1 -1.58,2.87 14.58,14.58 0 0 1 -2.46,2.37 v -0.05 l -2.88,4.07 -0.14,0.18 -0.18,-0.14 -9.52,-7.29 -0.13,-0.1 v -0.17 a 46.9,46.9 0 0 0 2.78,-13 c 0.31,-4.65 0.5,-9.46 0.74,-14.39 a 6.11,6.11 0 0 1 0.13,-1.25 c 0.11,-0.41 0.24,-0.79 0.37,-1.18 l 0.83,-2.25 c 0.56,-1.49 1.1,-3 1.59,-4.45 a 42.32,42.32 0 0 0 2,-8.86 c 0.66,-5.91 0.87,-11.57 1,-16.77 v -0.19 h 0.18 a 4,4 0 0 1 2.29,0.26 3.16,3.16 0 0 1 1.58,1.6 5.28,5.28 0 0 1 0.45,2.12 c 0,0.69 0,1.37 0,2.05 0,2.69 0.1,5.25 0.14,7.66 0.08,4.81 0.15,9 0.21,12.49 0.06,3.49 0.08,6.17 0.1,8.06 0,0.91 0,1.62 0,2.13 0,0.22 0,0.4 0,0.55 0,0.15 0,0.18 0,0.18 0,0 0,-0.06 0,-0.18 0,-0.12 0,-0.32 0,-0.54 0,-0.51 0,-1.22 -0.08,-2.13 -0.06,-1.89 -0.13,-4.61 -0.23,-8.05 -0.1,-3.44 -0.2,-7.68 -0.32,-12.49 0,-2.41 -0.11,-5 -0.18,-7.66 -0.08,-1.34 0.12,-2.79 -0.47,-4 a 2.64,2.64 0 0 0 -1.37,-1.38 3.52,3.52 0 0 0 -2,-0.22 l 0.18,-0.22 c -0.13,5.22 -0.32,10.87 -1,16.82 a 43.18,43.18 0 0 1 -2.05,9 c -0.49,1.49 -1,3 -1.59,4.46 l -0.83,2.25 c -0.13,0.37 -0.26,0.75 -0.35,1.12 a 5.2,5.2 0 0 0 -0.12,1.15 c -0.24,4.93 -0.43,9.75 -0.75,14.4 a 47.1,47.1 0 0 1 -2.83,13.17 l -0.08,-0.27 9.49,7.32 -0.31,0.05 2.9,-4.05 v 0 0 a 10.76,10.76 0 0 0 3.93,-5 6.67,6.67 0 0 0 0.15,-1.49 c 0,-0.5 0,-1 0,-1.49 0,-1 -0.1,-1.93 -0.17,-2.85 -0.29,-3.68 -0.66,-6.87 -0.95,-9.48 -0.29,-2.61 -0.56,-4.62 -0.73,-6 -0.08,-0.68 -0.14,-1.2 -0.19,-1.58 -0.05,-0.38 0.17,-0.71 0.17,-0.71 z"
       style="fill:#eb996e"
       id="path185" />
    <path
       d="m 241.65,148.45 a 12.91,12.91 0 0 0 -0.84,-1.1 4.72,4.72 0 0 0 -1.28,-0.9 1.46,1.46 0 0 0 -1.74,0.23 l 0.05,-0.16 c 0.13,1 0.33,2.2 0.43,3.48 0.1,1.28 0.13,2.65 0.09,4.08 a 55.55,55.55 0 0 1 -1.11,9 c -0.23,1.13 -0.43,2 -0.58,2.67 a 3.4,3.4 0 0 1 -0.29,1 32.56,32.56 0 0 1 0.5,-3.7 71.62,71.62 0 0 0 1,-8.91 c 0,-1.41 0,-2.76 -0.07,-4 -0.07,-1.24 -0.25,-2.42 -0.35,-3.46 v -0.09 l 0.05,-0.07 a 1.54,1.54 0 0 1 1.14,-0.52 2.25,2.25 0 0 1 1.06,0.26 4.26,4.26 0 0 1 1.31,1 3.94,3.94 0 0 1 0.57,0.9 c 0.05,0.16 0.08,0.29 0.06,0.29 z"
       style="fill:#eb996e"
       id="path186" />
    <path
       d="m 241.92,161.41 a 12.5,12.5 0 0 1 -0.24,-1.56 4,4 0 0 0 -0.59,-1.64 2.94,2.94 0 0 0 -1.93,-1 l 0.27,-0.2 c -0.06,1.9 -0.18,4.18 -0.42,6.61 -0.33,3.41 -0.82,6.49 -1.24,8.7 -0.22,1.1 -0.42,2 -0.57,2.6 a 3.39,3.39 0 0 1 -0.29,0.94 34.75,34.75 0 0 1 0.49,-3.61 c 0.34,-2.21 0.77,-5.28 1.09,-8.68 0.24,-2.42 0.39,-4.69 0.5,-6.58 v -0.26 l 0.26,0.05 a 3.28,3.28 0 0 1 2.13,1.24 4.21,4.21 0 0 1 0.55,1.8 5,5 0 0 1 -0.01,1.59 z"
       style="fill:#eb996e"
       id="path187" />
    <path
       d="m 237,179.46 c -0.09,0.11 -0.65,-0.31 -0.72,-1.1 -0.07,-0.79 0.39,-1.32 0.5,-1.22 0.11,0.1 -0.05,0.57 0,1.17 0.05,0.6 0.3,1.05 0.22,1.15 z"
       style="fill:#eb996e"
       id="path188" />
    <path
       d="m 235.47,171.22 c -0.13,0.05 -0.51,-0.7 -0.44,-1.72 0.07,-1.02 0.55,-1.71 0.67,-1.64 0.12,0.07 -0.1,0.78 -0.15,1.68 -0.05,0.9 0.06,1.63 -0.08,1.68 z"
       style="fill:#eb996e"
       id="path189" />
    <path
       d="m 255.83,197.82 c -0.75,-4 -2.1,-16.59 -2.32,-18.09 -0.22,-1.5 -4.3,-8.56 -5.76,-15.12 -1.46,-6.56 -2.53,-18.36 -2.53,-18.36 0,0 -3.75,-0.54 -3.8,3.77 l 1.65,33.35 c 0,0 -1.48,20.68 -0.51,23.52 0.97,2.84 4.38,4.92 4.38,4.92 l 3.17,3.84 9,-8 a 61.15,61.15 0 0 1 -3.28,-9.83 z"
       style="fill:#ffbe9d"
       id="path190" />
    <path
       d="m 255.83,197.82 c 0,0 0,0.05 0,0.16 0,0.11 0.07,0.3 0.12,0.5 0.12,0.45 0.28,1.1 0.54,2 a 75.69,75.69 0 0 0 2.66,7.22 v 0.08 l -0.07,0.07 -8.93,8 -0.15,0.13 -0.12,-0.15 -3.19,-3.83 h 0.05 a 14.69,14.69 0 0 1 -2.58,-2.12 8.17,8.17 0 0 1 -1.91,-3 17.17,17.17 0 0 1 -0.32,-3.64 c 0,-1.23 0,-2.48 0,-3.75 0.11,-5.08 0.41,-10.49 0.79,-16.16 v 0 c -0.28,-5.54 -0.57,-11.41 -0.87,-17.43 -0.19,-3.88 -0.38,-7.68 -0.56,-11.37 0,-0.93 -0.09,-1.84 -0.14,-2.75 a 14.86,14.86 0 0 1 0,-2.75 3.57,3.57 0 0 1 1.35,-2.43 3.88,3.88 0 0 1 2.66,-0.66 h 0.19 v 0.21 c 0.36,3.82 0.77,7.51 1.26,11 a 65.55,65.55 0 0 0 1.93,9.92 71.76,71.76 0 0 0 3.3,8.36 c 0.57,1.29 1.16,2.49 1.6,3.73 a 11.36,11.36 0 0 1 0.29,1.91 c 0.07,0.61 0.14,1.21 0.21,1.79 0.52,4.68 0.94,8.39 1.26,10.94 0.16,1.24 0.29,2.22 0.38,2.91 l 0.11,0.75 a 1,1 0 0 1 0,0.26 1.23,1.23 0 0 1 -0.07,-0.25 c 0,-0.19 -0.08,-0.44 -0.14,-0.75 -0.12,-0.66 -0.28,-1.63 -0.47,-2.9 -0.37,-2.54 -0.84,-6.25 -1.4,-10.92 -0.07,-0.58 -0.15,-1.18 -0.22,-1.79 a 13.58,13.58 0 0 0 -0.29,-1.84 c -0.43,-1.19 -1.05,-2.41 -1.62,-3.68 a 71.29,71.29 0 0 1 -3.37,-8.4 66.87,66.87 0 0 1 -2,-10 q -0.73,-5.3 -1.28,-11 l 0.21,0.22 a 3.42,3.42 0 0 0 -2.29,0.57 3.1,3.1 0 0 0 -1.15,2.11 14,14 0 0 0 0,2.66 c 0,0.9 0.09,1.82 0.13,2.74 0.19,3.7 0.38,7.5 0.57,11.37 0.3,6 0.58,11.88 0.86,17.42 v 0 0 c -0.39,5.65 -0.7,11.07 -0.83,16.13 0,1.27 -0.05,2.51 0,3.73 a 17.31,17.31 0 0 0 0.29,3.52 7.72,7.72 0 0 0 1.79,2.8 14.56,14.56 0 0 0 2.49,2.07 v 0 0 l 3.17,3.85 h -0.27 l 9,-7.91 v 0.15 a 67,67 0 0 1 -2.55,-7.28 c -0.24,-0.86 -0.39,-1.52 -0.47,-2 l -0.09,-0.51 c 0.14,0.05 0.13,-0.01 0.14,-0.01 z"
       style="fill:#eb996e"
       id="path191" />
    <path
       d="m 241.57,153.06 a 3.19,3.19 0 0 1 0.41,-0.91 6.18,6.18 0 0 1 0.64,-1 2.41,2.41 0 0 1 1.33,-0.93 1.59,1.59 0 0 1 1.71,1 6.56,6.56 0 0 1 0.17,2.2 c 0,1.5 0.08,3.15 0.24,4.87 a 81.36,81.36 0 0 0 1.38,8.75 31.21,31.21 0 0 1 0.71,3.62 4.27,4.27 0 0 1 -0.35,-0.93 c -0.18,-0.61 -0.44,-1.5 -0.72,-2.6 a 60.35,60.35 0 0 1 -1.54,-8.79 47.37,47.37 0 0 1 -0.2,-4.92 6.35,6.35 0 0 0 -0.09,-2 1.21,1.21 0 0 0 -1.24,-0.8 2.17,2.17 0 0 0 -1.17,0.76 7.45,7.45 0 0 0 -0.7,0.9 4.37,4.37 0 0 1 -0.58,0.78 z"
       style="fill:#eb996e"
       id="path192" />
    <path
       d="m 242.23,166.42 a 1.34,1.34 0 0 1 -0.08,-0.45 8.59,8.59 0 0 1 0,-1.28 5.38,5.38 0 0 1 0.47,-1.95 3.19,3.19 0 0 1 2,-1.73 l 0.25,-0.08 v 0.27 c 0.23,1.83 0.52,4 0.91,6.31 0.57,3.43 1.22,6.52 1.72,8.74 a 34.59,34.59 0 0 1 0.76,3.62 3.45,3.45 0 0 1 -0.36,-0.93 c -0.2,-0.61 -0.46,-1.49 -0.76,-2.6 -0.59,-2.21 -1.3,-5.29 -1.87,-8.74 -0.39,-2.32 -0.66,-4.5 -0.85,-6.35 l 0.29,0.19 a 2.82,2.82 0 0 0 -1.79,1.46 5.59,5.59 0 0 0 -0.54,1.82 c -0.12,1.07 -0.08,1.7 -0.15,1.7 z"
       style="fill:#eb996e"
       id="path193" />
    <path
       d="m 248.48,183.48 c -0.12,-0.09 0.11,-0.56 0.11,-1.16 0,-0.6 -0.18,-1.08 -0.06,-1.17 0.12,-0.09 0.6,0.38 0.58,1.18 -0.02,0.8 -0.54,1.26 -0.63,1.15 z"
       style="fill:#eb996e"
       id="path194" />
    <path
       d="m 249.39,175.16 c -0.15,0 -0.07,-0.79 -0.2,-1.68 -0.13,-0.89 -0.39,-1.59 -0.26,-1.66 0.13,-0.07 0.64,0.58 0.78,1.59 0.14,1.01 -0.19,1.79 -0.32,1.75 z"
       style="fill:#eb996e"
       id="path195" />
    <g
       style="opacity:0.3"
       id="g196">
      <path
         d="m 253.49,215.34 c -1.85,-2.14 -4.19,-4.29 -7,-4.27 -2.51,0 -4.65,1.75 -6.43,3.51 a 72.48,72.48 0 0 0 -13.87,20.12 c -3.59,7.35 -7.94,16.19 -10.67,23.9 6,-1.26 11.32,-5 15.37,-9.63 4.05,-4.63 7,-10.14 9.57,-15.71 0.9,-1.92 2.19,-4.15 4.31,-4.2 1.56,0 2.84,1.21 3.82,2.43 2.81,3.55 4.7,7.73 6.68,11.8 1.98,4.07 4.14,8.15 7.36,11.34 3.22,3.19 7.69,5.4 12.19,4.9 -5.14,-15.65 -10.53,-31.75 -21.33,-44.19 z"
         id="path196" />
    </g>
    <path
       d="m 192.17,158 c 0,0 -13.11,8.26 -13.5,24.53 -0.39,16.27 0.58,59.64 3.49,65.45 2.91,5.81 5,26.72 23.82,18 10.55,-4.89 22,-20.76 29.5,-34.08 a 144,144 0 0 0 9.12,-19.36 l -17.71,-11.42 -22.27,26.33 -0.69,-25.32 z"
       style="fill:#193479"
       id="path197" />
    <path
       d="m 204.62,227.42 c 0,0.09 -0.8,0.14 -2,0.48 a 13,13 0 0 0 -4.38,2.25 23.46,23.46 0 0 0 -3.54,3.51 12.57,12.57 0 0 1 -1.36,1.59 6.57,6.57 0 0 1 1.07,-1.81 17.78,17.78 0 0 1 3.51,-3.7 11.24,11.24 0 0 1 4.61,-2.19 5.15,5.15 0 0 1 2.09,-0.13 z"
       style="fill:#263238"
       id="path198" />
    <path
       d="m 204.51,227.22 a 38.75,38.75 0 0 0 -5.22,0.21 41.17,41.17 0 0 0 -5,1.41 10.28,10.28 0 0 1 4.94,-1.92 10.14,10.14 0 0 1 5.28,0.3 z"
       style="fill:#263238"
       id="path199" />
    <path
       d="m 244.6,212.51 a 2.35,2.35 0 0 1 -0.15,0.54 l -0.54,1.51 c -0.47,1.31 -1.22,3.17 -2.2,5.46 a 128.21,128.21 0 0 1 -9.12,17.14 144.78,144.78 0 0 1 -11.51,15.64 c -1.6,1.9 -2.93,3.41 -3.88,4.42 l -1.1,1.17 a 2.82,2.82 0 0 1 -0.41,0.38 2.36,2.36 0 0 1 0.33,-0.45 l 1,-1.23 c 0.9,-1.06 2.18,-2.6 3.75,-4.52 a 166.61,166.61 0 0 0 11.35,-15.69 143.38,143.38 0 0 0 9.22,-17 c 1,-2.26 1.83,-4.1 2.35,-5.39 0.26,-0.59 0.46,-1.08 0.63,-1.47 a 2.23,2.23 0 0 1 0.28,-0.51 z"
       style="fill:#263238"
       id="path200" />
    <path
       d="m 203.93,202.1 a 2.7,2.7 0 0 1 0,0.48 c 0,0.36 0.05,0.82 0.08,1.39 0.05,1.26 0.12,3 0.21,5.22 0.15,4.52 0.35,10.83 0.59,18.22 l -0.42,-0.15 9.74,-11.55 12.53,-14.77 0.13,-0.16 0.17,0.11 12.78,8.36 3.57,2.38 0.93,0.64 a 1.62,1.62 0 0 1 0.31,0.24 1.48,1.48 0 0 1 -0.34,-0.18 l -1,-0.58 -3.64,-2.28 -12.87,-8.19 0.29,-0.05 -12.48,14.82 -9.77,11.53 -0.42,0.48 v -0.63 c -0.16,-7.4 -0.3,-13.71 -0.4,-18.23 0,-2.2 -0.06,-4 -0.08,-5.23 v -1.39 a 3.06,3.06 0 0 1 0.09,-0.48 z"
       style="fill:#263238"
       id="path201" />
    <path
       d="m 298.74,152.9 c 0,0 11.08,5.61 11.57,31.66 0.49,26.05 2.43,56.95 0,62.31 -1.84,4 -6.16,16.25 -14,20.43 -2.36,1.25 -4.15,1.31 -7.37,0.84 -10.7,-1.56 -24.74,-14.07 -35.41,-34.61 -8.12,-15.63 -8.62,-22.87 -8.62,-22.87 l 14.9,-15 29.09,36.07 0.54,-34.58 z"
       style="fill:#193479"
       id="path202" />
    <path
       d="m 289.21,198.19 c 0,0 0,0.2 0,0.6 0,0.4 0,1 0,1.75 0,1.56 0,3.81 0,6.7 0,5.84 -0.08,14.22 -0.14,24.49 v 0.55 l -0.34,-0.43 -29.14,-36 h 0.38 l -11.52,11.61 -3.38,3.4 0.07,-0.24 a 95.21,95.21 0 0 0 14.45,32.38 84.25,84.25 0 0 0 19.94,20.84 28.13,28.13 0 0 0 5,3 14.77,14.77 0 0 0 2.52,0.87 22.43,22.43 0 0 0 2.49,0.38 13.17,13.17 0 0 0 8,-1.57 12.94,12.94 0 0 0 3.79,-3.58 c 0.35,-0.48 0.61,-0.87 0.77,-1.13 0.16,-0.26 0.27,-0.38 0.27,-0.38 a 14.65,14.65 0 0 1 -1,1.57 12.59,12.59 0 0 1 -3.76,3.69 13.35,13.35 0 0 1 -8.14,1.68 c -0.81,-0.1 -1.66,-0.17 -2.53,-0.36 a 14.57,14.57 0 0 1 -2.58,-0.88 27.65,27.65 0 0 1 -5.06,-3 83.91,83.91 0 0 1 -20.12,-20.86 95.23,95.23 0 0 1 -14.56,-32.57 v -0.14 l 0.1,-0.1 3.38,-3.41 11.53,-11.6 0.2,-0.21 0.18,0.23 c 11,13.68 21,26.09 29,36.11 l -0.35,0.12 c 0.14,-10.27 0.24,-18.64 0.32,-24.48 0.05,-2.89 0.09,-5.14 0.12,-6.7 0,-0.76 0,-1.34 0,-1.75 a 5.45,5.45 0 0 1 0.11,-0.58 z"
       style="fill:#263238"
       id="path203" />
    <path
       d="m 300.78,245.16 a 19.07,19.07 0 0 1 -1.5,-2.15 47.21,47.21 0 0 0 -3.9,-4.94 59.51,59.51 0 0 0 -4.49,-4.41 15.71,15.71 0 0 1 -1.93,-1.79 11.18,11.18 0 0 1 2.16,1.51 38.42,38.42 0 0 1 4.65,4.34 34,34 0 0 1 3.82,5.09 9.71,9.71 0 0 1 1.19,2.35 z"
       style="fill:#263238"
       id="path204" />
    <path
       d="m 297.55,158.12 c 0.07,0.06 -0.8,1.13 -2,3 a 39.92,39.92 0 0 0 -6.07,16.09 c -0.32,2.2 -0.38,3.58 -0.47,3.58 a 4,4 0 0 1 -0.05,-1 23.12,23.12 0 0 1 0.16,-2.65 34.7,34.7 0 0 1 6.13,-16.25 24.09,24.09 0 0 1 1.63,-2.09 3.6,3.6 0 0 1 0.67,-0.68 z"
       style="fill:#263238"
       id="path205" />
    <path
       d="m 201.49,184.8 c -0.08,0 -0.26,-1.33 -0.66,-3.48 a 75.06,75.06 0 0 0 -2,-8.29 79.25,79.25 0 0 0 -2.94,-8 34.45,34.45 0 0 1 -1.39,-3.26 3.6,3.6 0 0 1 0.52,0.8 c 0.31,0.53 0.72,1.32 1.2,2.31 a 56.71,56.71 0 0 1 3.11,8 58,58 0 0 1 1.87,8.38 c 0.15,1.09 0.24,2 0.28,2.58 a 3.22,3.22 0 0 1 0.01,0.96 z"
       style="fill:#263238"
       id="path206" />
    <g
       style="opacity:0.3"
       id="g207">
      <path
         d="m 302.23,245.09 a 10.77,10.77 0 0 0 -3.15,-5.5 37.57,37.57 0 0 0 -10.19,-7.73 55,55 0 0 1 12.05,13.44 c 0.25,0.4 0.74,0.85 1.11,0.56 a 0.8,0.8 0 0 0 0.18,-0.77 z"
         id="path207" />
    </g>
    <g
       style="opacity:0.3"
       id="g208">
      <path
         d="m 204.43,227.39 a 13.81,13.81 0 0 0 -14.85,8.42 3.85,3.85 0 0 0 -0.36,1.66 1.55,1.55 0 0 0 0.89,1.35 1.61,1.61 0 0 0 1.74,-0.58 6.06,6.06 0 0 0 0.9,-1.73 15.15,15.15 0 0 1 12.32,-9.1 z"
         id="path208" />
    </g>
  </g>
  <g
     id="freepik--Table--inject-11"
     transform="translate(-40,-36.997763)">
    <path
       d="m 460,474.1 c 0,0.14 -94,0.26 -210,0.26 -116,0 -210,-0.12 -210,-0.26 0,-0.14 94,-0.26 210.05,-0.26 116.05,0 209.95,0.16 209.95,0.26 z"
       style="fill:#263238"
       id="path209" />
  </g>
</svg>
